<?xml version="1.0" encoding="utf-8"?>
<!-- Generator: Adobe Illustrator 16.0.0, SVG Export Plug-In . SVG Version: 6.00 Build 0)  -->
<!DOCTYPE svg PUBLIC "-//W3C//DTD SVG 1.1//EN" "http://www.w3.org/Graphics/SVG/1.1/DTD/svg11.dtd">
<svg version="1.1" id="a09c848c-d5c4-49aa-a19e-91c8e1064310"
	 xmlns="http://www.w3.org/2000/svg" xmlns:xlink="http://www.w3.org/1999/xlink" x="0px" y="0px" width="1126.811px"
	 height="633.59px" viewBox="0 0 1126.811 633.59" enable-background="new 0 0 1126.811 633.59" xml:space="preserve">
<title>status update</title>
<path opacity="0.1" fill="#0B75CE" enable-background="new    " d="M650.4,130.03c-70.76,0.54-138.729-15.45-203.729-33.271
	c-65-17.82-129.471-37.83-198.841-46c-44.62-5.28-95.399-4.45-130.479,16c-33.75,19.66-43.73,51.88-48.66,81.62
	c-3.71,22.38-5.521,45.86,7.54,66.23c9.069,14.13,24.689,25.73,35.68,39.19c38.26,46.84,14.54,107.11-23.399,155.51
	C70.74,431.98,49.94,453.8,36.4,477.8s-19.18,51.11-5.79,74.601c13.28,23.289,43.54,40.06,76.08,51.449
	c66.1,23.141,143.17,27.7,218.23,29.17c166.14,3.24,332.71-6.64,498.819-16.51c61.48-3.649,123.23-7.33,183.48-17.149
	c33.46-5.45,67.93-13.431,91.75-30.601c30.24-21.8,36.68-57.12,15-82.34c-36.37-42.29-133-49.68-159-95.529
	c-14.311-25.24-1.57-54.371,17-78.911c39.939-52.65,108.34-100,109.95-158.63c1.109-40.25-34-79.28-86.681-96.43
	c-55.239-18-130.78-12.79-169.84,21.62C785.24,113.91,712.9,129.56,650.4,130.03z"/>
<path fill="#AF0707" d="M928.97,550.93c0,0-12.29-8.109-24.47-2.35c0,0,3.75,7.229,19.17,6.54L928.97,550.93z"/>
<path fill="#AF0707" d="M930.48,551.36c0,0,3.74,14.239-5.63,23.93c0,0-5.64-5.87-0.05-20.25L930.48,551.36z"/>
<path fill="#AF0707" d="M945.81,537.69c0,0-0.91-12.11-28.26-8.101c0,0-0.12,7.82,9.479,11.521
	C936.631,544.811,941.02,541.69,945.81,537.69z"/>
<path fill="#AF0707" d="M947.49,537.61c0,0,11.561,3.71,1.25,29.359c0,0-7.62-1.7-9-11.91S942.48,541.32,947.49,537.61z"/>
<path fill="#AF0707" d="M962.97,520.42c0,0,1.569-19.93-26.38-17.88c0,0-2,18,21.449,22.68L962.97,520.42z"/>
<path fill="#AF0707" d="M981.4,497.93c0,0-3.83-22.59-31.76-15.859c0,0-0.11,19.529,27.2,21.239L981.4,497.93z"/>
<path fill="#AF0707" d="M994.94,474.67c0,0-6.42-22-34.1-15.42c0,0,6.59,19.79,32.26,19.48L994.94,474.67z"/>
<path fill="#AF0707" d="M1007.76,451.95c0,0-6.271-22.83-33-16c0,0,8.92,21.689,31.229,19.87L1007.76,451.95z"/>
<path fill="#AF0707" d="M1016.03,430.37c0,0-4.819-27.92-29.74-21.74c0,0,7.23,25.4,27.9,25.8L1016.03,430.37z"/>
<path fill="#AF0707" d="M1023.77,404.3c0,0-5.78-28.149-31-20c0,0,9.89,26.601,29.22,23.851L1023.77,404.3z"/>
<path fill="#AF0707" d="M1028.57,380.029c0,0-9.189-28.139-28.68-27.379c0,0,9.399,29.729,27,33L1028.57,380.029z"/>
<path fill="#AF0707" d="M1031.62,356.359c0,0-10-33.879-25.869-31.27c0,0,6.93,25.9,25.3,36.551L1031.62,356.359z"/>
<path fill="#AF0707" d="M1033.4,328.08c0,0-9.37-28.23-25-29.36c0,0,6.37,27.78,24.681,36.69L1033.4,328.08z"/>
<path fill="#AF0707" d="M1035.24,301.8c0,0-11.689-28.26-22-28.9c0,0,5.08,27.83,21,33.54L1035.24,301.8z"/>
<path fill="#AF0707" d="M1036.54,277.23c0,0-7.18-30.7-17.52-33.24c0,0,1.41,25.11,16.48,35.54L1036.54,277.23z"/>
<path fill="#AF0707" d="M1040.4,245.14c0,0-7.56-24.46-15.93-28.19c0,0,1.66,28.84,14,34.18L1040.4,245.14z"/>
<path fill="#AF0707" d="M1043.66,224.07l1.53-43.14c0,0-15.62,32.56-2.68,50.75L1043.66,224.07z"/>
<path fill="#AF0707" d="M1055.751,181.2c0,0,11.26-31.5,14-33.26c0,0-22.101,20.44-19.94,46.73L1055.751,181.2z"/>
<path fill="#AF0707" d="M963.74,520.28c0,0,19.82-2.601,19.221,25.42c0,0-17.91,2.91-23.75-20.25L963.74,520.28z"/>
<path fill="#AF0707" d="M982.4,497.17c0,0,22.91-0.07,21,28.6c0,0-19.22,3.431-25.57-23.18L982.4,497.17z"/>
<path fill="#AF0707" d="M995.16,476.52c0,0,20.79-9.75,34.101,15.42c0,0-19.21,8.12-35.931-11.35L995.16,476.52z"/>
<path fill="#AF0707" d="M1008.22,452.16c0,0,21.29-10.37,33.79,14.21c0,0-22.17,7.64-35.54-10.32L1008.22,452.16z"/>
<path fill="#AF0707" d="M1015.751,430.98c0,0,20.489-19.58,36.85,0.22c0,0-20.94,16.1-37.79,4.14L1015.751,430.98z"/>
<path fill="#AF0707" d="M1022.61,403.63c0,0,20.62-20,36.84,0.92c0,0-23.14,16.431-37.569,3.28L1022.61,403.63z"/>
<path fill="#AF0707" d="M1026.47,379.23c0,0,15.88-25,34.569-19.41c0,0-16.47,26.47-34.399,25.289L1026.47,379.23z"/>
<path fill="#AF0707" d="M1031.15,356.2c0,0,16-31.49,31.13-26c0,0-11.529,24.2-31.54,31.31L1031.15,356.2z"/>
<path fill="#AF0707" d="M1032.251,326.471c0,0,16.449-24.781,31.859-21.761c0,0-13.45,25.13-33.45,28.931L1032.251,326.471z"/>
<path fill="#AF0707" d="M1033.501,301.19c0,0,12.75-27.8,23.119-28c0,0-6.13,27.61-22.26,32.72L1033.501,301.19z"/>
<path fill="#AF0707" d="M1036.03,276.63c0,0,14.17-28.17,24.82-28.22c0,0-7.25,24.08-24.35,30.69L1036.03,276.63z"/>
<path fill="#AF0707" d="M1038.16,246.87c0,0,10.601-23.3,19.38-25.94c0,0-5.3,28.4-18.209,32.12L1038.16,246.87z"/>
<path fill="#AF0707" d="M1044.921,223.25l23.689-36.08c0,0-6.07,35.6-27.14,43L1044.921,223.25z"/>
<path fill="#AF0707" d="M1061.18,184.1c0,0,27.54-19,28.53-22.08c0,0-14,26.62-40,31.32L1061.18,184.1z"/>
<path fill="#AF0707" d="M1062.831,175.55c0,0,31.609-30.38,39.68-30.35c0,0-26.07,1.19-40.44,28.74L1062.831,175.55z"/>
<path fill="#040530" d="M1038.47,251.38l1.149,0.15c5.94-46.5,14.601-74,24.391-77.37l-0.38-1.1
	C1053.251,176.66,1044.551,203.74,1038.47,251.38z"/>
<path fill="#040530" d="M1029.74,362.55l1.74,0.15c0.36-4.341,0.64-8.79,0.83-13.21c1.66-38.48,4.229-73.82,7.62-100.31l-1-1.25
	c-3.391,26.54-6.69,62.95-8.351,101.49C1030.4,353.8,1030.1,358.24,1029.74,362.55z"/>
<path fill="#040530" d="M896.51,573.06c0.31-0.13,30.939-13.81,62.729-46.439c18.623-19.107,34.099-41.046,45.851-65
	c14.689-29.93,23.649-66.71,26.66-102.44l-1.82,0.85c-6.74,80.201-43.26,135.001-72.29,164.851c-31.48,32.33-61.76,45.87-62.06,46
	L896.51,573.06z"/>
<path fill="#FFFFFF" d="M969.85,31.19v518.42c0,15.409-14.87,28-33.23,28H233.25c-18.359,0-33.229-12.54-33.229-28V31.19
	C200.02,15.75,214.89,0,233.25,0l703.331,1.71C954.94,1.71,969.85,15.8,969.85,31.19z"/>
<path fill="#040530" d="M969.85,31.35v24H200.02v-24C200.02,14.036,214.055,0,231.37,0c0.01,0,0.021,0,0.03,0h707.11
	C955.82,0.005,969.85,14.04,969.85,31.35z"/>
<circle opacity="0.8" fill="#FA5959" enable-background="new    " cx="237.32" cy="27.67" r="11.08"/>
<circle opacity="0.8" fill="#FED253" enable-background="new    " cx="269.55" cy="27.67" r="11.08"/>
<circle opacity="0.8" fill="#8CCF4D" enable-background="new    " cx="301.78" cy="27.67" r="11.08"/>
<g opacity="0.2">
	<path fill="#0B75CE" d="M653.4,189.8v56c0,1.67-3.13,3-7,3H498.68c-3.86,0-7-1.35-7-3v-56c0-1.67,3.12-3.37,7-3.37H646.4
		C650.28,186.42,653.4,188.12,653.4,189.8z"/>
</g>
<rect x="562.671" y="206.42" fill="#0B75CE" width="76.96" height="2.72"/>
<path opacity="0.2" fill="#0B75CE" enable-background="new    " d="M523.73,200.46c-10.079,0.006-18.245,8.181-18.239,18.261
	c0.003,6.121,3.075,11.832,8.18,15.209v-1.21c0.005-2.095,1.57-3.857,3.649-4.11c1.921,3.507,6.321,4.793,9.828,2.873
	c1.212-0.664,2.208-1.661,2.872-2.873c2.08,0.252,3.646,2.015,3.65,4.11v1.29c8.449-5.494,10.846-16.798,5.352-25.248
	C535.657,203.586,529.903,200.463,523.73,200.46L523.73,200.46z M530.89,223.6c-0.257,3.985-3.696,7.006-7.681,6.75
	c-3.626-0.234-6.516-3.124-6.749-6.75c-1.823-3.976-0.078-8.677,3.898-10.5c0.083-0.038,0.167-0.075,0.251-0.11
	c-0.251-0.391-0.386-0.846-0.39-1.31c0-1.331,1.079-2.41,2.41-2.41c0.003,0,0.006,0,0.01,0h0.17c-1.261,0.089-2.238,1.136-2.24,2.4
	c0.002,0.421,0.112,0.834,0.32,1.2h0.07c-0.016-0.16-0.016-0.32,0-0.48c-0.001-0.504,0.16-0.995,0.46-1.4
	c0.308-1.012,1.242-1.702,2.3-1.7h0.17c-0.749,0.051-1.431,0.451-1.84,1.08c0.393-0.265,0.856-0.404,1.33-0.4
	c1.331,0,2.409,1.079,2.409,2.41c0.006,0.09,0.006,0.18,0,0.27c3.469,0.928,5.88,4.07,5.881,7.66
	C531.645,221.449,531.38,222.571,530.89,223.6z"/>
<rect x="562.671" y="213.04" opacity="0.2" fill="#0B75CE" enable-background="new    " width="76.96" height="2.72"/>
<rect x="562.671" y="219.66" opacity="0.2" fill="#0B75CE" enable-background="new    " width="76.96" height="2.72"/>
<rect x="562.671" y="226.29" opacity="0.2" fill="#0B75CE" enable-background="new    " width="76.96" height="2.72"/>
<g opacity="0.2">
	<path fill="#0B75CE" d="M479.99,299.47v56.001c0,1.659-3.12,3-7,3H325.27c-3.86,0-7-1.361-7-3V299.47c0-1.67,3.12-3.37,7-3.37
		h147.74C476.87,296.1,479.99,297.8,479.99,299.47z"/>
</g>
<rect x="389.251" y="316.1" fill="#0B75CE" width="76.96" height="2.72"/>
<path opacity="0.2" fill="#0B75CE" enable-background="new    " d="M350.32,310.13c-10.079-0.002-18.252,8.166-18.255,18.245
	c-0.001,6.133,3.077,11.855,8.195,15.234v-1.219c0.005-2.094,1.571-3.854,3.649-4.101c1.921,3.507,6.321,4.793,9.828,2.872
	c1.212-0.664,2.208-1.66,2.872-2.872c2.078,0.247,3.645,2.007,3.65,4.101v1.299c8.455-5.485,10.862-16.787,5.377-25.242
	C362.27,313.258,356.506,310.127,350.32,310.13z M357.47,333.27c-0.257,3.985-3.696,7.007-7.681,6.75
	c-3.626-0.234-6.516-3.123-6.75-6.75c-0.467-1.033-0.709-2.154-0.71-3.289c0-3.196,1.915-6.081,4.86-7.32
	c-0.249-0.388-0.381-0.84-0.38-1.301c0-1.332,1.077-2.414,2.41-2.42h0.18c-1.328,0.09-2.332,1.24-2.242,2.567
	c0.025,0.364,0.132,0.717,0.313,1.033h0.08c-0.016-0.156-0.016-0.313,0-0.47c0.149-1.525,1.264-2.78,2.76-3.11h0.09
	c-0.747,0.056-1.427,0.454-1.84,1.08c0.391-0.261,0.851-0.399,1.32-0.399c1.336,0,2.42,1.083,2.42,2.42l0,0
	c0.005,0.09,0.005,0.18,0,0.27c4.229,1.115,6.753,5.449,5.638,9.678c-0.12,0.454-0.28,0.896-0.478,1.322L357.47,333.27z"/>
<rect x="389.251" y="322.721" opacity="0.2" fill="#0B75CE" enable-background="new    " width="76.96" height="2.719"/>
<rect x="389.251" y="329.34" opacity="0.2" fill="#0B75CE" enable-background="new    " width="76.96" height="2.721"/>
<rect x="389.251" y="335.96" opacity="0.2" fill="#0B75CE" enable-background="new    " width="76.96" height="2.72"/>
<g opacity="0.2">
	<path fill="#0B75CE" d="M440.1,121.88v56c0,1.66-3.12,3-7,3H285.4c-3.851,0-7-1.36-7-3v-56c0-1.67,3.13-3.37,7-3.37h147.72
		C436.98,118.51,440.1,120.21,440.1,121.88z"/>
</g>
<rect x="349.36" y="138.51" fill="#0B75CE" width="76.96" height="2.72"/>
<rect x="349.36" y="145.13" opacity="0.2" fill="#0B75CE" enable-background="new    " width="76.96" height="2.72"/>
<rect x="349.36" y="151.75" opacity="0.2" fill="#0B75CE" enable-background="new    " width="76.96" height="2.72"/>
<rect x="349.36" y="158.37" opacity="0.2" fill="#0B75CE" enable-background="new    " width="76.96" height="2.72"/>
<path opacity="0.2" fill="#0B75CE" enable-background="new    " d="M310.4,132.54c-10.085,0.049-18.221,8.263-18.172,18.348
	c0.029,6.091,3.095,11.767,8.172,15.132v-3.09c0.005-2.095,1.57-3.858,3.649-4.11c1.921,3.507,6.321,4.793,9.828,2.873
	c1.212-0.664,2.209-1.661,2.873-2.873c2.081,0.249,3.649,2.014,3.649,4.11v3.16c8.45-5.494,10.846-16.798,5.352-25.248
	C322.376,135.648,316.594,132.522,310.4,132.54z M318.4,154.82c-0.063,0.116-0.144,0.22-0.24,0.31
	c-0.155,0.109-0.34,0.172-0.529,0.18h-0.37c-1.158,3.833-5.204,6.001-9.037,4.843c-3.047-0.92-5.137-3.72-5.153-6.903
	c0-1.25,0.327-2.477,0.95-3.56l-0.08-0.05c-0.84-0.998-0.733-2.482,0.24-3.35c0.466-0.266,0.973-0.451,1.5-0.55
	c1.582-0.469,2.935-1.505,3.8-2.91c0.025,0.366,0.025,0.733,0,1.1c0.603-0.654,1.621-0.696,2.275-0.094
	c0.005,0.005,0.01,0.009,0.015,0.014c0.189,0.269,0.407,0.517,0.65,0.74c0.25,0.133,0.526,0.212,0.81,0.23l1.82,0.23
	c0.753,0.02,1.479,0.283,2.069,0.75c0.315,0.353,0.551,0.769,0.69,1.22c0.538,1.235,0.937,2.527,1.19,3.85
	c0.254,1.335,0.061,2.716-0.551,3.93L318.4,154.82z"/>
<g opacity="0.2">
	<path fill="#0B75CE" d="M693.77,386.8v56c0,1.67-3.12,3-7,3H539.04c-3.859,0-7-1.35-7-3v-56c0-1.67,3.12-3.36,7-3.36h147.75
		C690.65,383.391,693.77,385.08,693.77,386.8z"/>
</g>
<rect x="603.03" y="403.38" fill="#0B75CE" width="76.96" height="2.72"/>
<rect x="603.03" y="410" opacity="0.2" fill="#0B75CE" enable-background="new    " width="76.96" height="2.72"/>
<rect x="603.03" y="416.63" opacity="0.2" fill="#0B75CE" enable-background="new    " width="76.96" height="2.72"/>
<rect x="603.03" y="423.25" opacity="0.2" fill="#0B75CE" enable-background="new    " width="76.96" height="2.72"/>
<path opacity="0.2" fill="#0B75CE" enable-background="new    " d="M564.091,397.42c-10.079,0.006-18.246,8.182-18.24,18.261
	c0.004,6.12,3.075,11.832,8.18,15.209v-3.09c0.01-2.091,1.574-3.848,3.65-4.1c1.921,3.507,6.32,4.793,9.828,2.872
	c1.211-0.664,2.208-1.66,2.872-2.872c2.078,0.247,3.645,2.007,3.649,4.1v3.17c8.45-5.494,10.846-16.798,5.352-25.248
	C576.016,400.546,570.263,397.423,564.091,397.42L564.091,397.42z M572.091,419.69c-0.061,0.12-0.142,0.229-0.24,0.319
	c-0.156,0.109-0.34,0.172-0.53,0.181h-0.38c-1.107,3.842-5.12,6.059-8.962,4.95c-3.843-1.107-6.059-5.12-4.951-8.962
	c0.162-0.563,0.392-1.103,0.684-1.608h-0.08c-0.84-0.998-0.733-2.482,0.239-3.351c0.467-0.266,0.974-0.451,1.5-0.55
	c1.581-0.466,2.934-1.498,3.801-2.9c0.024,0.367,0.024,0.734,0,1.101c0.602-0.654,1.62-0.696,2.274-0.094
	c0.005,0.004,0.01,0.009,0.015,0.014c0.188,0.269,0.406,0.513,0.65,0.729c0.249,0.14,0.525,0.222,0.811,0.24l1.819,0.23
	c0.754,0.015,1.481,0.278,2.07,0.75c0.315,0.352,0.551,0.768,0.69,1.22c0.539,1.235,0.938,2.526,1.189,3.85
	c0.239,1.321,0.039,2.685-0.57,3.881H572.091z"/>
<linearGradient id="SVGID_1_" gradientUnits="userSpaceOnUse" x1="475.2903" y1="-82.1382" x2="475.2903" y2="130.1841" gradientTransform="matrix(1 0 0 -1 -44.96 524.4443)">
	<stop  offset="0" style="stop-color:#808080;stop-opacity:0.25"/>
	<stop  offset="0.54" style="stop-color:#808080;stop-opacity:0.12"/>
	<stop  offset="1" style="stop-color:#808080;stop-opacity:0.1"/>
</linearGradient>
<path fill="url(#SVGID_1_)" d="M519.56,570.28l-21.94-31.811c0,0-0.409-7.88-1.85-9.72s-0.31-5.93-0.31-5.93s1.539-2.25,0.21-2.46
	c-1.33-0.21-0.21-5.221-0.21-5.221l-0.101-8c0,0,1.23-7.68,0.21-9.52c-0.616-1.014-0.577-2.296,0.101-3.271c0,0,1.229-4.399,0-5.529
	c-1.23-1.131-0.931-8-0.62-13.4c0.31-5.4-2.15-8.49-2.15-9.31c0-0.82-8.1-8.79-8.1-9.511c0-0.72-5.13-3.68-8.21-4.5
	c-3.08-0.819-4.61-1.43-4.511-1.84c0.101-0.41-4.819-2-4.819-2s-4.3-0.31-5.95-2.45c-1.65-2.14-6.65-2.779-6.8-2.79l-0.09-0.43
	l-0.091-0.46c0.381-0.65,0.74-1.32,1.07-2c0.101-0.21,0.19-0.41,0.28-0.62c1.805,0.008,3.567-0.54,5.05-1.57
	c1.465-1.224,2.354-3.003,2.45-4.909c0.086-1.89-0.324-3.769-1.19-5.45c-0.899-1.84-2.22-3.75-1.77-5.75c0.2-0.86,0.72-1.62,1-2.46
	c0.396-1.651,0.131-3.393-0.74-4.851c-0.77-1.479-1.85-2.79-2.72-4.229c-1.105-1.84-1.839-3.878-2.16-6
	c-0.065-1.127-0.337-2.231-0.8-3.26c-0.468-0.725-1.081-1.345-1.8-1.82c-3.203-2.286-7.067-3.459-11-3.34
	c-2.79,0.1-5.58,0.85-8.351,0.51c-1.655-0.289-3.284-0.714-4.87-1.271c-3.439-1-7.41-1.439-10.399,0.53
	c-2.99,1.971-4.19,5.84-6.221,8.87c-1.8,2.67-4.42,4.92-5.79,7.76c0-0.06,0-0.109,0-0.17c-0.329,0.66-0.584,1.354-0.76,2.07
	c-0.38,2.265-0.226,4.586,0.45,6.78c0.157,1.173,0.75,2.243,1.66,3c1,0.649,2.399,0.5,3.59,0.71c-0.05,0.189-0.1,0.39-0.14,0.58
	c-0.343,1.601-0.515,3.232-0.511,4.87c-0.003,10.367,6.805,19.506,16.74,22.47c0,0.21,0,0.42,0,0.62
	c-0.002,0.588-0.035,1.176-0.1,1.76l0,0c0,0-10.311-2.12-13.07-0.68c-2.76,1.439-8.21,2.55-9,3.37c-0.79,0.819-2.87,0.21-4.72,5
	c-1.851,4.79-2.05,9.72-4.4,12c-2.35,2.279-3.59,3.79-3.7,5.43c-0.109,1.64,0.311,2-0.609,2.55s-2.261,2.66-1.851,3.48
	c0.292,1.158-0.156,2.377-1.13,3.069c-0.987,0.698-1.531,1.866-1.43,3.07c0,0-0.62,2.25-2.05,2.76
	c-1.431,0.51-2.36,3.891-2.36,3.891l-4.65,5.35l-9.22-10.2c-1.438-1.585-3.888-1.71-5.479-0.28l-4.54,4.03
	c-1.747,0.424-3.326,1.365-4.53,2.7c-0.983,1.014-1.776,2.195-2.34,3.49l-2.48,2.229c-1.6,1.975-1.852,4.718-0.64,6.95l5.91,6.53
	v0.06c-2.096,0.175-4.087,0.984-5.71,2.32c-8.811,7.78-8.92,14.939-7.58,18.21s12.51,15.86,12.51,15.86s6.49,8.439,15.86,12.93l0,0
	l-0.07,0.07c-0.19,0.199-0.37,0.409-0.55,0.64l-0.15,0.2c-0.052,0.063-0.099,0.129-0.14,0.2l-0.17,0.239l-0.13,0.2l-0.181,0.3
	l-0.109,0.19l-0.21,0.4c0,0-0.051,0.09-0.07,0.13c-0.021,0.04-0.17,0.37-0.25,0.56l-0.09,0.21c0,0.13-0.101,0.271-0.16,0.4
	l-0.09,0.27c0,0.13-0.09,0.261-0.13,0.4l-0.09,0.29c-0.04,0.14-0.08,0.29-0.12,0.45c0,0.09-0.051,0.18-0.07,0.27
	c-0.021,0.09-0.11,0.49-0.16,0.74c-0.006,0.097-0.006,0.193,0,0.29c-0.04,0.175-0.07,0.352-0.09,0.53c0,0.119,0,0.239-0.05,0.369
	c-0.05,0.131-0.05,0.33-0.07,0.511c-0.02,0.18,0,0.25,0,0.39c0,0.141,0,0.38,0,0.58v0.36c0,0.319,0,0.649,0,1
	c-0.21,12,0.49,13.71,0.49,13.71c0.927,2.256,3.015,3.822,5.439,4.08c0.589,0.042,1.18,0.012,1.761-0.09
	c5.33-0.931,17.84-3.07,22.25-2.25c2.649,0.489,7.56-0.24,11.05-0.9l0.92-0.18l0.64,2l2-0.561l1.721,1l1.09,0.62
	c2,6.86,10.239,4.521,10.239,4.521l1.95,1.13l19.79,0.51c2.219,1.346,4.563,2.471,7,3.36c0.327,0.1,0.661,0.174,1,0.22
	c1.833,0.147,3.673,0.181,5.51,0.1c1.521,0,2.69-0.1,2.69-0.1s-0.2-5.37-0.49-11.391c6.134-0.151,12.254-0.651,18.33-1.5
	c10.57-1.859,15-11.47,16.601-16.6c0.479,2.098,0.813,4.227,1,6.37c0.432,1.872,0.979,3.716,1.64,5.52
	c0.576,1.457,1.336,2.835,2.26,4.101c7.79-2.66,3.07-6.65,1.431-8.391c-1.641-1.739,1.13-3.17,1.13-3.17s2.159-1.439,2-2.77
	c-0.16-1.33-0.311-2.76,6.67-2.66C520.03,576.05,519.56,570.28,519.56,570.28z M411.28,504.96c0.09,0.59,1.061,6.89,1.94,8.55
	c0.251,1.104,0.329,2.242,0.229,3.37c-4.13-0.33-8.43-0.51-8.43-0.51c0.123,0.151,0.2,0.335,0.22,0.53l-0.649-0.15l-0.95-0.23
	l7.62-11.569L411.28,504.96z M396.2,528.96l7.15,1.14l0.6,0.091c-0.198,1.117-0.321,2.246-0.37,3.38c0,0.1,0.16,0.229,0.391,0.38
	c-0.092,0.559-0.138,1.124-0.141,1.689c0.12,0.57,3.46,1.79,7.301,2.811c-0.061,0.2-0.11,0.399-0.16,0.58l0,0
	c-3.391-1.78-8.72-2.61-9.34-3.931c-0.62-1.319-18.761-7.67-18.761-7.67s-0.67-0.35-1.81-0.899l4.78,0.899l1.31-0.13
	c2.979,0.744,6.001,1.295,9.05,1.65V528.96z"/>
<path fill="#040530" d="M496.22,574.73c0,0-2.851,17.18-17.28,19.72s-62.6,2-62.6,2s-27.54-4-37.5-27.23
	c-9.96-23.229-16.37-32.529-7.83-32.93s54.58,15.55,57.22,15.75S498.76,516.7,496.22,574.73z"/>
<path opacity="0.05" enable-background="new    " d="M496.22,574.73c0,0-2.851,17.18-17.28,19.72s-62.6,2-62.6,2
	s-27.54-4-37.5-27.23c-9.96-23.229-16.37-32.529-7.83-32.93s54.58,15.55,57.22,15.75S498.76,516.7,496.22,574.73z"/>
<path fill="#040530" d="M367.03,593.8c0.9,2.25,2.963,3.825,5.37,4.101c0.582,0.039,1.167,0.005,1.74-0.101
	c5.28-0.91,17.68-3,22.05-2.229c2.63,0.489,7.5-0.24,11-0.891c2.3-0.43,4-0.84,4-0.84s-4.06-13.52-4.57-13.92
	c-0.51-0.4-18.33-11.12-18.33-11.12l-14.09-1l0,0c-1.893,0.285-3.603,1.292-4.77,2.811c-1.49,1.8-2.771,4.75-2.851,9.59
	C366.33,592.11,367.03,593.8,367.03,593.8z"/>
<path opacity="0.05" enable-background="new    " d="M367.03,593.8c0.9,2.25,2.963,3.825,5.37,4.101
	c-1.381-1.784-2.657-3.647-3.82-5.58l0.07-9.86c-0.584-5.491,1.477-10.933,5.55-14.66l0,0c0,0-7.42,0.51-7.62,12.4
	C366.381,592.09,367.03,593.8,367.03,593.8z"/>
<path opacity="0.1" enable-background="new    " d="M428.131,572.29l13.109-10.26l20.63-20.33l-5.59-0.25
	c-0.84,0.53-3.18,2.21-3.27,4.25c-0.101,2.479-5.57,0.17-8.42,1.59c-2.851,1.42-16.771,19.24-19.19,19.13s-4.37-1.24-5.38,0.49
	c-0.024,0.038-0.051,0.075-0.08,0.109L428.131,572.29z"/>
<path opacity="0.1" enable-background="new    " d="M369.4,570.63l1.42,0.65c10,4.27,22.25,13.21,23.17,14.84
	c0.561,1,7.69,5.32,13.19,8.56c2.3-0.43,4-0.84,4-0.84s-4.061-13.52-4.57-13.92c-0.51-0.399-18.32-11.12-18.32-11.12l-14.09-1l0,0
	C372.293,568.083,370.571,569.098,369.4,570.63z"/>
<path fill="#040530" d="M341.74,541.5c1.32,3.25,12.4,15.75,12.4,15.75s7,9.15,17,13.42s22.26,13.21,23.17,14.84
	c0.59,1,8.53,5.82,14.12,9.11l1.26,0.729l2.771,1.61l1.47,0.84c0,0,3.399-2.729,6.79-5.479c3.39-2.75,6.68-5.44,6.729-5.59
	c0.101-0.311,1.42-3.761,1.11-4c-0.16-0.101-0.85-1.511-2.14-3.141c-1.363-1.813-3.134-3.28-5.171-4.28
	c-2.965-1.506-5.33-3.974-6.71-7c0,0-0.449-0.319-1.119-0.75c-1.388-0.942-2.937-1.62-4.57-2c-2.24-0.279-6.4-4.85-6.4-4.85
	c-1.64-1.06-3.01-2.487-4-4.17c-1.069-2.23-16.83-13-18.29-14l38.24,24.49l9.15,5.87l13.109-10.261l20.63-20.33l-6.81-0.3
	c-10-0.439-27.83-1.12-30.08-0.609c-1.83,0.428-3.72,0.55-5.59,0.359c0,0-5.08,0.23-8.43-1.54c-3.351-1.77-8.65-2.6-9.261-3.91
	c-0.609-1.31-18.6-7.619-18.6-7.619s-24.49-13-33.23-5.28C340.551,531.13,340.4,538.25,341.74,541.5z"/>
<path fill="#EE8E9E" d="M420.711,466.9l3.149,10.47l4.061,23.58l14.939,1l4.33-7.181l4.31-7.149c0,0,2.69-9.53,4.631-18.75
	c1.71-8.15,2.819-16.07,1-16.931c-1.65-0.76-2.73-3.51-3.44-6.46c-0.09-0.359-0.17-0.729-0.24-1.1c-0.501-2.502-0.835-5.034-1-7.58
	c0,0-31.31-1.63-26.939,11.28c0.783,2.202,1.183,4.522,1.18,6.859c-0.002,0.585-0.035,1.169-0.1,1.75
	C426.148,460.767,424.014,464.471,420.711,466.9z"/>
<path fill="#E3E8F4" d="M414.2,465.17l1.12,17.79l2.54,15.14l2.851,7l2.54,38.36c0,0,24.5,2.84,30.46,0
	c0.428-0.179,0.801-0.469,1.079-0.84c7.2-10.87,4.841-42.351,4.841-42.351l2.77-20.359l-1.83-10.55l-4.42-0.471l-3.41-0.359
	c0,0-0.77,0.939-1.87,2.41c-3,4-8.56,11.8-8.189,15.069c0.51,4.471-0.61,9-2.34,9.75c-1.73,0.75-3.15,1.94-3.45,0.721
	c-0.43-1.027-0.538-2.161-0.311-3.25c0.311-1.73-1.319-7-1.319-7s-2.74-6.2-2.54-8.841c0.2-2.64-0.3-5.689-1.12-6.399
	s-1.93-1.431-1-4.681s-4-9.58-4-9.58L414.2,465.17z"/>
<path opacity="0.1" enable-background="new    " d="M446.57,509.59l1,30.391l5.87,3.26c0.432-0.179,0.805-0.473,1.08-0.851
	c7.2-10.87,4.84-42.35,4.84-42.35l2.74-20.33l-1.83-10.55l-4.42-0.47c1.71-8.15,2.83-16.061,1-16.92
	c-1.65-0.771-2.74-3.511-3.44-6.46l0,0l-3.18,21.489c0,0,0.27,1.931,0.36,3.931c0.131,1.269,0.043,2.551-0.261,3.789
	c-0.71,1.83-0.199,5.08-0.199,5.08c-1.83,3.23-2.75,9.21-3.19,15C446.341,502.28,446.57,509.59,446.57,509.59z"/>
<path fill="#040530" d="M453.501,444.8c0,0,5.119,0.641,6.739,2.771s5.9,2.439,5.9,2.439s4.88,1.63,4.77,2
	c-0.109,0.37,1.431,1,4.48,1.83s8.13,3.76,8.13,4.48c0,0.72,8,8.63,8,9.449c0,0.82,2.43,3.86,2.13,9.25
	c-0.3,5.391-0.61,12.19,0.61,13.311c1.22,1.12,0,5.49,0,5.49c-0.669,0.97-0.708,2.24-0.101,3.25c1,1.83-0.21,9.449-0.21,9.449
	l0.11,7.931c0,0-1.12,5,0.2,5.18c1.319,0.18-0.2,2.44-0.2,2.44s-1.12,4.069,0.3,5.899s1.83,9.65,1.83,9.65l21.75,31.61
	c0,0,0.3,5.789-6.61,5.689c-6.909-0.1-6.81,1.32-6.6,2.641c0.21,1.319-1.93,2.75-1.93,2.75s-2.75,1.42-1.12,3.149
	c1.63,1.73,6.3,5.69-1.42,8.33c-0.915-1.253-1.668-2.617-2.24-4.06c-0.653-1.796-1.198-3.629-1.63-5.49c0,0-0.71-7.73-2.13-8.74
	s-1.22-5.9-1.22-5.9s2-4-0.811-5.59c-2.81-1.59-44.11-24.489-44.11-24.489l-1-30.391c0,0-0.71-22.46,3.561-30
	c0,0-0.51-3.25,0.2-5.08s-0.101-7.729-0.101-7.729L453.501,444.8z"/>
<path opacity="0.1" enable-background="new    " d="M426.86,457.02c0,0-10.22-2.109-13-0.689s-8.13,2.54-8.939,3.359
	c-0.811,0.82-2.851,0.2-4.681,5c-1.83,4.801-2,9.65-4.37,11.891c-2.369,2.24-3.56,3.76-3.659,5.38c-0.101,1.62,0.31,2-0.61,2.54
	s-2.23,2.65-1.83,3.46s21.14,18.7,21.14,18.7s1,6.81,1.931,8.54c0.93,1.729-1,25.51-3.051,27.13c-2.05,1.62,13.761,1.47,13.761,1.47
	s0.72-15.6,1.33-16.42c0.609-0.82-0.41-17.479-0.41-17.479s-0.101-14.23,1.22-18c1.32-3.771,1.17-16.261,1.17-16.261
	s1.17-7.5,2.59-9.25S426.86,457.02,426.86,457.02z"/>
<path fill="#040530" d="M426.56,456.71c0,0-10.22-2.1-13-0.68s-8.13,2.54-8.94,3.35c-0.81,0.81-2.85,0.21-4.67,5
	c-1.819,4.79-2,9.66-4.37,11.89c-2.369,2.23-3.56,3.761-3.659,5.391c-0.101,1.63,0.3,2-0.61,2.54s-2.24,2.64-1.83,3.46
	s21.14,18.7,21.14,18.7s1,6.81,1.931,8.529c0.93,1.721-1,25.511-3.05,27.141c-2.051,1.63,13.72,1.47,13.72,1.47
	s0.71-15.6,1.319-16.41c0.61-0.81-0.409-17.479-0.409-17.479s-0.101-14.23,1.22-18c1.32-3.771,1.18-16.261,1.18-16.261
	s1.16-7.5,2.58-9.25S426.56,456.71,426.56,456.71z"/>
<path opacity="0.1" enable-background="new    " d="M425.48,448.1c0.784,2.202,1.183,4.523,1.18,6.86
	c10.282,3.062,21.325-1.299,26.74-10.56c-0.501-2.502-0.835-5.034-1-7.58C452.4,436.82,421.11,435.19,425.48,448.1z"/>
<path fill="#EE8E9E" d="M410.04,432.04c0.026,12.824,10.443,23.199,23.268,23.173s23.199-10.443,23.173-23.268
	c-0.026-12.823-10.443-23.198-23.268-23.172c-10.959,0.021-20.41,7.703-22.673,18.427
	C410.205,428.791,410.037,430.414,410.04,432.04z"/>
<path fill="#040530" d="M395.1,485.91l-5.59,1.729c0.268,1.135-0.174,2.319-1.12,3c-0.964,0.685-1.502,1.821-1.42,3
	c0,0-0.61,2.24-2,2.75c-1.391,0.511-2.33,3.86-2.33,3.86l-4.68,5.39c0,0-1.73,1.42-1.421,2.13c0.311,0.711-1.829,0.91-1.829,0.91
	l1.119,18.101l9.65,1.819l6-0.609l4.88-1.82l4.271-2.55l1.93-5l8.53-13L395.1,485.91z"/>
<path fill="#EE8E9E" d="M376.091,510.2c0,0-12.4-17.891-21.65-8.23s3.76,25.3,6.811,24.79c3.05-0.51,17.59-1.319,17.59-1.319
	L376.091,510.2z"/>
<path opacity="0.1" enable-background="new    " d="M410.54,427.2c0.642,0.054,1.245,0.325,1.711,0.77
	c0.779,0.83,0.819,2.3,1.85,2.82c0.382,0.162,0.802,0.21,1.21,0.14c2.7-0.39,4.26-3.439,6.86-4.279
	c1.518-0.383,3.119-0.245,4.55,0.39c0.579,0.195,1.097,0.54,1.5,1c0.87,1.13,0.26,2.78,0.66,4.14c0.56,1.891,2.81,2.641,4.77,2.881
	c1.96,0.239,4.15,0.39,5.45,1.859c0.873,1.11,1.236,2.538,1,3.93c-0.115,0.48-0.115,0.98,0,1.461c0.54,1.52,3.18,1.3,3.87,0.09
	c0.5-0.87,0.35-1.601,1.529-1.84c0.854-0.072,1.711,0.075,2.49,0.43c2.068,0.72,4.251,1.059,6.44,1
	c5.471-11.636,0.473-25.503-11.162-30.973c-11.636-5.471-25.503-0.474-30.973,11.161c-0.762,1.62-1.334,3.321-1.705,5.071
	L410.54,427.2z"/>
<path fill="#040530" d="M440.051,441.67c-0.115-0.479-0.115-0.98,0-1.46c0.236-1.393-0.127-2.82-1-3.93
	c-1.3-1.471-3.5-1.61-5.45-1.86s-4.21-1-4.771-2.88c-0.399-1.36,0.21-3-0.659-4.14c-0.399-0.465-0.918-0.811-1.5-1
	c-1.43-0.639-3.031-0.779-4.551-0.4c-2.6,0.84-4.159,3.89-6.859,4.28c-0.408,0.069-0.828,0.021-1.21-0.141
	c-1-0.52-1.07-2-1.851-2.819c-1.239-1.311-3.58-0.471-5.09-1.44c-0.909-0.754-1.496-1.827-1.64-3c-0.676-2.181-0.83-4.489-0.45-6.74
	c0.88-3.779,4.26-6.37,6.42-9.6c2-3,3.14-6.81,6.16-8.81c3.02-2,6.9-1.541,10.31-0.53c1.57,0.562,3.187,0.987,4.83,1.27
	c2.74,0.34,5.5-0.41,8.271-0.5c3.906-0.128,7.745,1.039,10.92,3.32c0.715,0.467,1.321,1.08,1.78,1.8
	c0.464,1.021,0.735,2.12,0.8,3.24c0.322,2.1,1.049,4.117,2.14,5.939c0.86,1.431,1.93,2.73,2.7,4.211
	c0.864,1.445,1.126,3.173,0.729,4.81c-0.26,0.84-0.77,1.59-1,2.45c-0.449,2,0.86,3.88,1.75,5.71c0.863,1.672,1.273,3.54,1.19,5.42
	c-0.104,1.891-0.987,3.654-2.44,4.87c-1.509,1.05-3.312,1.596-5.149,1.56c-2.232,0.07-4.459-0.269-6.57-1
	c-0.776-0.353-1.63-0.5-2.479-0.43c-1.19,0.24-1,1-1.54,1.84C443.23,442.97,440.591,443.19,440.051,441.67z"/>
<path opacity="0.1" enable-background="new    " d="M427.52,572.9l13.11-10.261l20.63-20.33l-6.811-0.3
	c-0.799,0.719-1.311,1.703-1.439,2.771c-0.101,2.489-5.57,0.18-8.42,1.6c-2.851,1.42-16.771,19.24-19.19,19.12s-4.37-1.23-5.38,0.49
	l-0.08,0.12c-0.405,0.464-0.948,0.786-1.55,0.92L427.52,572.9z"/>
<path fill="#040530" d="M401.091,572.19l6.59,21l1,3.3l3.14-0.86l6.92-1.899l30.8-8.461c3.871-0.184,7.655-1.207,11.091-3
	c5.821-3.268,12.485-4.723,19.14-4.18c4.07,0.38,8.6-1.37,12.36-8.32c0,0,8.529-25.199-13-32.409c-21.53-7.21-22.58,3.83-22.58,3.83
	l-0.29,0.18c-0.84,0.53-3.181,2.21-3.271,4.25c-0.1,2.479-5.569,0.17-8.42,1.59c-2.85,1.42-16.75,19.32-19.17,19.21
	s-4.37-1.24-5.38,0.49c-0.024,0.038-0.051,0.075-0.08,0.109c-0.75,1-3,1.28-4.51,1.32c-0.82,0-1.41,0-1.41,0l-0.19,0.061l-1.56,0.46
	L401.091,572.19z"/>
<path opacity="0.1" enable-background="new    " d="M402.801,531.34l3.17,0.51l1.319-13.109c0,0-1.449-0.221-3.27-0.641
	C404.501,519.92,403.4,527,402.801,531.34z"/>
<path opacity="0.1" enable-background="new    " d="M485.9,470.08c0,0,9.45-2.74,7.12,24.09s-19.82,43.8-19.82,43.8
	s-20.13,8.841-29.17,7.42c-9.04-1.42-15.63-1.729-15.63-1.729c-2.849-1.436-5.964-2.267-9.149-2.44c-5.08-0.2-15.75-3.35-16-4.37
	c-0.25-1.02,2.649-15.949,1.43-17.069c0,0,14.229,0.58,15.649,1.609c1.42,1.03,3.45,0.29,5,0c1.551-0.29,6.2-4.35,15.45-0.8
	c0,0,3.15,0.311,4.37-0.51c0.997-0.464,2.133-0.535,3.18-0.2c0.783-0.268,1.523-0.645,2.2-1.12c0.311-0.399,2.75,0,2.75,0
	c0.537,0.261,1.183,0.037,1.443-0.499c0.033-0.067,0.059-0.138,0.077-0.211c0.319-0.831,0.802-1.589,1.42-2.229
	c0,0,2.75-15.45,7.93-21.24c0.847-0.731,1.268-1.841,1.12-2.95C464.86,490,473.7,466.8,485.9,470.08z"/>
<path opacity="0.1" enable-background="new    " d="M412.251,568.85l13.42,16.25l0.09-0.1c0.1-0.3,1.42-3.76,1.109-4
	c-0.31-0.24-2.64-5.29-7.319-7.42c-2.371-1.164-4.361-2.978-5.74-5.23L412.251,568.85z"/>
<path opacity="0.1" enable-background="new    " d="M412.4,596.96l1.47,0.84c0,0,3.4-2.729,6.79-5.479
	c3.391-2.75,6.681-5.44,6.73-5.59c0.1-0.311,1.42-3.761,1.11-4c-0.16-0.101-0.851-1.511-2.141-3.141c-9.1-2.55-3.3,3.771-2.53,4.061
	c0,0-11.079-2.54-11.689,9.52C412.059,594.439,412.146,595.714,412.4,596.96z"/>
<path fill="#040530" d="M423.65,602.07l1.94,1.12l19.609,0.51c2.199,1.336,4.523,2.454,6.94,3.34c0.327,0.1,0.661,0.173,1,0.22
	c1.819,0.143,3.646,0.176,5.47,0.101c1.5,0,2.66-0.101,2.66-0.101s-0.93-24.74-1.63-27.34c-0.33-1.25-2-1-3.601-0.35
	c-1.218,0.492-2.393,1.088-3.51,1.779c0,0-8.33,0.801-9.66,1.521s-5.08-0.41-7.42,0s-6.5-2.75-6.5-2.75
	c-11.38-3.76-5,3.25-4.17,3.56c0,0-11.07-2.54-11.68,9.521C412.49,605.26,423.65,602.07,423.65,602.07z"/>
<path fill="#040530" d="M452.01,592.52c0.21,5.12,4.2,11.48,6.59,14.841c1.5,0,2.66-0.101,2.66-0.101s-0.931-24.74-1.63-27.34
	c-0.33-1.25-2-1-3.601-0.35C454.06,583.26,451.841,588.39,452.01,592.52z"/>
<path opacity="0.1" enable-background="new    " d="M452.01,592.52c0.21,5.12,4.2,11.48,6.59,14.841c1.5,0,2.66-0.101,2.66-0.101
	s-0.931-24.74-1.63-27.34c-0.33-1.25-2-1-3.601-0.35C454.06,583.26,451.841,588.39,452.01,592.52z"/>
<path opacity="0.05" enable-background="new    " d="M448.66,593.2c1.351,4.939,1.33,10.49,3.48,13.84c0.327,0.1,0.661,0.173,1,0.22
	c1.819,0.143,3.646,0.176,5.47,0.101c1.5,0,2.66-0.101,2.66-0.101s-0.93-24.74-1.63-27.34c-0.33-1.25-2-1-3.601-0.35
	c-1.218,0.492-2.392,1.088-3.51,1.779C452.53,581.35,446.93,586.87,448.66,593.2z"/>
<path opacity="0.1" enable-background="new    " d="M380.99,543.06c0,0,9.74,3.16,18,14.391L380.99,543.06z"/>
<g opacity="0.1">
	<path d="M460.16,421.1l-0.06,0.221c-0.095,0.29-0.208,0.574-0.34,0.85C459.859,421.802,459.993,421.443,460.16,421.1z"/>
	<path d="M405.04,416.17c0.172-0.693,0.423-1.365,0.75-2c-0.05,0.17-0.1,0.35-0.14,0.53c-0.38,2.251-0.226,4.56,0.45,6.74
		c0.144,1.172,0.73,2.245,1.64,3c1.511,1,3.851,0.13,5.08,1.43c0.79,0.83,0.83,2.31,1.851,2.82c0.382,0.173,0.809,0.222,1.22,0.14
		c2.7-0.38,4.26-3.43,6.86-4.271c1.513-0.391,3.115-0.253,4.539,0.391c0.586,0.188,1.108,0.534,1.511,1
		c0.87,1.12,0.26,2.78,0.66,4.14c0.56,1.88,2.81,2.63,4.76,2.88s4.149,0.38,5.46,1.86c0.883,1.105,1.247,2.537,1,3.93
		c-0.11,0.478-0.11,0.973,0,1.45c0.54,1.53,3.18,1.3,3.87,0.1c0.5-0.88,0.35-1.6,1.529-1.85c0.854-0.067,1.71,0.08,2.49,0.43
		c2.11,0.731,4.338,1.07,6.57,1c1.837,0.026,3.637-0.519,5.149-1.56c0.653-0.528,1.191-1.186,1.58-1.93
		c-0.34,1.355-1.107,2.565-2.189,3.449c-1.51,1.051-3.312,1.597-5.15,1.561c-2.232,0.07-4.459-0.269-6.569-1
		c-0.78-0.354-1.638-0.502-2.49-0.43c-1.181,0.239-1,1-1.53,1.84c-0.689,1.21-3.33,1.43-3.87-0.09c-0.11-0.48-0.11-0.98,0-1.461
		c0.247-1.393-0.117-2.824-1-3.93c-1.31-1.47-3.5-1.609-5.46-1.859s-4.2-1-4.76-2.881c-0.4-1.359,0.21-3-0.66-4.14
		c-0.399-0.464-0.918-0.81-1.5-1c-1.43-0.639-3.031-0.779-4.55-0.4c-2.601,0.841-4.16,3.891-6.86,4.28
		c-0.411,0.07-0.835,0.021-1.22-0.14c-1-0.521-1.06-2-1.85-2.82c-1.23-1.31-3.57-0.47-5.08-1.439c-0.91-0.755-1.496-1.828-1.641-3
		C404.809,420.75,404.655,418.431,405.04,416.17z"/>
</g>
<path opacity="0.1" enable-background="new    " d="M461.73,497.52c-1.86,2.511-4,4.841-5.63,7.5
	c-1.783,2.602-2.652,5.722-2.47,8.87c1.699-1.75,2.479-4.17,3.56-6.359c1.82-3.721,4.54-6.87,6.83-10.28
	c0.439-0.65,3.25-4.42,1.83-4.6C464.68,492.5,462.4,496.66,461.73,497.52z"/>
<path fill="#FFFFFF" d="M410.28,456.48L430.65,495c0.61,1.14-1.05,3.21-3.7,4.62l-101.67,53.77c-2.649,1.4-5.3,1.61-5.899,0.46
	l-20.37-38.51c-0.61-1.149,0.92-3.46,3.569-4.859l101.671-53.771C406.91,455.3,409.68,455.33,410.28,456.48z"/>
<g opacity="0.2">
	<path fill="#0B75CE" d="M410.28,456.48L430.65,495c0.61,1.14-1.05,3.21-3.7,4.62l-101.67,53.77c-2.649,1.4-5.3,1.61-5.899,0.46
		l-20.37-38.51c-0.61-1.149,0.92-3.46,3.569-4.859l101.671-53.771C406.91,455.3,409.68,455.33,410.28,456.48z"/>
</g>
<rect x="350.886" y="486.88" transform="matrix(-0.884 0.4675 -0.4675 -0.884 945.6009 741.2437)" fill="#0B75CE" width="59.91" height="2.11"/>
<rect x="353.298" y="491.444" transform="matrix(-0.884 0.4675 -0.4675 -0.884 952.2791 748.7156)" opacity="0.2" fill="#0B75CE" enable-background="new    " width="59.91" height="2.11"/>
<rect x="355.705" y="495.99" transform="matrix(-0.884 0.4675 -0.4675 -0.884 958.9393 756.1548)" opacity="0.2" fill="#0B75CE" enable-background="new    " width="59.91" height="2.11"/>
<rect x="358.117" y="500.554" transform="matrix(-0.884 0.4675 -0.4675 -0.884 965.6176 763.6266)" opacity="0.2" fill="#0B75CE" enable-background="new    " width="59.91" height="2.11"/>
<path opacity="0.2" fill="#0B75CE" enable-background="new    " d="M324.93,511.02c-6.935,3.663-9.588,12.254-5.925,19.188
	c2.229,4.222,6.433,7.041,11.185,7.502l-1.12-2.12c-0.765-1.44-0.335-3.225,1-4.16c2.592,1.718,6.086,1.01,7.804-1.582
	c0.598-0.901,0.923-1.956,0.937-3.038c1.521-0.574,3.231,0.067,4,1.5l1.15,2.181c3.824-6.847,1.374-15.498-5.473-19.322
	c-4.207-2.351-9.32-2.406-13.578-0.148H324.93z M338.56,523.43c0.004,0.103-0.014,0.205-0.05,0.3c-0.07,0.132-0.174,0.242-0.3,0.32
	l-0.25,0.14c0.634,3.05-1.325,6.036-4.374,6.67c-3.05,0.635-6.036-1.324-6.67-4.374c-0.089-0.426-0.128-0.86-0.116-1.296h-0.07
	c-0.938-0.388-1.401-1.447-1.05-2.399c0.222-0.353,0.502-0.663,0.83-0.92c0.918-0.896,1.474-2.1,1.56-3.38
	c0.142,0.247,0.266,0.505,0.37,0.77c0.181-0.67,0.869-1.068,1.54-0.89c0.231,0.111,0.473,0.202,0.72,0.27
	c0.224,0.002,0.444-0.043,0.65-0.13l1.33-0.51c0.839-0.557,1.962-0.402,2.62,0.36c0.817,0.654,1.562,1.395,2.22,2.21
	C338.169,521.385,338.534,522.389,338.56,523.43L338.56,523.43z"/>
<path fill="#EE8E9E" d="M368.06,513.96c-0.1,13.41,27.65,16.26,27.65,16.26l7.09,1.12l3.17,0.51l1.319-13.109
	c0,0-1.449-0.221-3.27-0.641c-2.68-0.63-6.16-1.71-6.89-3.229C395.91,512.33,368.16,500.54,368.06,513.96z"/>
<path fill="#040530" d="M485.65,468.02c0,0,9.45-2.739,7.12,24.091s-19.82,43.8-19.82,43.8s-20.13,8.84-29.17,7.42
	s-15.649-1.73-15.649-1.73c-2.85-1.436-5.965-2.266-9.15-2.439c-5.08-0.2-15.75-3.351-16-4.37c-0.25-1.021,2.65-16,1.43-17.07
	c0,0,14.23,0.58,15.65,1.61s3.45,0.29,5,0s6.2-4.36,15.45-0.8c0,0,3.149,0.31,4.37-0.511c0.997-0.463,2.132-0.534,3.18-0.199
	c0.782-0.268,1.523-0.645,2.2-1.12c0.31-0.4,2.75,0,2.75,0c0.528,0.265,1.171,0.05,1.436-0.479c0.037-0.073,0.065-0.151,0.084-0.231
	c0.321-0.833,0.804-1.595,1.42-2.24c0,0,2.75-15.44,7.931-21.24c0.848-0.727,1.27-1.833,1.119-2.939
	C464.61,487.94,473.461,464.8,485.65,468.02z"/>
<path fill="#FFFFFF" d="M878.16,136.14v56c0,1.67-3.12,3-7,3H723.4c-3.86,0-7-1.35-7-3v-56c0-1.67,3.12-3.37,7-3.37h147.78
	C875.04,132.8,878.16,134.47,878.16,136.14z"/>
<g opacity="0.1">
	<path fill="#0B75CE" d="M860.85,146.33v56c0,1.66-3.13,3-7,3H706.12c-3.859,0-7-1.36-7-3v-56c0-1.67,3.12-3.37,7-3.37h147.75
		C857.72,142.96,860.85,144.66,860.85,146.33z"/>
</g>
<path fill="#FFFFFF" d="M878.16,136.14v56c0,1.67-3.12,3-7,3H723.4c-3.86,0-7-1.35-7-3v-56c0-1.67,3.12-3.37,7-3.37h147.78
	C875.04,132.8,878.16,134.47,878.16,136.14z"/>
<g opacity="0.2">
	<path fill="#0B75CE" d="M878.16,136.14v56c0,1.67-3.12,3-7,3H723.4c-3.86,0-7-1.35-7-3v-56c0-1.67,3.12-3.37,7-3.37h147.78
		C875.04,132.8,878.16,134.47,878.16,136.14z"/>
</g>
<rect x="787.421" y="152.77" fill="#0B75CE" width="76.96" height="2.72"/>
<rect x="787.421" y="159.39" opacity="0.2" fill="#0B75CE" enable-background="new    " width="76.96" height="2.72"/>
<rect x="787.421" y="166.01" opacity="0.2" fill="#0B75CE" enable-background="new    " width="76.96" height="2.72"/>
<rect x="787.421" y="172.63" opacity="0.2" fill="#0B75CE" enable-background="new    " width="76.96" height="2.72"/>
<path opacity="0.2" fill="#0B75CE" enable-background="new    " d="M748.49,146.8c-10.079-0.019-18.266,8.136-18.284,18.215
	c-0.012,6.143,3.067,11.88,8.194,15.265v-3.09c0.01-2.093,1.573-3.854,3.65-4.11c1.921,3.507,6.32,4.793,9.827,2.872
	c1.212-0.664,2.209-1.66,2.873-2.872c2.077,0.256,3.641,2.017,3.649,4.11v3.17c8.456-5.486,10.863-16.788,5.377-25.243
	C760.417,149.937,754.665,146.808,748.49,146.8z M756.49,169.07c-0.127,0.31-0.436,0.506-0.77,0.49c-0.123,0.01-0.247,0.01-0.37,0
	c-1.139,3.833-5.17,6.017-9.003,4.877c-3.07-0.913-5.176-3.734-5.177-6.938c-0.003-1.249,0.321-2.476,0.939-3.56l-0.08-0.05
	c-0.834-1-0.728-2.48,0.24-3.35c0.467-0.264,0.974-0.45,1.5-0.55c1.582-0.462,2.937-1.496,3.8-2.9c0.03,0.366,0.03,0.734,0,1.1
	c0.603-0.654,1.621-0.696,2.275-0.094c0.005,0.004,0.01,0.009,0.015,0.014c0.23,0.23,0.38,0.55,0.66,0.73
	c0.247,0.143,0.525,0.222,0.81,0.23l1.811,0.24c1.294-0.132,2.481,0.729,2.76,2c0.544,1.233,0.942,2.525,1.19,3.85
	c0.25,1.334,0.045,2.715-0.58,3.92L756.49,169.07z"/>
<linearGradient id="SVGID_2_" gradientUnits="userSpaceOnUse" x1="-216.5955" y1="-43.793" x2="-216.5955" y2="398.3589" gradientTransform="matrix(0.9993 -0.0384 -0.0384 -0.9993 1036.0597 555.3984)">
	<stop  offset="0" style="stop-color:#808080;stop-opacity:0.25"/>
	<stop  offset="0.54" style="stop-color:#808080;stop-opacity:0.12"/>
	<stop  offset="1" style="stop-color:#808080;stop-opacity:0.1"/>
</linearGradient>
<path fill="url(#SVGID_2_)" d="M924.97,594.22c-1.38-5-2.28-9.38-2.28-9.38s0.061-5.49-2.56-9.51l-0.051-1.37l0,0l-0.399-10.16
	c0.63-1.864,1.419-3.671,2.359-5.399c1.7-3.25-0.569-14.851-0.569-14.851s-7.4-16.189-6.15-26.68s-15.67-45.79-15.67-45.79
	c-0.03-3.456,0.328-6.904,1.07-10.28c0.132-0.712,0.169-1.438,0.109-2.16c0.006-0.086,0.006-0.173,0-0.26c0,0,0,0,0,0.08
	c-0.5-6.87-6.43-19.55-6.43-19.55l-0.22-24.61c0,0,2.92-14.63-3.5-33.86c-2.24-6.709-3.71-12.1-4.67-16.26
	c-0.11-0.47-0.22-0.92-0.311-1.359c11.591-2.221,20.431-4,20.431-4s-7.841-28-12.601-32.801c-4.76-4.799-9-20.189-9-20.189
	s-3.14-19.89,0.471-25.87c3.609-5.98,3.75-16.16,3.75-16.16s8.52-6.71,9.51-9.58c0.99-2.87,2.569-9.31,2.439-12.66
	s-1.34-6.33-1-8.11c0.34-1.78-2.89-8.39-1.55-11.63c0.344-0.993,0.503-2.04,0.47-3.09v-0.13c-0.096-2.782-0.461-5.548-1.09-8.26
	c-2.616-2.045-5.636-3.514-8.859-4.31l-0.221-0.75l-0.569-2c-0.301-0.18-0.591-0.34-0.88-0.48v-0.72l-0.19-2.87l1.12-6.51
	c2.27-11.33-12.78-12.43-12.78-12.43c-0.968-1.687-2.529-2.953-4.38-3.55c-3.061-1,0.14,16.91,1.6,18c1.09,0.82,4.58,6.32,6.261,9
	l0,0l0.279,0.44c-0.237,0.233-0.458,0.484-0.659,0.75l0.72,3.87l0.109,0.6c-0.948,1.267-1.7,2.669-2.229,4.16
	c0,0,2.85,2.9,2.43,6.28c-0.42,3.38,1.13,7.52,1.21,7.74c-0.17-0.18-2.18-2.19-4.08-1.6c-1.899,0.59-7.229,2.4-7.229,2.4
	s-4,0.86-3.59,1.73c0.409,0.87-2.551,4.88-2.551,4.88l-11.199-9.82c-0.12-0.3-0.24-0.6-0.351-0.91
	c-0.502-1.447-0.873-2.937-1.109-4.45c1.165-0.325,2.305-0.736,3.409-1.23c1.12-0.423,2.121-1.109,2.92-2
	c1-1.33,1.181-3.1,1.561-4.72c0.729-3.18,2.46-6.05,3.66-9.09c1.994-5.107,2.504-10.675,1.47-16.06
	c-0.239-1.667-0.869-3.253-1.84-4.63c-1.86-2.36-5.09-3.23-7.49-5.07c-2.399-1.84-4-4.74-6.78-6.09c-2.5-1.22-5.479-1-8.22-0.39
	c-5.373,1.089-10.495,3.175-15.1,6.15c-1.53,1-3.22,2.14-5,1.88c-1.561-0.22-2.74-1.42-3.79-2.57c-0.005-0.05-0.005-0.1,0-0.15
	l-0.13-0.13c-1.042,2.582-1.506,5.36-1.36,8.14c0,0.43,0,0.86,0.1,1.29c0,0.15,0,0.3,0,0.45c0.011,0.126,0.011,0.254,0,0.38l0,0
	c0.005,0.195-0.015,0.39-0.06,0.58c-0.221,0.563-0.563,1.072-1,1.49c-0.313,0.389-0.595,0.804-0.84,1.24c0-0.15,0.08-0.3,0.13-0.45
	c-0.66,1.029-1.008,2.228-1,3.45c-0.027,0.891,0.296,1.756,0.9,2.41c0.562,0.508,1.171,0.96,1.819,1.35
	c-0.174,1.191-0.237,2.396-0.189,3.6c0.321,7.31,4.439,13.92,10.859,17.43c0.141,0.3,0.271,0.6,0.41,0.91
	c1.521,3.58,2.72,7.77,2.41,11.7c0,0.29-0.06,0.58-0.1,0.86s-0.261,0.31-0.37,0.47l0,0c0,0-17.83,0.86-22.17-2.78
	s-10.24,9.69-10.24,9.69s-6.34,1.49-7.67,0.3c-1.33-1.19-8.78,0.16-8.78,0.16c-3.162-2.608-7.2-3.91-11.29-3.64
	c-2.572-1.799-5.387-3.224-8.359-4.229l0,0l-0.211-0.061l0,0c-1.29-0.414-2.656-0.536-4-0.36c0,0-9.05-6.91-11.76-10.7
	s-15.439-17.75-15.5-17.82l-0.069-0.69l-0.221-2.1c-0.359,0.073-0.724,0.12-1.09,0.14l-0.27-0.72
	c-0.774-2.022-1.718-3.976-2.82-5.84c0,0-0.1-2.66,0.65-3.35c0.75-0.69-0.721-10.38-0.721-10.38s-8.609-18.17-15.159-4.1
	c0,0-13,9.44-1.41,19.39c0,0,4.569,2,5.27,3.7c0.46,1.1,2.101,4.16,3.2,6.19c0.18,0.34,0.35,0.64,0.49,0.91l-0.12,0.11l0.229,1.73
	l0.091,0.67c-2.061,1.28-3.45,2.53-3.07,3.42c0.687,1.504,1.177,3.091,1.46,4.72c0,0,16.28,18.85,18.61,27.09
	c0,0,42.6,23.15,56.369,24.39l-1.8,12.44c-0.226,3.362-0.279,6.733-0.16,10.1c0.28,2.65-1.08,14.74-1.08,14.74
	s-1.699,17.77-3.609,20.33c-1.91,2.561-1.15,13.141-1.15,13.141c-0.286,5.1-1.009,10.164-2.16,15.141c-1.75,6.789,0,15.049,0,15.049
	s-6.33,16.181,9.88,4.75c0,0,8.141-0.819,17.521-1.5c0,0.311,0,0.621,0,0.94c0,1.21,0.06,2.521,0.1,3.899
	c0.221,9.121,0.65,21.681,1.431,31.171c1.39,16.77,7.779,49.77,7.779,49.77l0.641,16.7c-0.264,1.582-0.361,3.188-0.29,4.79
	c0.085,5.902,1.854,11.658,5.1,16.59l1.71,11.08c0,0,3.28,7.23,3.51,11.61c0.002,0.358-0.027,0.717-0.09,1.069
	c-0.093,0.565-0.119,1.14-0.08,1.71c0,5.061,3.54,17.051,3.54,17.051s0.65,12.189,2.5,12.83c1.59,0.539-1.81,7.109-2.83,9
	c-0.032-0.115-0.059-0.232-0.08-0.351c-0.13,0.25-0.21,0.38-0.21,0.38c-0.338,1.001-0.49,2.055-0.449,3.11
	c-0.149,1.709,0.704,3.351,2.189,4.21c3.55,2,5.48,3.68,2.57,4.5c-1.08,0.213-2.148,0.483-3.2,0.81c0-0.14-0.12-0.279-0.17-0.409
	c-0.827,0.386-1.288,1.282-1.12,2.18c0.088,1.446,0.517,2.851,1.25,4.1c3.18,6.431,5.3,8.83,5.3,8.83l1.391-0.21
	c-0.188,0.541-0.44,1.059-0.75,1.54c-0.507,0.785-1.192,1.439-2,1.91c-0.74,0.504-1.579,0.845-2.46,1
	c-2.006,0.135-3.856,1.126-5.08,2.72c-1.73,2.42-2.75,5.681,1,8.36l13.239,4c0,0,22.58,2.06,21.19-2.94
	c-1.391-5-2.28-9.38-2.28-9.38c-0.029-3.084-0.772-6.12-2.17-8.87c-0.249-0.449-0.53-0.88-0.84-1.29l0.79-0.12
	c0,0,1.21-11.199,3.32-13.409c0.489-0.5,0.59-0.881,0.46-1.17c0.199-0.62-0.381-1-1.131-1.12c0,0.14-0.09,0.29-0.14,0.439
	c-0.723-0.125-1.456-0.179-2.189-0.16c0,0-1-5.8,1.34-8c0.367-0.503,0.509-1.138,0.39-1.75c-0.014-0.798-0.128-1.591-0.34-2.359
	c-0.029,0.043-0.053,0.091-0.07,0.14c-1.41-5.25-5.78-13.51-5.78-13.51s-0.38-5.3,1-7.47c1.381-2.17-1.3-28.82-1.3-28.82
	s0.061-12.93-1.819-18.87c-1.881-5.939,1.51-13.16,1.51-13.16s0-0.14-0.061-0.39v-0.09c0,0-0.109-0.79-0.29-2
	c0.005,0.043,0.005,0.087,0,0.13c-0.489-3.4-1.43-9.561-2-12.41c-0.89-4-0.72-23.52-0.72-23.52l3-8.44l6.4,14.1l6.95,18.86
	c0,0,3.229,3.91,3.46,8c0,0.2,0,0.4,0,0.6c-0.025,0.427-0.025,0.854,0,1.28c-0.014,2.411,0.739,4.765,2.149,6.72
	c0,0,2,9,4.641,11.16c2.64,2.16,2.819,6.62,2.819,6.62s3.61,13,5.16,15.21c1.3,1.891,1.57,7.21,1.62,8.84l0,0c0,0.301,0,0.48,0,0.48
	s0.62,4.66,0.75,8.59c0,0.48,0,1,0,1.4c0,0,0-0.07,0-0.101c0.033,1.07-0.054,2.14-0.26,3.19c0,0.06,0,0.12,0,0.189
	c0-0.233,0-0.453,0-0.659c-0.54,2.69-0.748,5.438-0.62,8.18c0.1,4.71,1,10.25,4,13.41c5.15,5.47,8.229,4.64,8.229,4.64
	s-2.1,7.16-5,8.69c-0.109,0.061-0.213,0.131-0.31,0.21c0-0.13-0.06-0.271-0.08-0.4c-0.616,0.74-0.893,1.706-0.76,2.66
	c-0.09,3.12,2.07,8.1,4,10.35c0.716,0.649,1.582,1.109,2.52,1.34c-0.141,0.111-0.287,0.215-0.439,0.311
	c-0.323,0.189-0.657,0.359-1,0.51c-0.467,0.224-0.967,0.373-1.48,0.44c-2.003,0.142-3.852,1.131-5.08,2.72
	c-1.72,2.42-2.75,5.67,1,8.36l13.24,4C903.86,597.271,926.4,599.22,924.97,594.22z"/>
<path fill="#040530" d="M839.47,605.87l-12.82-4c-3.59-2.69-2.6-5.95-0.93-8.37c1.166-1.572,2.958-2.562,4.91-2.71
	c0.856-0.157,1.668-0.498,2.38-1c0.79-0.469,1.453-1.125,1.93-1.91c0.869-1.498,1.306-3.208,1.26-4.939
	c0,0,13.721-4.601,17.681-0.681c0.702,0.713,1.302,1.521,1.779,2.4c1.357,2.766,2.078,5.8,2.11,8.88c0,0,0.88,4.38,2.22,9.38
	S839.47,605.87,839.47,605.87z"/>
<path fill="#040530" d="M901.11,597.26l-12.81-4c-3.601-2.68-2.61-5.939-0.94-8.35c1.16-1.58,2.955-2.571,4.91-2.71
	c0.496-0.077,0.979-0.229,1.43-0.45c0.345-0.147,0.679-0.317,1-0.51c3.471-2.08,3.19-6.851,3.19-6.851s13.729-4.6,17.68-0.68
	c0.532,0.528,1.002,1.115,1.4,1.75c2.54,4,2.49,9.521,2.49,9.521s0.88,4.399,2.22,9.39S901.11,597.26,901.11,597.26z"/>
<path opacity="0.1" enable-background="new    " d="M853.881,582.3c0.702,0.713,1.302,1.521,1.779,2.4l0,0l-20.72,3.21
	c0.869-1.498,1.306-3.209,1.26-4.94C836.2,582.97,849.921,578.38,853.881,582.3z"/>
<path opacity="0.1" enable-background="new    " d="M916.921,575.44l0.149,3.899c-3,5.46-18.72,4.891-23.37,2.391
	c0.345-0.147,0.679-0.318,1-0.511c3.471-2.08,3.19-6.85,3.19-6.85s13.729-4.6,17.68-0.68
	C916.085,574.221,916.538,574.808,916.921,575.44z"/>
<path fill="#040530" d="M918.751,558.56c-0.91,1.732-1.669,3.539-2.271,5.4l0.53,14c-3.311,6-21.771,4.74-24.37,1.65
	c-2.601-3.09-5.57-11.29-2.79-12.82s4.8-8.68,4.8-8.68s-3,0.819-8-4.65s-4.06-18.08-3.29-21.12c0.771-3.04-0.51-13.09-0.51-13.09
	s-0.09-7.08-1.59-9.32c-1.5-2.239-5-15.21-5-15.21s-0.17-4.42-2.73-6.63c-2.56-2.21-4.5-11.16-4.5-11.16
	c-1.536-2.196-2.264-4.857-2.06-7.529c0.359-4.44-3.36-9.08-3.36-9.08l-6.75-18.86l-6.21-14.11l-2.85,8.45
	c0,0-0.141,19.48,0.729,23.521s2.34,14.779,2.34,14.779s-3.27,7.211-1.439,13.16c1.83,5.95,1.79,18.88,1.79,18.88
	s2.609,26.63,1.28,28.811c-1.33,2.18-1,7.47-1,7.47s7.85,15.28,5.63,17.49c-2.221,2.21-1.29,8-1.29,8s5-0.19,2.92,2
	c-2.08,2.189-3.21,13.41-3.21,13.41l-21.28,3.3c0,0-2.06-2.4-5.14-8.84c-3.08-6.44,0.31-5.851,3.13-6.67
	c2.819-0.82,1-2.511-2.49-4.511s-1.68-6.84-1.68-6.84s4.79-8.859,3-9.5c-1.79-0.64-2.44-12.83-2.44-12.83s-4.09-14.359-3.36-18.29
	c0.73-3.93-3.34-13.149-3.34-13.149l-1.66-11.091c-4.027-6.171-5.696-13.588-4.699-20.89l-0.62-17.21c0,0-6.23-33-7.58-49.819
	c-0.87-10.74-1.311-25.42-1.51-34.59c-0.11-5.141-0.15-8.551-0.15-8.551l76.07-10.89c0.266,3.81,0.875,7.589,1.819,11.29
	c0.94,4.16,2.37,9.55,4.551,16.26c6.229,19.24,3.43,33.87,3.43,33.87l0.24,24.6c0,0,7.35,16.181,6.149,21.9
	c-0.708,3.39-1.043,6.847-1,10.31c0,0,16.41,35.311,15.22,45.801c-1.189,10.489,6,26.689,6,26.689S920.4,555.31,918.751,558.56z"/>
<path opacity="0.05" enable-background="new    " d="M871.53,468.12l23.13-4C894.66,464.12,882.01,478.08,871.53,468.12z"/>
<path opacity="0.1" enable-background="new    " d="M890.4,441.54c0,0,1.11,8.19-3.81,11.479
	C886.62,453.02,895.591,451.26,890.4,441.54z"/>
<path opacity="0.1" enable-background="new    " d="M888.001,415.43c0,0-18.82,16.75-26,15.7
	C854.82,430.08,888.001,415.43,888.001,415.43z"/>
<path opacity="0.1" enable-background="new    " d="M843.001,476.8c0,0-14.631,3.92-14.841,9.86
	C827.95,492.6,843.001,476.8,843.001,476.8z"/>
<path opacity="0.05" enable-background="new    " d="M849.091,550.35c0,0-20.69,4.69-14.69,7.11s15.83,4.18,15.83,4.18
	S856.961,561.73,849.091,550.35z"/>
<g opacity="0.05">
	<path d="M830.4,561.8c-1.076-0.632-1.811-1.716-2-2.95c-0.12,0.24-0.2,0.381-0.2,0.381s-1.76,4.84,1.681,6.84
		c0.399,0.229,0.77,0.449,1.12,0.67c0.619-0.141,1.279-0.25,1.92-0.44C835.66,565.53,833.79,563.8,830.4,561.8z"/>
	<path d="M857.171,559.39c0.55-0.55,0.479-1.909,0.06-3.64c-0.796,1.598-1.142,3.381-1,5.16
		C856.428,560.341,856.749,559.821,857.171,559.39z"/>
	<path d="M850.57,471.55c-0.689,2.122-1.08,4.33-1.16,6.561c0.342-1.552,0.827-3.069,1.45-4.53
		C850.86,473.58,850.751,472.8,850.57,471.55z"/>
	<path d="M897.98,460.43c0.12-0.639,0.16-1.291,0.12-1.939c-0.21,1.33-0.35,2.56-0.44,3.64
		C897.76,461.58,897.86,461.01,897.98,460.43z"/>
	<path d="M852.49,534.42c0.355-1.281,0.481-2.615,0.37-3.939c-0.591,1.599-0.869,3.296-0.82,5
		C852.147,535.11,852.299,534.754,852.49,534.42z"/>
	<path d="M858.15,567.6c-0.961,3.607-1.629,7.286-2,11l-21.28,3.301c0,0-2.05-2.4-5.13-8.83c-0.27-0.57-0.489-1.08-0.67-1.54
		c-1.26,0.64-1.71,2,0.12,5.81c3.08,6.43,5.14,8.83,5.14,8.83l21.28-3.3c0,0,1.16-11.2,3.2-13.4
		C859.801,568.34,859.11,567.8,858.15,567.6z"/>
	<path d="M828.68,536.93c0,0,0.65,12.2,2.439,12.84l0,0c0.82-2.05,1.341-4,0.54-4.27c-1.8-0.64-2.439-12.84-2.439-12.84
		s-4.101-14.36-3.36-18.28s-3.34-13.15-3.34-13.15l-1.67-11.09c-4.028-6.171-5.696-13.588-4.7-20.89l-0.66-17.15
		c0,0-6.229-33-7.58-49.819c-0.87-10.74-1.31-25.431-1.51-34.591c0-1.66-0.06-3.129-0.09-4.369l-0.61,0.09c0,0,0,3.4,0.16,8.55
		c0.2,9.159,0.641,23.85,1.5,34.59c1.36,16.771,7.59,49.82,7.59,49.82l0.66,17.149c-0.996,7.303,0.672,14.719,4.7,20.891l1.66,11.09
		c0,0,4.08,9.22,3.34,13.15C824.57,522.58,828.68,536.93,828.68,536.93z"/>
	<path d="M893.171,574.8c-1.828-2.446-3.092-5.267-3.7-8.26c-2.11,2,0.689,9.6,3.16,12.53c2.6,3.09,21.06,4.33,24.37-1.641
		l-0.131-3.37C912.28,579,895.631,577.74,893.171,574.8z"/>
	<path d="M919.28,553.8c-0.909,1.732-1.668,3.539-2.27,5.4l0.09,2.479c0.37-0.92,0.9-2.149,1.64-3.609
		c0.506-1.412,0.711-2.914,0.601-4.41L919.28,553.8z"/>
	<path d="M893.6,557.59c0.623-1.386,1.151-2.813,1.58-4.27c0,0-3,0.819-8-4.65c-3.63-4-4.13-11.75-3.83-16.85
		c-0.771,3-1.7,15.649,3.29,21.119C889.93,556.52,892.33,557.4,893.6,557.59z"/>
	<path d="M882.87,518.74c0.444,3.47,0.698,6.962,0.761,10.46c0.063-0.556,0.164-1.107,0.3-1.65c0.77-3-0.51-13.08-0.51-13.08
		s-0.101-7.08-1.601-9.33s-5-15.21-5-15.21s-0.17-4.42-2.74-6.62c-2.569-2.199-4.5-11.159-4.5-11.159
		c-1.535-2.201-2.263-4.865-2.06-7.54c0.36-4.44-3.36-9.07-3.36-9.07l-6.76-18.87l-6.21-14.1l-2.86,8.43c0,0,0,1,0,2.69l2.33-6.851
		l6.21,14.101l6.74,18.859c0,0,3.72,4.63,3.36,9.07c-0.208,2.676,0.521,5.341,2.06,7.54c0,0,1.931,9,4.5,11.16
		c2.57,2.159,2.73,6.619,2.73,6.619s3.51,13,5,15.211C882.751,511.61,882.87,518.74,882.87,518.74z"/>
</g>
<path fill="#FFCDD3" d="M885.2,192.87l-1.08,6.51l0.19,2.87l0.14,2.12l-7.35,1l-0.89-1.5l0,0c-1.631-2.71-5-8.22-6.08-9
	c-1.4-1.09-4.53-18.95-1.57-18c1.811,0.62,3.328,1.888,4.26,3.56C872.82,180.43,887.4,181.55,885.2,192.87z"/>
<path opacity="0.1" enable-background="new    " d="M884.45,204.37l-7.35,1l-0.89-1.5l0,0c1.959-2.414,5.349-3.108,8.1-1.66
	L884.45,204.37z"/>
<path fill="#DCE6F2" d="M886.4,207.8l-9.64,2.63l-0.26-1.44l-0.7-3.88c0,0,3.649-5.28,9.37-1.64l0.56,2L886.4,207.8z"/>
<path fill="#FFCDD3" d="M728.31,199.62l-10.17,6c0,0-0.43-0.8-1-1.92c-1.07-2-2.66-5.1-3.11-6.2c-0.68-1.69-5.1-3.7-5.1-3.7
	c-11.271-10,1.34-19.39,1.34-19.39c6.32-14.06,14.67,4.12,14.67,4.12s1.44,9.69,0.71,10.38c-0.729,0.69-0.62,3.34-0.62,3.34
	c1.069,1.872,1.982,3.828,2.73,5.85C728.12,199.02,728.31,199.62,728.31,199.62z"/>
<path opacity="0.1" enable-background="new    " d="M728.31,199.62l-10.17,6c0,0-0.43-0.8-1-1.92c1.41-1.28,6.45-5.7,8.16-5.57
	c0.818,0.077,1.642,0.077,2.46,0C728.12,199.02,728.31,199.62,728.31,199.62z"/>
<path fill="#DCE6F2" d="M729.49,202.72l-11.45,6.2l-0.329-2.5l-0.23-1.73c0,0,6.54-6.05,8.55-5.91c1.001,0.1,2.011,0.059,3-0.12
	l0.221,2.09L729.49,202.72z"/>
<path fill="#FFCDD3" d="M858.56,236.8c0,0-50.66,7.7-41.271,4.25c6.54-2.42,9-6.73,9.381-11.41c0.289-3.93-0.87-8.12-2.351-11.71
	c-1.327-3.157-2.969-6.172-4.899-9c0,0,38.069-22.89,31-3.14c-1.091,2.986-1.715,6.123-1.851,9.3
	c-0.114,3.154,0.347,6.302,1.36,9.29C851.604,229.238,854.591,233.537,858.56,236.8z"/>
<path opacity="0.1" enable-background="new    " d="M850.461,205.8c-1.091,2.987-1.715,6.124-1.851,9.3
	c-3.54,3.22-7.57,3.17-12.729,3.37c-4,0.15-8.32,1.28-11.561-0.51c-1.327-3.157-2.969-6.172-4.899-9
	C819.421,208.96,857.49,186.06,850.461,205.8z"/>
<circle fill="#FFCDD3" cx="834.44" cy="198.81" r="21.06"/>
<path opacity="0.1" enable-background="new    " d="M858.56,236.8c0,0-50.66,7.7-41.271,4.25c6.54-2.42,9-6.73,9.381-11.41
	c2.43-2.85,7.439-5,10.67-6.2c2.943-1.117,6.162-1.292,9.21-0.5c1.202,0.306,2.354,0.784,3.42,1.42
	C851.63,229.221,854.602,233.526,858.56,236.8z"/>
<path opacity="0.1" enable-background="new    " d="M886.4,207.8l-9.64,2.63l-0.26-1.44c2.021-3.01,5.71-4.433,9.229-3.56
	L886.4,207.8z"/>
<path opacity="0.1" enable-background="new    " d="M729.49,202.72l-11.45,6.2l-0.329-2.5c3.712-2.164,7.583-4.043,11.579-5.62
	L729.49,202.72z"/>
<path opacity="0.1" enable-background="new    " d="M883.62,364.279c-19.58,3.871-47.47,9-52,7.811c-3.739-1-15.52-0.41-25.77,0.34
	c-0.11-5.14-0.15-8.55-0.15-8.55l76.07-10.89C882.046,356.801,882.665,360.58,883.62,364.279z"/>
<path fill="#040530" d="M903.1,358.9c0,0-64.46,13.629-71.51,11.779c-7.051-1.85-42.71,1.82-42.71,1.82
	c-15.67,11.4-9.57-4.77-9.57-4.77s-1.73-8.25,0-15.051c1.106-4.978,1.798-10.038,2.07-15.13c0,0-0.761-10.59,1.09-13.14
	c1.85-2.551,3.47-20.32,3.47-20.32s1.3-12.09,1-14.74s0.15-10.09,0.15-10.09l1.8-12.46c-13.33-1.26-54.59-24.46-54.59-24.46
	c-2.271-8.23-18-27.1-18-27.1c-0.279-1.629-0.756-3.217-1.42-4.73c-1.17-2.79,14.529-9.06,14.529-9.06s12.4,14,15,17.84
	c2.601,3.84,11.391,10.72,11.391,10.72c1.313-0.19,2.651-0.07,3.91,0.35l0.199,0.06l0,0c2.888,1.015,5.613,2.443,8.091,4.24
	c3.982-0.251,7.905,1.059,10.939,3.65c0,0,7.21-1.34,8.49-0.15c1.28,1.19,7.43-0.28,7.43-0.28s5.68-13.33,9.891-9.68
	c4.21,3.65,21.47,2.8,21.47,2.8c2.18-3.14,7.689-5.55,11.149-6.81c2.943-1.121,6.162-1.299,9.211-0.51
	c1.32,0.323,2.575,0.871,3.71,1.62l10.859,9.85c0,0,2.86-4,2.47-4.88c-0.39-0.88,3.48-1.72,3.48-1.72s5.06-1.79,7-2.4
	c1.939-0.61,3.78,1.44,3.95,1.61c-0.08-0.22-1.57-4.45-1.181-7.74c0.391-3.29-2.369-6.28-2.369-6.28
	c5.609-15.44,20.06-3.25,20.06-3.25s1.92,8.25,0.62,11.49s1.8,9.84,1.51,11.62c-0.29,1.78,0.891,4.75,1,8.11
	c0.11,3.36-1.39,9.79-2.34,12.66c-0.95,2.87-9.2,9.56-9.2,9.56s-0.14,10.1-3.63,16.08s-0.42,25.87-0.42,25.87s4.14,15.42,8.75,20.2
	C895.461,330.859,903.1,358.9,903.1,358.9z"/>
<path opacity="0.1" enable-background="new    " d="M804.03,246.2c0,0-2.17-5.76-4-6.22c-1.781-0.584-3.521-1.286-5.21-2.1l1-2.22
	c0,0,6.71,1.56,7.851,3.47C804.81,241.04,804.03,246.2,804.03,246.2z"/>
<path opacity="0.1" enable-background="new    " d="M768.001,234.66c-0.29,1.78-16,4-16,4l7.649-8.29l0,0l0.2,0.06l0,0
	C762.759,231.437,765.504,232.861,768.001,234.66z"/>
<circle fill="#040530" cx="721.54" cy="212.14" r="1.42"/>
<circle fill="#040530" cx="723.461" cy="214.9" r="1.42"/>
<circle fill="#040530" cx="725.33" cy="217.44" r="1.42"/>
<circle fill="#040530" cx="727.29" cy="220.2" r="1.42"/>
<circle fill="#040530" cx="893.95" cy="213.63" r="1.15"/>
<circle fill="#040530" cx="894.23" cy="216.23" r="1.15"/>
<circle fill="#040530" cx="894.48" cy="218.83" r="1.15"/>
<path opacity="0.1" enable-background="new    " d="M805.961,294.11c-0.171-0.2,41.619,48.6,71.449,18.32
	C877.4,312.43,828.77,320.939,805.961,294.11z"/>
<path opacity="0.1" enable-background="new    " d="M784.07,321.16c0,0,23.88-0.27,26.641,6.49l0.27,7.14
	c-1.35,0.825-3.031,0.889-4.44,0.17c-2.449-1.2-17.149-8-22.1-4.25L784.07,321.16z"/>
<path fill="#040530" d="M784.52,321.141c0,0,22.83-0.261,25.47,6.189l0.261,6.811c-1.295,0.783-2.901,0.844-4.25,0.159
	c-2.341-1.149-16.4-7.6-21.131-4.05L784.52,321.141z"/>
<path opacity="0.1" enable-background="new    " d="M795.1,268.87c2.653,5.546,5.964,10.754,9.86,15.51
	c4.238,5.258,9.305,9.791,15,13.42C819.961,297.8,795.62,272.13,795.1,268.87z"/>
<path opacity="0.1" enable-background="new    " d="M786.23,241.46c0,0,4.64,17,15.12,22.46L786.23,241.46z"/>
<path opacity="0.1" enable-background="new    " d="M780.2,243.43c-0.12-0.32-3,13.72,14,20.76
	C794.23,264.19,787.02,262.05,780.2,243.43z"/>
<path opacity="0.1" enable-background="new    " d="M883.89,227.9c-0.26,0,8.479,5.11,10.89,7.55
	C894.78,235.45,888.921,227.35,883.89,227.9z"/>
<path fill="#040530" d="M829.48,218.1c0.072,1.827,1.611,3.249,3.438,3.177c0.104-0.004,0.209-0.014,0.313-0.027
	c6.43,0.15,13.12,0.18,19-2.52c1.086-0.428,2.051-1.114,2.81-2c1-1.33,1.141-3.09,1.511-4.72c0.71-3.17,2.37-6,3.54-9.08
	c1.939-5.146,2.43-10.725,1.42-16.13c-0.225-1.661-0.834-3.247-1.78-4.63c-1.8-2.37-4.94-3.23-7.26-5.08
	c-2.32-1.85-3.891-4.75-6.57-6.1c-2.42-1.22-5.31-1-8-0.4c-5.214,1.097-10.17,3.181-14.6,6.14c-1.49,1-3.12,2.13-4.891,1.87
	c-1.55-0.23-2.71-1.48-3.75-2.65c-1.142,2.934-1.56,6.1-1.22,9.23c0.08,0.457,0.08,0.923,0,1.38c-0.202,0.556-0.52,1.063-0.93,1.49
	c-1.51,1.9-2.391,4.85-0.75,6.64c0.71,0.79,1.77,1.19,2.47,2c1.24,1.43,0.92,3.57,1,5.46c-0.047,0.662,0.145,1.318,0.54,1.85
	c0.723,0.618,1.716,0.815,2.62,0.52c0.883-0.304,1.817-0.43,2.75-0.37c1.003,0.287,1.878,0.908,2.479,1.76
	C826.751,209.52,828.06,213.62,829.48,218.1z"/>
<g opacity="0.1">
	<path d="M855.65,215.05c-0.763,0.887-1.73,1.573-2.82,2c-5.84,2.7-12.52,2.68-18.949,2.52c-1.812,0.25-3.482-1.015-3.732-2.826
		c-0.014-0.104-0.023-0.209-0.028-0.314c-1.409-4.49-2.729-8.59-5.84-12.24c-0.601-0.849-1.471-1.469-2.47-1.76
		c-0.936-0.054-1.872,0.071-2.76,0.37c-0.904,0.295-1.897,0.098-2.62-0.52c-0.391-0.534-0.582-1.189-0.54-1.85c0-1.89,0.28-4-1-5.46
		c-0.69-0.8-1.76-1.2-2.47-2c-0.946-1.193-1.165-2.808-0.57-4.21c-1.05,1.83-1.45,4.14-0.08,5.65c0.71,0.78,1.78,1.18,2.47,2
		c1.24,1.43,0.931,3.57,1,5.47c-0.046,0.658,0.146,1.311,0.54,1.84c0.721,0.624,1.716,0.821,2.62,0.521
		c0.888-0.3,1.825-0.426,2.76-0.37c0.997,0.294,1.867,0.914,2.471,1.76c3.109,3.66,4.42,7.75,5.84,12.24
		c0.207,1.116,0.833,2.11,1.75,2.78c0.63,0.274,1.313,0.401,2,0.37c6.43,0.15,13.12,0.17,19-2.53c1.087-0.43,2.055-1.116,2.819-2
		c0.377-0.528,0.661-1.117,0.841-1.74C855.81,214.855,855.733,214.955,855.65,215.05z"/>
	<path d="M813.53,185.97c0.274-0.317,0.479-0.688,0.601-1.09c0.085-0.456,0.085-0.924,0-1.38c-0.274-2.571-0.036-5.171,0.699-7.65
		l-0.13-0.14c-1.141,2.935-1.559,6.1-1.22,9.23C813.527,185.281,813.544,185.626,813.53,185.97z"/>
</g>
<path opacity="0.1" enable-background="new    " d="M826.22,231c0,0,26.42,2.48,28.63-1.57"/>
<path opacity="0.1" enable-background="new    " d="M876.9,218.16c0,0,14.601-0.54,18,4.81"/>
<path fill="#FFFFFF" d="M161.71,172.05v56c0,1.67-3.13,3-7,3H6.98c-3.86,0-7-1.35-7-3v-56c0-1.67,3.12-3.37,7-3.37h147.75
	C158.58,168.68,161.71,170.38,161.71,172.05z"/>
<g opacity="0.2">
	<path fill="#0B75CE" d="M161.71,172.05v56c0,1.67-3.13,3-7,3H6.98c-3.86,0-7-1.35-7-3v-56c0-1.67,3.12-3.37,7-3.37h147.75
		C158.58,168.68,161.71,170.38,161.71,172.05z"/>
</g>
<rect x="70.97" y="188.68" fill="#0B75CE" width="76.96" height="2.72"/>
<path opacity="0.2" fill="#0B75CE" enable-background="new    " d="M32.03,182.72c-10.079,0.006-18.245,8.182-18.239,18.261
	c0.003,6.121,3.075,11.832,8.18,15.209v-1.22c0.005-2.093,1.571-3.852,3.649-4.1c1.921,3.507,6.321,4.793,9.828,2.872
	c1.212-0.664,2.208-1.66,2.872-2.872c2.078,0.248,3.645,2.007,3.65,4.1v1.3c8.449-5.495,10.846-16.798,5.351-25.249
	C43.957,185.846,38.203,182.723,32.03,182.72z M39.18,205.85c-0.297,3.982-3.766,6.969-7.748,6.672
	c-3.569-0.266-6.406-3.104-6.673-6.672c-1.822-3.976-0.077-8.677,3.899-10.5c0.083-0.038,0.167-0.075,0.251-0.11
	c-0.257-0.385-0.393-0.838-0.39-1.3c0-1.331,1.079-2.41,2.41-2.41c0.003,0,0.006,0,0.01,0h0.17c-1.265,0.089-2.243,1.143-2.24,2.41
	c-0.003,0.418,0.107,0.83,0.32,1.19h0.069c-0.015-0.156-0.015-0.313,0-0.47c0-0.502,0.157-0.992,0.45-1.4
	c0.313-1.013,1.25-1.703,2.311-1.7h0.17c-0.748,0.056-1.427,0.455-1.84,1.08c1.109-0.735,2.604-0.43,3.34,0.68
	c0.259,0.392,0.397,0.851,0.399,1.32c0.005,0.09,0.005,0.18,0,0.27c4.227,1.127,6.739,5.467,5.612,9.693
	c-0.115,0.431-0.267,0.851-0.452,1.256L39.18,205.85z"/>
<rect x="70.97" y="195.3" opacity="0.2" fill="#0B75CE" enable-background="new    " width="76.96" height="2.72"/>
<rect x="70.97" y="201.92" opacity="0.2" fill="#0B75CE" enable-background="new    " width="76.96" height="2.72"/>
<rect x="70.97" y="208.54" opacity="0.2" fill="#0B75CE" enable-background="new    " width="76.96" height="2.72"/>
<linearGradient id="SVGID_3_" gradientUnits="userSpaceOnUse" x1="205.717" y1="-86.9814" x2="205.717" y2="317.9116" gradientTransform="matrix(1 0 0 -1 -44.96 524.4443)">
	<stop  offset="0" style="stop-color:#808080;stop-opacity:0.25"/>
	<stop  offset="0.54" style="stop-color:#808080;stop-opacity:0.12"/>
	<stop  offset="1" style="stop-color:#808080;stop-opacity:0.1"/>
</linearGradient>
<path fill="url(#SVGID_3_)" d="M263.4,343.26c-0.568-3.039-0.902-6.119-1-9.21c0-3.7-5-7-5-7s-3.11-7.2-5.15-8.25
	s-8.47-10.48-8.47-10.48c-0.073-1.858-0.751-3.642-1.93-5.08c-1.917-2.52-3.668-5.163-5.24-7.91l0,0c-0.86-1.06-0.43-1.8-1.72-7.94
	c-0.073-0.32-0.153-0.63-0.24-0.93c0-0.14-0.09-0.26-0.13-0.39c2.802-2.818,3.749-6.988,2.439-10.74
	c-0.237-0.729-0.661-1.385-1.229-1.9c-1.46-1.19-3.79-0.7-5.29-1.83l1.59-7.06c0.39-1.72,0.59-3.92-0.93-4.85
	c-0.566-0.272-1.164-0.474-1.78-0.6c-2.62-0.83-4.09-3.59-4.76-6.23c-0.652-2.546-0.828-5.19-0.521-7.8c0.29-2.5,1-4.94,1.3-7.45
	c0.481-4.652-0.637-9.329-3.17-13.26c-0.994-1.687-2.447-3.057-4.189-3.95c-1.61-0.72-3.48-0.81-5-1.76
	c-3.221-2-3.061-6.89-5.62-9.7c-2.561-2.81-7.11-2.78-10.851-1.82c-3.739,0.96-7.449,2.61-11.289,2.18
	c-2.471-0.27-4.79-1.39-7.261-1.65c-0.711-0.072-1.429-0.038-2.13,0.1l0.05-0.09c-1.84,0.33-3.52,1.35-3.949,3.09
	c-0.097,0.413-0.137,0.836-0.12,1.26c0,1,0.239,2.06,0.26,3c0.06,0.775-0.192,1.542-0.7,2.13c-0.49,0.53-1.22,0.81-1.7,1.35
	c-0.415,0.423-0.643,0.997-0.63,1.59c0,1.54,1.92,2.89,3.21,3.51l0,0c-0.35,0.35-0.689,0.71-1,1.08
	c-3.665,4.184-5.669,9.567-5.63,15.13c0.036,9.2,5.539,17.498,14,21.11c-0.06,0.19-0.109,0.37-0.18,0.56
	c-0.355,1.114-0.776,2.206-1.26,3.271c-1.811-0.61-3.797-0.391-5.431,0.6c-2.47,1.69-7.29,1.59-8.58,1.27s-14.689-2-15.76-1.59
	c-1.07,0.41-3.22-1.48-4.61,1.06c-1.39,2.54-2,3.92-3.43,4.55s-3.859,2.65-3.54,3.07c0.32,0.42-3.54,3-3.54,3s-3.319,3.49-5.25,3.92
	c-1.93,0.43-6,3.07-6,3.07l-4.72,3.7c0,0-3.54,0.53-2.47-1.9c1.069-2.43-1.931-5.51-1.931-5.51s-6-12.17-6-14.7
	c0-2.53-4.93-13.23-4.93-13.23l-0.61-0.06c-0.09-0.26-0.18-0.521-0.279-0.79c-0.9-2.55-2.07-5.67-3-7.51
	c-1.7-3.49-2.801-3.89-2.801-3.89s-20.8-15.62-34.31-10.86c-13.51,4.76,24.66,18.94,28.09,20.43c1.2,0.51,2.061,2.19,2.67,4.14
	c-3.036,1.486-5.586,3.807-7.35,6.69c0,0,8.25,18.3,8.46,22.85c0.21,4.55,5.689,17.25,5.689,17.25s2,9.42,13.08,8.89
	c0,0,15.221,2.79,18.54,0c3.32-2.79,6.33-5,7.94-5.31c1.189-0.39,2.235-1.129,3-2.12c0,0-5,31.74-7.5,34.5
	s-24.34,38.41-16.521,44.75c6.205,4.818,12.764,9.164,19.62,13c0.67,0.33,2.66-3,5.511-5.35c0,0.59,0,1.199,0,1.83
	c0.05,12.68,1.699,32,4.05,36.32c3.43,6.35,2,18.63,2,18.63c1.818,0.852,3.792,1.325,5.8,1.39c0.1,0.41,0.22,0.84,0.34,1.29
	c1.89,7.14,4.95,18.18,6.51,21.12c2.37,4.45,4.08,18.52,4.08,18.52s1.391,13.86,0.86,15.771c-0.21,0.729,0.7,6.479,2.12,13.78l0,0
	c-0.87,9.92-2.5,29.05-2.78,36l0,0c0,0.13,0,0.26,0,0.39v0.35c0,0.15,0,0.29,0,0.42l0,0c-0.036,0.433-0.036,0.868,0,1.301
	c0.121,0.667,0.073,1.354-0.14,2c-0.603,1.915-1.382,3.77-2.33,5.54c-0.05,0.18-0.63,1.38-1,2.689c-0.851,0.37-1.91,1.3-2.5,3.55
	c-1.07,4.13-2.681,15.561-2.681,15.561s-0.64,7-1.93,8.569c-1.29,1.57-2.57,11.53,6.54,12.801c9.11,1.27,13.08-4.841,13.08-4.841
	l-0.32-27.699l0,0c0.185-0.235,0.343-0.49,0.471-0.761v-0.06c0.06-0.14,0.13-0.271,0.189-0.43c0.061-0.16,0-0.131,0.08-0.2
	c0.08-0.07,0.09-0.221,0.13-0.34c-0.004-0.04-0.004-0.08,0-0.12c0.888-2.654,1.151-5.478,0.771-8.25c0,0,0-0.091,0-0.141v-0.22
	c0-0.07,0-0.14,0-0.21c0.005-0.063,0.005-0.127,0-0.19c-0.005-0.079-0.005-0.16,0-0.239v-0.17c0-0.181,0-0.37,0.06-0.561
	c-0.005-0.036-0.005-0.073,0-0.109c0-0.11,0-0.221,0-0.33c0.005-0.05,0.005-0.101,0-0.15c0-0.11,0.05-0.229,0.07-0.35v-0.08
	c0.08-0.41,0.189-0.82,0.3-1.25v-0.091l0.12-0.42l0,0c0.14-0.449,0.29-0.89,0.439-1.33v-0.09l0.15-0.41v-0.05
	c0.15-0.42,0.311-0.83,0.47-1.22v-0.11l0.15-0.35v-0.1l0.33-0.78l0,0l2.53,7.81c0,0,1.39,5.82,0.64,7.19s0.86,7.1,1.93,7.2l-1,7.2
	c-0.552,3.979-0.886,7.984-1,12c-0.069,0.449-0.14,0.84-0.189,1.14c-0.69,3.68,1,9.4,1,9.4c8.47,10,18.55,0.779,18.55,0.779
	s1.18-5.3,0-6.35s-0.64-4.87-0.64-4.87s0.529-9.42,0.64-16.3s-5.63-12.93-5.63-12.93l-0.32,0.29c-1-2.69-2.229-5.841-2-7.25
	c0.43-2.431-1.18-28.141-1.18-28.141c0.588-6.877,0.712-13.786,0.37-20.68l0,0c0.14-1.17,0.27-2.32,0.399-3.43
	c0.65-5.53,1.17-10.261,1.38-12.73l0,0v-0.29c0.051-0.67,0.08-1.14,0.07-1.37c0-0.82,0-1.85,0.08-2.93c0.21-3,0.67-6.28,0.67-6.28
	l2.25-13.649c0,0,1.71-6.66,4.18-10.37l0.29-0.471l0,0c0.101-0.159,0.2-0.34,0.301-0.529v-0.08l0.3-0.57v-0.08
	c0.35-0.68,0.72-1.47,1.1-2.33l0.09-0.189l0.29-0.66l0.11-0.261l0.29-0.659c0-0.091,0.07-0.17,0.109-0.261
	c0.11-0.27,0.221-0.539,0.341-0.81l0.159-0.39c0.091-0.2,0.171-0.4,0.25-0.61l0.221-0.521l0.149-0.39l0.24-0.59
	c0-0.09,0.08-0.18,0.11-0.271c0.609-1.529,1.21-3,1.729-4.42l0,0c0.17-0.43,0.33-0.84,0.48-1.239c5.49,0.34,9.22,0.649,9.22,0.649
	s1.72-12.38,1.18-20.529C216.97,419.5,218,412.5,218.69,408.63c0.08-0.43,0.149-0.81,0.21-1.149l0.149,0.119
	c2.69,2.11,4.61-4.869,4.61-4.869s-0.72-6.53-1.689-14.42c0-0.261-0.07-0.53-0.101-0.791c1.549,0.33,3.114,0.57,4.69,0.721
	c0,0,0.859-0.08,2-0.23c3.235,1.851,6.645,3.378,10.18,4.561l5.68-10.58c1.072-2.182,2.327-4.27,3.75-6.24
	c1.721-2.12,7.83-8.891,7.721-10.16c-0.11-1.27,2-8.57,4.18-11.85C262.25,350.46,263.52,343.8,263.4,343.26z M239.6,351.26
	c-2.25,0.95-4.4,6.24-4.5,7.83c-0.101,1.59-2.471,8.57-4.94,9.42c-2.26,0.78-6.6,4.76-7.29,5.4c-0.71,0.07-1.51,0.16-2.35,0.3
	c-0.94-6.681-1.87-12.2-2.471-13.319c-1.71-3.181,1.891-13.33,1.891-13.33s0.359-10.261,2.609-12.701
	c2.25-2.439,1.721-8.569,1.721-8.569s0.529-2.54,0.75-3.7c0.22-1.16,3.189,0,3.21,0l0,0c0,0,5.79,3.17,6.649,7.93
	c0.86,4.76,7.181,13,7.181,13s-1,2.851,0,4.34c1,1.49-0.2,2.49-2.45,3.44L239.6,351.26z"/>
<path fill="#040530" d="M84.55,260.87c3.611-5.949,10.438-9.152,17.32-8.13v12.36H94.4l-5.92-1.53L84.55,260.87z"/>
<path opacity="0.1" enable-background="new    " d="M84.55,260.87c3.611-5.949,10.438-9.152,17.32-8.13v12.36H94.4l-5.92-1.53
	L84.55,260.87z"/>
<path fill="#AE6E79" d="M102.4,256.01l-9.19,6.45c0,0-0.08-1.3-0.31-3.06c-0.46-3.33-1.49-8.33-3.71-9.3
	c-3.38-1.48-41-15.63-27.66-20.38s33.79,10.83,33.79,10.83s1.06,0.36,2.74,3.85c0.89,1.83,2,4.95,2.939,7.49
	C101.81,254.19,102.4,256.01,102.4,256.01z"/>
<polygon fill="#040530" points="175.88,265.94 176.92,265.44 179.86,268.79 177.46,273.91 173.37,272.27 174.32,268.18 "/>
<path fill="#040530" d="M161.96,565.87c0,0-2.64-0.311-3.699,3.8c-1.061,4.11-2.641,15.53-2.641,15.53s-0.63,7-1.899,8.55
	c-1.271,1.55-2.53,11.51,6.439,12.78c8.97,1.27,12.89-4.83,12.89-4.83L172.73,574L161.96,565.87z"/>
<path fill="#040530" d="M193.27,567.12c0,0,5.649,6,5.55,12.899c-0.1,6.9-0.64,16.271-0.64,16.271s-0.521,3.8,0.64,4.86
	c1.16,1.06,0,6.33,0,6.33s-9.93,9.22-18.271-0.771c0,0-1.63-5.71-1-9.39c0.631-3.681,2.53-20.25,2.53-20.25L193.27,567.12z"/>
<path fill="#AE6E79" d="M207.27,440.8c0,0-5.71,16-8.141,19.641c-2.43,3.64-4.109,10.359-4.109,10.359l-2.221,13.63
	c-0.436,3.046-0.683,6.114-0.739,9.19c0.1,3.06-5.49,47.729-5.49,47.729l-8.87,11.301c0,0-3.91,7.92-3.28,11.199
	c0.63,3.28-0.42,8.551-1.689,10.131c0,0-0.21,10.35-0.53,12.68s1.17,8.87,0,10s-16.68,0.63-17.11-1.271
	c-0.43-1.899,1.91-11.09,1.91-11.09l1.37-8.87c0,0,2.74-4.859,2.11-6.439s1.16-5.28,1.27-5.601c0.11-0.319,3-5.489,2.431-7.489
	c-0.57-2,3.27-44.57,3.27-44.57l10.88-76.36L207.27,440.8z"/>
<path opacity="0.1" enable-background="new    " d="M207.27,440.8c0,0-0.86,2.4-2.061,5.561c-1.88,5-4.59,11.819-6.08,14.08
	c-2.43,3.699-4.119,10.35-4.119,10.35l-2.211,13.63c-0.435,3.042-0.682,6.107-0.739,9.18c0,1.21-0.811,8.931-1.851,17.811
	c-1.6,13.59-3.64,29.93-3.64,29.93l-8.88,11.3c0,0-0.45,0.91-1,2.23c-1.11,2.59-2.681,6.8-2.26,9c0.63,3.28-0.421,8.56-1.69,10.14
	c0,0-0.21,10.36-0.53,12.67c-0.319,2.311,1.17,8.88,0,10s-16.68,0.641-17.109-1.27C154.67,593.5,157,584.33,157,584.33l1.38-8.88
	c0,0,2.74-4.86,2.11-6.44s1.16-5.28,1.27-5.6c0.11-0.32,3-5.49,2.431-7.5c-0.41-1.53,1.7-26.54,2.72-38.4
	c0.33-3.74,0.55-6.16,0.55-6.16l9.36-65.689l0.75-5.3l0.77-5.37L207.27,440.8z"/>
<path fill="#AE6E79" d="M197.76,599.67c0.1,1.16-14.891,2.85-17,1.58c-2.11-1.27,0-17,0-17l1-7.18c-1.061-0.11-2.641-5.811-1.9-7.19
	s-0.64-7.18-0.64-7.18l-2.49-7.8l-1.521-4.761c-2.46-5.449-6-21-8.26-32.6c-1.4-7.29-2.29-13-2.09-13.771
	c0.53-1.899-0.85-15.729-0.85-15.729s-1.681-14-4-18.479c-1.54-2.94-4.551-14-6.421-21.091c-0.949-3.649-1.609-6.27-1.609-6.27
	s16-1.34,25.64-1.811c4.46-0.21,7.58-0.239,7.21,0.13c-0.37,0.37-0.45,2.301-0.43,5.091c0,7.25,1.05,20,2.12,23.42
	c1.479,4.75,3,19,2.319,20.38c-0.68,1.38-0.42,10.56-0.42,10.56c1.085,3.733,1.706,7.586,1.851,11.471
	c0.336,6.88,0.212,13.775-0.37,20.64c0,0,1.59,25.66,1.16,28.09c-0.431,2.43,3.38,10,3.38,11.51c0,1.511,0.96,11.511,0.96,11.511
	S197.66,598.51,197.76,599.67z"/>
<path fill="#AE6E79" d="M206.1,291.18l-1.82,2l-1.18,1.27l-6.92,7.35l-17.851,2l-9.479-2.54l-2.351-0.62c0,0,0-4.77,0.431-10.49
	c0.6-7.33,2.05-16.24,5.489-18.66c1.723-1.352,3.095-3.097,4-5.09c0.691-1.374,1.27-2.802,1.73-4.27c0.07-0.19,0.12-0.37,0.18-0.55
	c0.783-2.561,1.346-5.184,1.68-7.84c0,0,2.28-1.26,5.44-2.73c8.271-3.86,22.55-9.18,17.58,2.73c-0.732,1.746-1.354,3.536-1.86,5.36
	c-0.08,0.26-0.149,0.53-0.21,0.79c-1.66,6.64-0.56,10.66,0.681,12.88l0,0c0.213,0.38,0.453,0.745,0.72,1.09
	c0.334,0.467,0.738,0.878,1.2,1.22l2.06,13.05l0.17,1.08L206.1,291.18z"/>
<path opacity="0.1" enable-background="new    " d="M203.04,254.43C202.1,256.69,203.5,252.58,203.04,254.43
	c-3.76,2.68-12.63,10.3-17.62,10.3c-3.359,0-4.37-0.61-7.26-1.91c0.876-2.734,1.498-5.542,1.86-8.39
	C180.02,254.43,209.9,237.95,203.04,254.43z"/>
<path fill="#AE6E79" d="M210.63,240.55c0.008,11.783-8.891,21.666-20.609,22.89c-0.801,0.089-1.605,0.132-2.41,0.13
	c-12.703,0-23-10.297-23-23s10.297-23,23-23c12.702,0,23,10.297,23,23l0,0L210.63,240.55z"/>
<path opacity="0.1" enable-background="new    " d="M213.92,342.609l-3.27,8.561c0,0-2.68,0.12-6.84,0.25c-14,0.45-45,1-46.391-2.58
	c-0.316-0.913-0.479-1.873-0.479-2.84c-0.19-5.5,2.38-13.95,2.38-13.95s1.479-16.9,1.479-17.63s-1.27-12.62-1.27-12.62l2.53-9.5
	l7.08-5c0,0,3.17,4.86,5.069,5.28c1.9,0.42,4.44,2.75,4.44,2.75s6.22,3.8,8.229,1.68c2.011-2.12,17.641-11.4,17.641-11.4l8.24,9.08
	L213.92,342.609z"/>
<path fill="#FFFFFF" d="M213.92,343.88l-3.27,8.56c0,0-2.68,0.121-6.84,0.24h-0.41l-6.07,0.16c-11.16,0.25-26.55,0.32-34.58-0.85
	c-3-0.44-5-1-5.33-1.9c-0.187-0.507-0.314-1.033-0.38-1.57c-0.055-0.421-0.088-0.845-0.1-1.27c-0.19-5.5,2.38-14,2.38-14
	s1.479-16.9,1.479-17.64c0-0.74-1.27-12.57-1.27-12.57l2.53-9.5l4.87-3.41l2.21-1.55c0.742,1.113,1.554,2.179,2.43,3.19
	c0.678,0.917,1.589,1.636,2.64,2.08c1.9,0.43,4.44,2.75,4.44,2.75s6.22,3.81,8.229,1.69c1.54-1.62,11-7.43,15.42-10.08l2.221-1.33
	l1.109,1.23l7.13,7.86L213.92,343.88z"/>
<path opacity="0.1" enable-background="new    " d="M102.4,256.01l-9.19,6.45c0,0-0.08-1.3-0.31-3.06c4.54-1.91,7.3-6.15,8.1-7.51
	C101.81,254.19,102.4,256.01,102.4,256.01z"/>
<path fill="#040530" d="M134.71,277.87l-2-0.52c0,0-3.279,3.48-5.18,3.9s-5.91,3.07-5.91,3.07l-4.649,3.69c0,0-3.49,0.53-2.431-1.9
	c1.061-2.43-1.899-5.49-1.899-5.49s-5.91-12.15-5.91-14.68c0-2.53-4.86-13.2-4.86-13.2s-6.13,11.93-17.32,8.13
	c0,0,8.131,18.27,8.341,22.81s5.6,17.22,5.6,17.22s2,9.4,12.88,8.87c0,0,15,2.79,18.271,0c3.27-2.79,6.229-5,7.819-5.3
	c1.172-0.393,2.2-1.128,2.95-2.11V289.8L134.71,277.87z"/>
<path opacity="0.1" enable-background="new    " d="M115.91,289.8c0,0,2.64,9.82,1,10.88L115.91,289.8z"/>
<path opacity="0.1" enable-background="new    " d="M203.81,352.68c-14,0.45-45,1-46.391-2.57c-0.316-0.912-0.479-1.873-0.479-2.84
	l45.89,2.42L203.81,352.68z"/>
<path opacity="0.1" enable-background="new    " d="M207.27,440.8c0,0-0.86,2.4-2.05,5.561c-5.83-0.36-13.551-0.73-20.881-0.78
	c-2.6,0-5.14,0-7.529,0.08c-4.142,0.003-8.27,0.463-12.311,1.37c-3.559,1.097-7.279,1.573-11,1.409
	c-0.95-3.649-1.609-6.27-1.609-6.27s16-1.34,25.64-1.81l0.77-5.37L207.27,440.8z"/>
<path fill="#040530" d="M219.62,402.18l-1.79,3.801c0,0-0.25,1.13-0.569,2.93c-0.681,3.859-1.7,10.85-1.341,16.399
	c0.54,8.131-1.159,20.48-1.159,20.48s-38.86-3.271-50.261,0c-11.399,3.27-17,0-17,0s1.37-12.25-2-18.58
	c-2.319-4.34-3.939-23.6-4-36.25c0-5.851,0.29-10.28,1-11.17c2.32-2.86,12.25-31.37,12.25-31.37l2.261,0.12l6,0.319l34.39,1.811
	l5.39,0.28l0.57,1.75L219.62,402.18z"/>
<path fill="#040530" d="M236.73,389.5l0.319,3.38c0,0-17-5.54-16.159-12.35c0.84-6.81,0-6,0-6l13.68,1.159L236.73,389.5z"/>
<path opacity="0.1" enable-background="new    " d="M236.73,389.5l0.319,3.38c0,0-17-5.54-16.159-12.35c0.84-6.81,0-6,0-6
	l13.68,1.159L236.73,389.5z"/>
<path opacity="0.1" enable-background="new    " d="M127.27,292.53c1.739,1.478,3.79,2.544,6,3.12
	c-0.651-0.122-1.261-0.408-1.771-0.83c-1.22-0.87-2.38-1.81-3.55-2.73c-0.94-0.74-2.13-2-3.3-2.27
	C125.427,290.812,126.305,291.72,127.27,292.53z"/>
<path opacity="0.1" enable-background="new    " d="M127.53,296.98c0.551,0.618,0.994,1.325,1.31,2.09
	c0.273,0.874,0.401,1.786,0.381,2.7c0.138,1.296-0.022,2.606-0.471,3.83l-2.77-6.57c-0.471-1.12-1-2.24-1.521-3.32
	c-0.25-0.46-1.819-2.36-1.64-2.76C123.34,291.8,127.02,296.35,127.53,296.98z"/>
<path opacity="0.1" enable-background="new    " d="M203.67,333.42c1.87-0.218,3.622-1.027,5-2.311c-2.81,0.351-5.46,1.451-8.229,2
	c-2.565,0.6-5.256,0.354-7.67-0.699C195.92,333.99,200.25,334.04,203.67,333.42z"/>
<path opacity="0.1" enable-background="new    " d="M195.74,314.09c-0.506,0.079-1.021-0.051-1.43-0.36
	c-2.107-1.2-4.187-2.46-6.24-3.78c-2.167-1.204-4.21-2.617-6.1-4.22C186.16,309.52,190.06,312.72,195.74,314.09z"/>
<path opacity="0.1" enable-background="new    " d="M201.6,336.49c1.103,0.049,2.208-0.039,3.29-0.26
	c1.095-0.232,2.063-0.867,2.71-1.78c-0.393-0.095-0.806-0.029-1.15,0.18c-3.346,1.405-7.018,1.845-10.6,1.271
	C197.56,336.63,199.77,336.48,201.6,336.49z"/>
<path opacity="0.1" enable-background="new    " d="M181.59,385.52c-2.198,0.672-4.46,1.117-6.75,1.33
	c-1.78,0.082-3.563,0.049-5.34-0.1l-8.649-0.55l-4.33-0.28c-0.51,0-2.601,0-1.57-1c0.521-0.49,3.41-0.18,4.15-0.2
	c1.439,0,2.87-0.069,4.3-0.079c2.86,0,5.729,0,8.59,0.18C175.203,384.947,178.403,385.18,181.59,385.52z"/>
<path opacity="0.1" enable-background="new    " d="M171.58,389.8c-1.47-0.06-3.359,0.82-4.87,1c-1.688,0.205-3.391,0.275-5.09,0.21
	c-3.369-0.083-6.696-0.76-9.83-2C158.4,389.34,164.99,389.54,171.58,389.8z"/>
<path opacity="0.1" enable-background="new    " d="M153.08,394.33c0.641,0.13,1.271,0.301,1.891,0.51
	c3.64,1.051,7.52,0.131,11.189-0.779c-0.92,1.379-2.63,2-4.25,2.359c-2.712,0.679-5.536,0.78-8.29,0.3
	c-0.87-0.17-3-0.479-3.479-1.38C149.48,394.01,152.27,394.2,153.08,394.33z"/>
<path opacity="0.1" enable-background="new    " d="M173.53,401.14c1.091,0.222,2.169,0.502,3.23,0.841
	c4.1,1,8.359-0.381,12.479-1.32c4.953-1.13,10.034-1.601,15.11-1.4c-0.91,0-2.351,0.8-3.24,1.07c-1.17,0.35-2.351,0.67-3.53,1
	c-2.328,0.579-4.685,1.039-7.06,1.38c-4.794,0.694-9.645,0.905-14.48,0.63c-2.21-0.12-6,0.11-7.939-1
	C169.732,401.362,171.637,400.941,173.53,401.14z"/>
<path opacity="0.1" enable-background="new    " d="M175.06,270.89c0,0,0.21,9.73-1.38,14.16c-0.49,1.38-1.271,3.93-2.11,6.79
	c-0.93,3.17-1.94,6.72-2.72,9.47c-0.78,2.75-1.29,4.65-1.29,4.65s-3.57,29.06-4.5,42.899c0,0.24,0,0.49,0,0.721
	c-0.05,0.779-0.141,1.59-0.261,2.43c-2.06,13.75-13.92,34.95-17.899,36.65c-1.239,0.57-2.372,1.348-3.351,2.3
	c0-5.851,0.29-10.28,1-11.17c2.32-2.86,12.25-31.37,12.25-31.37l2.261,0.12c-0.055-0.421-0.089-0.845-0.101-1.271
	c-0.189-5.5,2.38-14,2.38-14s1.48-16.899,1.48-17.64c0-0.74-1.271-12.57-1.271-12.57l2.53-9.5l4.87-3.41
	c0.6-7.33,2.05-16.24,5.49-18.66c1.723-1.352,3.095-3.097,4-5.09c0.689,0.09-0.561-0.51-0.561-0.51L175.06,270.89z"/>
<path fill="#040530" d="M176.92,265.44c-1.785-0.604-3.746-0.381-5.35,0.61c-2.43,1.68-7.18,1.58-8.45,1.26
	c-1.27-0.32-14.47-2-15.52-1.58c-1.051,0.42-3.17-1.48-4.54,1.05c-1.37,2.53-2,3.91-3.38,4.55c-1.381,0.64-3.811,2.64-3.49,3.06
	c0.319,0.42-3.48,3-3.48,3l7.7,25c0,0-5,31.68-7.39,34.42c-2.391,2.739-24,38.34-16.261,44.68c6.107,4.809,12.565,9.154,19.32,13
	c0.851,0.42,3.91-5.28,8.141-7.08c4.229-1.801,17.319-25.61,18.18-39.09c0.86-13.48,4.54-43.62,4.54-43.62s4.54-16.48,6.13-20.91
	c1.59-4.43,1.33-14.17,1.33-14.17L176.92,265.44z"/>
<path opacity="0.1" enable-background="new    " d="M219.62,402.18l-1.79,3.801c0,0-0.25,1.13-0.569,2.93
	c-0.336-0.034-0.654-0.171-0.91-0.391c-2.641-2.119-18.17-18.06-18.9-32.22c-0.55-10.44-0.29-19.43-0.12-23.44
	c0.061-1.26,0.101-2,0.11-2.189l0,0c0,0,12-14.58,10.66-19.75s-4.54-32.85-4.54-32.85l-0.471-3.63l-0.8-6.13l-1.89-14.86l2,0.46
	c0.334,0.467,0.738,0.878,1.2,1.22l2.06,13.05l7.13,7.86l1.16,47.84l-3.27,8.56c0,0-2.681,0.121-6.841,0.24h-0.409L219.62,402.18z"
	/>
<path fill="#040530" d="M226.28,323.18c0,0-3-1.16-3.17,0s-0.74,3.69-0.74,3.69s0.521,6.13-1.689,8.56s-2.57,12.67-2.57,12.67
	s-3.55,10.141-1.87,13.311c0.61,1.15,1.56,6.92,2.51,13.82c0.601,4.31,1.2,9.06,1.74,13.39c1,7.89,1.67,14.399,1.67,14.399
	s-1.899,7-4.54,4.86c-2.64-2.14-18.17-18.08-18.91-32.21c-0.52-9.95-0.31-18.58-0.14-22.84c0.08-1.811,0.14-2.83,0.14-2.83
	s12-14.57,10.67-19.74s-4.54-32.85-4.54-32.85l-0.56-4.27l-0.59-4.6l-0.13-1l-1.91-14.74l0,0c0.34,0.07,12.189,2.75,13.75,4.31
	c1.56,1.56,11.189,3.8,11.189,3.8c2.972,0.81,5.269,3.168,6,6.16c0.091,0.29,0.16,0.6,0.23,0.92c1.27,6.13,0.85,6.86,1.7,7.92
	C235.37,296.97,226.28,323.18,226.28,323.18z"/>
<path opacity="0.1" enable-background="new    " d="M220.49,388.62c-4.34-0.841-10.729-2.851-10.59-7.25
	c0.14-4.13,5.1-5.61,8.85-6.14C219.4,379.54,219.95,384.29,220.49,388.62z"/>
<path fill="#AE6E79" d="M233.88,386.439c-0.17,0.371-0.89,0.69-1.84,1c-2.302,0.552-4.642,0.933-7,1.141c0,0-14.68-1.16-14.47-7.811
	c0.15-4.779,6.78-6,10.51-6.33c1.46-0.129,2.48-0.109,2.48-0.109S234.52,385.07,233.88,386.439z"/>
<path opacity="0.1" enable-background="new    " d="M233.88,386.439c-0.17,0.371-0.89,0.69-1.84,1
	c-3.83-5.119-9.17-11.689-11.779-12.27c0,0,0.3-0.29,0.789-0.73c1.461-0.129,2.48-0.109,2.48-0.109S234.52,385.07,233.88,386.439z"
	/>
<path fill="#040530" d="M230.18,295.3l4.329,0.63c1.558,2.747,3.287,5.392,5.181,7.92c1.162,1.441,1.828,3.22,1.899,5.07
	c0,0,6.341,9.4,8.341,10.46s5.069,8.24,5.069,8.24s5,3.271,5,7c0.085,3.079,0.402,6.148,0.95,9.18c0.1,0.53-0.74,7.08-2.86,10.351
	c-2.119,3.27-4.22,10.56-4.109,11.83c0.109,1.27-5.92,8-7.61,10.14c-1.404,1.968-2.639,4.052-3.689,6.229l-5.601,10.561
	c0,0-11.83-17.42-16.16-18.37c0,0,4.86-4.649,7.29-5.49c2.431-0.84,4.75-7.819,4.86-9.399s2.21-6.871,4.43-7.82
	c2.221-0.95,3.38-1.9,2.431-3.38c-0.95-1.48,0-4.33,0-4.33s-6.23-8.24-7.08-13c-0.851-4.761-6.54-7.92-6.54-7.92l-3.28-8
	L230.18,295.3z"/>
<path opacity="0.1" enable-background="new    " d="M245.89,334.721c2.391-2.021,5.4-3.16,8.529-3.23c-2,0.35-4.12,0.779-5.58,2.18
	c-0.578,0.614-1.094,1.284-1.54,2c-0.51,0.721-4.579,5.9-5.229,5.09C241.1,339.52,245.07,335.42,245.89,334.721z"/>
<path opacity="0.1" enable-background="new    " d="M236.33,329.721c1.312-0.115,2.459-0.93,3-2.131
	c0.514-1.191,0.832-2.457,0.94-3.75c0.311-2.16,0.748-4.301,1.31-6.41c0.145-0.432,0.216-0.884,0.21-1.34
	c-0.052-0.45-0.184-0.887-0.39-1.29c-0.231-0.673-0.54-1.317-0.92-1.92c-0.79,0.89-1,2.88-1.33,4c-0.387,1.44-0.757,2.88-1.11,4.32
	C237.87,321.96,236.4,329.721,236.33,329.721z"/>
<path opacity="0.1" enable-background="new    " d="M232.59,287.09c-0.429,0.553-0.919,1.056-1.46,1.5
	c-1.689,1.37-4,2.53-4.239,4.69c0.061,0.706-0.024,1.417-0.25,2.09c-0.551,0.94-1.91,0.87-3,0.68c-0.91-0.086-1.781-0.406-2.53-0.93
	c-1.13-1-1.24-2.7-2.1-3.91c-1.055-1.266-2.634-1.975-4.28-1.92c-1.62-0.05-3.23,0.31-4.84,0.39c-1.038,0.05-2.079-0.02-3.101-0.21
	c-0.34-0.06-0.67-0.13-1-0.21c-0.723-0.18-1.428-0.42-2.109-0.72c-0.342-0.143-0.676-0.303-1-0.48c-1.089-0.552-2.098-1.249-3-2.07
	c-1.58-1.46-2.891-3.45-2.761-5.61c0.227-1.296,0.527-2.578,0.9-3.84c0.65-3.73-1.83-7.26-4.521-9.93
	c-1.069-1.05-2.21-2.09-3.279-3.17c-1.67-1.535-2.989-3.411-3.87-5.5c-0.706-2.22-0.94-4.563-0.69-6.88
	c0.25-2.354,0.319-4.725,0.21-7.09c-0.8-8.4-8-14.83-15.14-18.34l-0.31-0.16c8.45-9.483,22.988-10.321,32.473-1.871
	c9.483,8.451,10.321,22.989,1.871,32.473c-1.011,1.134-2.131,2.165-3.344,3.078c-0.08,0.26-0.15,0.53-0.21,0.79
	c-1.66,6.64-0.561,10.66,0.68,12.88l0,0c0.34,0.07,12.189,2.75,13.75,4.31c1.56,1.56,11.189,3.8,11.189,3.8
	C229.586,281.752,231.866,284.109,232.59,287.09z"/>
<path fill="#040530" d="M168.63,219.35c0.471-0.54,1.19-0.82,1.67-1.35c1.49-1.62,0-4.27,0.551-6.41c0.59-2.38,3.5-3.42,5.939-3.16
	c2.44,0.26,4.721,1.37,7.15,1.64c3.78,0.43,7.439-1.21,11.13-2.17s8.14-1,10.69,1.81c2.55,2.81,2.359,7.64,5.52,9.69
	c1.46,0.94,3.3,1,4.88,1.75c1.728,0.893,3.161,2.264,4.13,3.95c2.497,3.934,3.593,8.595,3.11,13.23c-0.26,2.5-1,4.94-1.28,7.44
	c-0.301,2.603-0.128,5.239,0.51,7.78c0.67,2.63,2.11,5.39,4.7,6.22c0.606,0.125,1.194,0.328,1.75,0.6c1.49,0.92,1.3,3.12,0.92,4.83
	l-1.6,7.05c1.479,1.13,3.77,0.64,5.21,1.83c0.567,0.512,0.985,1.169,1.21,1.9c1.41,4.057,0.178,8.564-3.1,11.34
	c-1.69,1.38-4,2.53-4.24,4.7c0.064,0.703-0.021,1.412-0.25,2.08c-0.55,0.94-1.91,0.87-3,0.68c-0.907-0.083-1.776-0.404-2.521-0.93
	c-1.14-1-1.239-2.7-2.1-3.91c-1.055-1.266-2.634-1.975-4.28-1.92c-1.63-0.05-3.229,0.31-4.85,0.39
	c-3.757,0.163-7.426-1.163-10.21-3.69c-1.705-1.366-2.719-3.416-2.771-5.6c0.231-1.299,0.532-2.584,0.9-3.85
	c0.649-3.72-1.83-7.26-4.51-9.92c-2.681-2.66-5.841-5.13-7.15-8.68c-1.64-4.4,0-9.3-0.49-14c-0.8-8.4-8-14.83-15.13-18.33
	C169.49,223.55,166.77,221.46,168.63,219.35z"/>
<path opacity="0.1" enable-background="new    " d="M225.1,291.87c-1.13-1-1.23-2.69-2.09-3.91c-1.063-1.26-2.644-1.964-4.29-1.91
	c-1.62-0.05-3.221,0.31-4.841,0.39c-3.748,0.171-7.415-1.136-10.21-3.64c-1.59-1.46-2.89-3.46-2.77-5.61
	c0.231-1.295,0.531-2.577,0.899-3.84c0.65-3.73-1.829-7.26-4.52-9.93s-5.83-5.13-7.15-8.68c-1.63-4.39,0-9.3-0.479-14
	c-0.8-8.4-8-14.84-15.14-18.34c-1.671-0.82-4.391-2.9-2.53-5c0.47-0.54,1.18-0.81,1.67-1.34c1.49-1.62,0-4.28,0.55-6.42
	c0.104-0.421,0.287-0.818,0.54-1.17c-1.787,0.171-3.309,1.372-3.89,3.07c-0.53,2.14,0.939,4.8-0.551,6.42
	c-0.479,0.53-1.199,0.8-1.67,1.34c-1.859,2.12,0.86,4.2,2.54,5c7.17,3.51,14.33,9.94,15.13,18.34c0.44,4.66-1.149,9.57,0.49,14
	c1.311,3.55,4.46,6,7.15,8.68c2.689,2.68,5.16,6.2,4.51,9.93c-0.367,1.263-0.668,2.545-0.9,3.84c-0.119,2.15,1.181,4.15,2.771,5.61
	c2.784,2.527,6.453,3.853,10.21,3.69c1.62-0.08,3.22-0.44,4.85-0.39c1.645-0.054,3.223,0.65,4.28,1.91c0.86,1.22,1,2.95,2.101,3.91
	c0.743,0.526,1.612,0.847,2.52,0.93c1.08,0.2,2.44,0.27,3-0.68c0.191-0.384,0.274-0.813,0.24-1.24
	C226.641,292.736,225.804,292.404,225.1,291.87z"/>
</svg>
