<?xml version="1.0" encoding="utf-8"?>
<!-- Generator: Adobe Illustrator 16.0.0, SVG Export Plug-In . SVG Version: 6.00 Build 0)  -->
<!DOCTYPE svg PUBLIC "-//W3C//DTD SVG 1.1//EN" "http://www.w3.org/Graphics/SVG/1.1/DTD/svg11.dtd">
<svg version="1.1" id="a50fd755-b70f-4e5f-b336-9e50a578b62c"
	 xmlns="http://www.w3.org/2000/svg" xmlns:xlink="http://www.w3.org/1999/xlink" x="0px" y="0px" width="1128.33px"
	 height="786.75px" viewBox="0 0 1128.33 786.75" enable-background="new 0 0 1128.33 786.75" xml:space="preserve">
<title>booking</title>
<path opacity="0.1" fill="#0B75CE" enable-background="new    " d="M655.7,124.47c-72.31-2.51-141.18-25.86-206.95-51.4
	C382.98,47.53,317.841,19.23,247.25,5.7c-45.39-8.71-97.31-9.94-133.89,14.4c-35.2,23.42-46.57,63.85-52.69,101.37
	c-4.6,28.23-7.3,57.93,5.301,84.36c8.75,18.34,24.29,33.76,35,51.33c37.39,61.15,11,136.54-29.561,196.25
	c-19,28-41.06,54.72-55.72,84.53c-14.66,29.81-21.42,63.97-8.53,94.43c12.72,30.14,43,52.78,75.87,68.71
	c66.64,32.29,145.23,41.55,221.86,46.79c169.64,11.6,340.189,6.58,510.28,1.55c62.939-1.87,126.17-3.75,188.09-13.49
	c34.39-5.399,69.89-14,94.859-34.689c31.69-26.29,39.551-70.811,18.311-103.78c-35.62-55.3-134.11-69-159-128.38
	c-13.71-32.66,0.37-69.05,20.29-99.34c42.72-65,114.33-122,118.1-196.29c2.601-51-31.83-102.12-85.06-126.26
	c-55.8-25.3-133.16-22.12-174.33,19.77C794.04,110.09,719.551,126.68,655.7,124.47z"/>
<path fill="#AF0707" d="M902.64,681.91c-4.059-1.313-8.346-1.77-12.59-1.34c-5.17,0.56-4.44,8.43,0.75,8.06
	c2.596-0.2,5.163-0.673,7.659-1.41L902.64,681.91z"/>
<path fill="#AF0707" d="M904.21,681.98c1.868,3.838,2.918,8.023,3.08,12.289c0.17,5.2-7.729,5.57-8.09,0.381
	c-0.156-2.599-0.042-5.206,0.34-7.78L904.21,681.98z"/>
<path fill="#AF0707" d="M915.97,665.14c0,0-2.53-7.939-18-4.859c-7,1.39-6.811,11.43,0.2,12.489h0.3
	C908.68,674.19,912.23,670.14,915.97,665.14z"/>
<path fill="#AF0707" d="M917.58,664.67c0,0,8.311,0.65,8.83,16.4c0.24,7.09-9.569,9.239-12.2,2.66c0-0.101-0.069-0.19-0.109-0.29
	C910.43,673.83,913.56,669.45,917.58,664.67z"/>
<path fill="#AF0707" d="M928.68,644.37c-1.189-5.868-5.458-10.635-11.16-12.46c-10.47-3.3-16,12.359-5.77,16.34
	c4.233,1.546,8.741,2.2,13.239,1.92L928.68,644.37z"/>
<path fill="#AF0707" d="M941.45,618.22c0,0-4.229-10-15.2-12c-11.63-2.13-15.149,15.34-3.659,18.13
	c5.155,1.12,10.486,1.165,15.659,0.131L941.45,618.22z"/>
<path fill="#AF0707" d="M949.16,592.47c-3.618-5.687-9.394-9.658-16-11c-10-1.88-13.37,13.09-3.55,15.65
	c6.167,1.508,12.617,1.418,18.74-0.26L949.16,592.47z"/>
<path fill="#AF0707" d="M956.43,567.37c-3.191-5.26-8.156-9.207-14-11.13c-10-3.07-14.94,12.09-5,15.39
	c5.893,1.955,12.263,1.931,18.14-0.07L956.43,567.37z"/>
<path fill="#AF0707" d="M959.49,544.5c0,0-4-9.38-12.149-14.34c-9.08-5.53-17.73,8-9,14.09c5.38,3.77,12.27,6.37,20.319,4.63
	L959.49,544.5z"/>
<path fill="#AF0707" d="M961.001,517.37c0,0-4.41-9.47-12.87-14c-9.46-5-17.69,8.82-8.78,14.78c5.83,3.89,13.109,6.409,20.84,3.369
	L961.001,517.37z"/>
<path fill="#AF0707" d="M960.06,492.63c-3.3-5.12-7.345-9.721-12-13.649c-6.62-5.41-15,4.329-8.73,10.109
	c5.79,5.311,13,9.771,20.45,9.41L960.06,492.63z"/>
<path fill="#AF0707" d="M957.551,468.89c-3.78-6.376-8.335-12.261-13.561-17.52c-5.18-5-12.84,2.62-8,7.89
	c5.59,6,13.13,12.221,22.19,14.94L957.551,468.89z"/>
<path fill="#AF0707" d="M952.7,440.97c-3.117-4.846-6.748-9.342-10.83-13.41c-5.22-5.109-13.09,2.58-8.08,7.891
	c5.32,5.649,12.2,10.939,20.271,12.74L952.7,440.97z"/>
<path fill="#AF0707" d="M948.46,414.92c-3.205-4.339-6.682-8.471-10.409-12.37c-4.181-4.31-10.86,1.75-6.92,6.29
	c4.63,5.34,10.569,10.07,17.399,10.83L948.46,414.92z"/>
<path fill="#AF0707" d="M944.06,390.76c-2.923-5.722-6.266-11.221-10-16.45c-3.13-4.28-9.65,0.3-6.7,4.7
	c3.86,5.77,9.22,11.48,16.26,14.23L944.06,390.76z"/>
<path fill="#AF0707" d="M940.43,358.65c0,0-2.47-4.19-6-9.06c-3.26-4.49-10.141,0.15-7.12,4.8c3.4,5.21,7.66,9.65,12.62,10.53
	L940.43,358.65z"/>
<path fill="#AF0707" d="M938.7,337.37l-3.13-15.65c-0.83-4.14-7-3.15-6.5,1c1.12,8.36,4,16.77,10.271,22.29L938.7,337.37z"/>
<path fill="#AF0707" d="M940.56,292.89L940.56,292.89c-0.658-1.563-2.459-2.295-4.021-1.637c-1.304,0.55-2.063,1.919-1.839,3.316
	c0.696,4.347,1.753,8.628,3.16,12.8L940.56,292.89z"/>
<path fill="#AF0707" d="M929.381,644.06c5.688-1.877,11.947-0.53,16.359,3.521c8,7.47-2.819,20-11.35,13.11
	c-3.438-2.915-6.239-6.507-8.23-10.551L929.381,644.06z"/>
<path fill="#AF0707" d="M942.16,617.27c0,0,10.521-2.539,18.66,5.08c8.63,8.08-3.3,21.311-12.39,13.74
	c-3.973-3.476-7.183-7.734-9.431-12.51L942.16,617.27z"/>
<path fill="#AF0707" d="M949.85,594.23c5.495-3.935,12.356-5.458,19-4.221c10,2,7.51,17.13-2.561,15.84
	c-6.281-0.911-12.228-3.406-17.279-7.25L949.85,594.23z"/>
<path fill="#AF0707" d="M956.93,567.51c4.915-3.689,10.986-5.502,17.12-5.109c10.46,0.909,9.34,16.8-1.13,16.14
	c-6.198-0.386-12.1-2.792-16.801-6.85L956.93,567.51z"/>
<path fill="#AF0707" d="M959.36,545.15c0,0,5.55-8.561,14.41-12.061c9.83-3.89,16.14,10.84,6.59,15.37
	c-6,2.83-13.229,4.26-20.91,1.15L959.36,545.15z"/>
<path fill="#AF0707" d="M959.71,516.96c0,0,5.61-8.8,14.58-12.16c10-3.75,16.391,11.05,6.78,15.8c-6.29,3.101-13.84,4.641-21.1,0.62
	L959.71,516.96z"/>
<path fill="#AF0707" d="M957.83,492.37c2.128-5.708,5.094-11.066,8.801-15.9c5.3-6.71,15.609,1,10.689,8
	c-4.52,6.431-10.56,12.32-18,13.57L957.83,492.37z"/>
<path fill="#AF0707" d="M957.06,468.85c1.839-7.196,4.566-14.137,8.12-20.659c3.59-6.221,13.06-1.07,9.84,5.35
	c-3.68,7.35-9.2,15.4-17.14,20.55L957.06,468.85z"/>
<path fill="#AF0707" d="M951.26,439.67c2.159-5.547,4.93-10.836,8.26-15.77c4.12-6,13.25-0.12,9.479,6.08
	c-4.1,6.76-9.88,13.56-17.63,17L951.26,439.67z"/>
<path fill="#AF0707" d="M946.64,414.78c1.115-5.276,2.562-10.477,4.33-15.57c2-5.67,10.609-2.931,8.91,2.84
	c-2,6.78-5.431,13.55-11.32,17.08L946.64,414.78z"/>
<path fill="#AF0707" d="M943.43,390.29c1.544-6.244,3.549-12.364,6-18.31c2.08-4.88,9.479-1.91,7.6,3.05
	c-2.439,6.5-6.359,13.28-12.58,17.56L943.43,390.29z"/>
<path fill="#AF0707" d="M938.62,360.85c0,0,0.94-4.77,2.65-10.54c1.58-5.32,9.62-3.23,8.31,2.16c-1.46,6-4,11.65-8.399,14.13
	L938.62,360.85z"/>
<path fill="#AF0707" d="M939.74,336.31l5.44-15c1.439-4,7.439-2.06,6.27,2c-2.35,8.1-6.43,16-13.479,20.5L939.74,336.31z"/>
<path fill="#AF0707" d="M946.52,294.46c0,0,0.85-0.68,2.15-1.75c2.649-2.2,6.109,1.64,3.609,4c-4.352,3.956-9.355,7.129-14.79,9.38
	L946.52,294.46z"/>
<path fill="#AF0707" d="M946.16,285.77c3.252-6.639,6.874-13.089,10.851-19.32c0.518-0.976,0.146-2.187-0.829-2.704
	c-0.805-0.427-1.796-0.257-2.411,0.414c-3.2,4.38-6.34,10.79-8.72,20.21L946.16,285.77z"/>
<path fill="#040530" d="M939.96,365.17l1.16-0.12c-5-46.61-2.89-75.35,5.851-80.92l-0.63-1
	C937.08,289.06,934.881,317.42,939.96,365.17z"/>
<path fill="#040530" d="M957.16,475.37l1.73-0.26c-0.65-4.311-1.4-8.69-2.24-13c-7.28-37.83-12.94-72.8-15.77-99.36l-1.271-1
	c2.84,26.61,8,62.79,15.33,100.67C955.76,466.7,956.51,471.07,957.16,475.37z"/>
<path fill="#040530" d="M876.16,710.95c0.261-0.21,26.9-20.59,50.29-59.681c13.709-22.875,23.7-47.781,29.601-73.789
	c7.39-32.511,7.6-70.37,2.27-105.83l-1.56,1.25c12,79.58-10.891,141.369-32.25,177.09c-23.16,38.729-49.49,58.899-49.761,59.1
	L876.16,710.95z"/>
<ellipse fill="#AF0707" cx="194.02" cy="697.97" rx="66.55" ry="12.8"/>
<ellipse fill="#040530" cx="192.9" cy="692.53" rx="7.75" ry="10.14"/>
<ellipse fill="#040530" cx="192.9" cy="680.13" rx="7.75" ry="10.14"/>
<ellipse fill="#040530" cx="192.9" cy="667.74" rx="7.75" ry="10.14"/>
<ellipse fill="#040530" cx="192.9" cy="655.34" rx="7.75" ry="10.14"/>
<ellipse fill="#040530" cx="192.9" cy="642.94" rx="7.75" ry="10.14"/>
<ellipse fill="#040530" cx="192.9" cy="630.55" rx="7.75" ry="10.14"/>
<ellipse fill="#040530" cx="192.9" cy="618.15" rx="7.75" ry="10.14"/>
<path fill="#AF0707" d="M221.9,533.31c1.062-1.347,2.027-2.767,2.89-4.25l-20.359-3.34l22,0.16c4.271-9.285,4.528-19.92,0.71-29.4
	L197.6,511.8l27.239-20c-10.233-17.764-32.931-23.867-50.694-13.634c-17.764,10.234-23.867,32.931-13.633,50.694
	c0.899,1.562,1.911,3.056,3.027,4.47c-1.646,2.1-3.064,4.369-4.229,6.77l26.43,13.73l-28.16-9.46
	c-4.016,11.884-1.759,24.992,6,34.85c-12.679,16.11-9.896,39.448,6.214,52.127s39.447,9.896,52.126-6.214
	c10.601-13.469,10.601-32.443,0-45.913c10.599-13.461,10.599-32.429,0-45.89L221.9,533.31z"/>
<path fill="#AF0707" d="M155.62,556.26c-0.009,8.322,2.789,16.404,7.94,22.94c-12.679,16.11-9.897,39.448,6.213,52.126
	c16.11,12.679,39.448,9.897,52.127-6.213c10.6-13.469,10.6-32.444,0-45.913C226.88,572.89,155.62,552.09,155.62,556.26z"/>
<path fill="#FFFFFF" d="M231.97,261.24v441.71c0,8.516,6.903,15.42,15.42,15.42h633.87c8.516,0,15.42-6.904,15.42-15.42V261.24
	H231.97z"/>
<path opacity="0.1" enable-background="new    " d="M293.22,300.78h141.6c4.777,0,8.65,3.873,8.65,8.65v75.97
	c0,4.777-3.873,8.65-8.65,8.65h-141.6c-4.777,0-8.65-3.873-8.65-8.65v-75.97C284.57,304.653,288.443,300.78,293.22,300.78z"/>
<path opacity="0.1" enable-background="new    " d="M493.53,300.78h141.601c4.777,0,8.649,3.873,8.649,8.65v75.97
	c0,4.777-3.872,8.65-8.649,8.65H493.53c-4.777,0-8.649-3.873-8.649-8.65v-75.97C484.881,304.653,488.753,300.78,493.53,300.78z"/>
<path fill="#040530" d="M295.45,302.09h137.13c4.777,0,8.65,3.873,8.65,8.65v73.34c0,4.777-3.873,8.65-8.65,8.65H295.45
	c-4.777,0-8.65-3.873-8.65-8.65v-73.34C286.8,305.963,290.673,302.09,295.45,302.09z"/>
<path opacity="0.1" fill="#0B75CE" enable-background="new    " d="M833.2,392.73H696.07c-4.777,0-8.649-3.873-8.649-8.65v-73.34
	c0-4.777,3.872-8.65,8.649-8.65H833.2c4.777,0,8.65,3.873,8.65,8.65v73.34C841.85,388.857,837.977,392.73,833.2,392.73z"/>
<path fill="#040530" d="M632.89,392.73H495.76c-4.777,0-8.65-3.873-8.65-8.65v-73.34c0-4.777,3.873-8.65,8.65-8.65h137.13
	c4.777,0,8.649,3.873,8.649,8.65v73.34C641.54,388.857,637.668,392.73,632.89,392.73z"/>
<path opacity="0.1" fill="#0B75CE" enable-background="new    " d="M295.45,433.02h137.13c4.777,0,8.65,3.873,8.65,8.65v73.34
	c0,4.777-3.873,8.65-8.65,8.65H295.45c-4.777,0-8.65-3.873-8.65-8.65v-73.34C286.8,436.893,290.673,433.02,295.45,433.02z"/>
<path opacity="0.1" fill="#0B75CE" enable-background="new    " d="M833.2,523.66H696.07c-4.777,0-8.649-3.873-8.649-8.65v-73.34
	c0-4.777,3.872-8.65,8.649-8.65H833.2c4.777,0,8.65,3.873,8.65,8.65v73.34C841.85,519.787,837.977,523.66,833.2,523.66z"/>
<path opacity="0.1" fill="#0B75CE" enable-background="new    " d="M632.89,523.66H495.76c-4.777,0-8.65-3.873-8.65-8.65v-73.34
	c0-4.777,3.873-8.65,8.65-8.65h137.13c4.777,0,8.649,3.873,8.649,8.65v73.34C641.54,519.787,637.668,523.66,632.89,523.66z"/>
<path opacity="0.1" fill="#0B75CE" enable-background="new    " d="M295.45,563.95h137.13c4.777,0,8.65,3.872,8.65,8.649v73.341
	c0,4.776-3.873,8.649-8.65,8.649H295.45c-4.777,0-8.65-3.873-8.65-8.649V572.6C286.8,567.822,290.673,563.95,295.45,563.95z"/>
<path opacity="0.1" fill="#0B75CE" enable-background="new    " d="M833.2,654.6H696.07c-4.777,0-8.649-3.872-8.649-8.649v-73.34
	c0-4.777,3.872-8.65,8.649-8.65H833.2c4.777,0,8.65,3.873,8.65,8.65v73.34C841.85,650.728,837.977,654.6,833.2,654.6z"/>
<path opacity="0.1" fill="#0B75CE" enable-background="new    " d="M632.89,654.6H495.76c-4.777,0-8.65-3.872-8.65-8.649v-73.34
	c0-4.777,3.873-8.65,8.65-8.65h137.13c4.777,0,8.649,3.873,8.649,8.65v73.34C641.54,650.728,637.668,654.6,632.89,654.6z"/>
<path fill="#AF0707" d="M231.97,183.23v80.25h664.71v-80.25c0.006-8.516-6.894-15.424-15.41-15.43c-0.003,0-0.007,0-0.01,0H247.39
	c-8.517,0-15.42,6.904-15.42,15.42C231.97,183.223,231.97,183.227,231.97,183.23z M396.47,206.97
	c-6.799,0-12.311-5.511-12.311-12.31c0-6.799,5.512-12.31,12.311-12.31s12.31,5.511,12.31,12.31l0,0
	C408.78,201.458,403.269,206.97,396.47,206.97z M732.18,206.97c-6.799,0-12.311-5.511-12.311-12.31
	c0-6.799,5.512-12.31,12.311-12.31s12.31,5.511,12.31,12.31l0,0C744.49,201.458,738.979,206.97,732.18,206.97
	c-0.007,0-0.014,0-0.021,0H732.18z"/>
<path opacity="0.1" enable-background="new    " d="M396.47,180.11c-8.036-0.005-14.555,6.504-14.561,14.54
	c-0.005,8.036,6.505,14.555,14.54,14.56c8.036,0.005,14.555-6.504,14.561-14.54c0-0.003,0-0.007,0-0.01
	c0.005-8.03-6.5-14.544-14.53-14.55C396.477,180.11,396.473,180.11,396.47,180.11z M396.47,206.97
	c-6.799,0-12.311-5.511-12.311-12.31c0-6.799,5.512-12.31,12.311-12.31s12.31,5.511,12.31,12.31l0,0
	C408.78,201.458,403.269,206.97,396.47,206.97z"/>
<path opacity="0.1" enable-background="new    " d="M732.16,180.11c-8.035,0-14.55,6.514-14.55,14.55
	c0,8.036,6.515,14.55,14.55,14.55c8.036,0,14.55-6.514,14.55-14.55l0,0C746.71,186.624,740.196,180.11,732.16,180.11z
	 M732.16,206.97c-6.798,0-12.31-5.511-12.31-12.31c0-6.799,5.512-12.31,12.31-12.31c6.799,0,12.311,5.511,12.311,12.31l0,0
	C744.47,201.458,738.959,206.97,732.16,206.97z"/>
<circle opacity="0.1" fill="#0B75CE" enable-background="new    " cx="1033.1" cy="419.94" r="15.27"/>
<circle opacity="0.1" fill="#0B75CE" enable-background="new    " cx="1087.73" cy="351.84" r="25.6"/>
<circle opacity="0.1" fill="#0B75CE" enable-background="new    " cx="1053.841" cy="476.06" r="25.6"/>
<circle opacity="0.1" fill="#0B75CE" enable-background="new    " cx="36.25" cy="345.56" r="36.25"/>
<linearGradient id="SVGID_1_" gradientUnits="userSpaceOnUse" x1="882.6257" y1="-32.5718" x2="882.6257" y2="411.9048" gradientTransform="matrix(1 0 0 -1 -44.1997 754.1748)">
	<stop  offset="0" style="stop-color:#808080;stop-opacity:0.25"/>
	<stop  offset="0.54" style="stop-color:#808080;stop-opacity:0.12"/>
	<stop  offset="1" style="stop-color:#808080;stop-opacity:0.1"/>
</linearGradient>
<path fill="url(#SVGID_1_)" d="M925.65,740.37c-2.276-1.714-4.772-3.116-7.42-4.17c-0.201-0.104-0.424-0.162-0.65-0.17
	c-5.479-3.933-10.599-8.344-15.3-13.181c1-0.8,1.92-1.58,2.9-2.35c-6-2.86-9.33-9.41-12.57-15.32
	c-8.566-15.711-19.855-29.775-33.34-41.54c-0.33-1.27-2.26-1-3.29-1.819c-0.684-0.657-0.962-1.631-0.729-2.55
	c0.159-0.921,0.579-1.771,0.81-2.671c0.55-2.109,0.07-4.329-0.17-6.5c-0.24-2.17-0.14-4.59,1.3-6.21
	c0.46-0.529,1.05-0.939,1.5-1.479c0.956-1.287,1.32-2.919,1-4.49c-0.108-1.558-0.445-3.09-1-4.55
	c4.9-13.333,9.797-26.69,14.69-40.07c3.43-9.34,6.89-18.88,7.239-28.84c0.28-8-1.779-16.31-6.619-22.42
	c0.88-0.21,1.76-0.43,2.63-0.68c-5.721-7.58-6.341-17.62-6.49-27.17c-0.08-4.761-0.243-9.523-0.49-14.29
	c1.66,0.729,3.34,1.38,5.061,1.939l1.6,0.49c2.598,0.761,5.248,1.329,7.93,1.7c1.181,0.17,2.38,0.3,3.57,0.38l0,0
	c-1.72-4.307-3.437-8.62-5.15-12.94c-0.891-1.911-1.433-3.967-1.6-6.069l0,0V485c0-0.24,0-0.479,0.05-0.72
	c0.068-0.572,0.199-1.136,0.391-1.68c0.088-0.27,0.191-0.533,0.31-0.79c0.356-0.788,0.785-1.541,1.28-2.25
	c0.359-0.551,0.76-1.08,1.16-1.62c1.49-1.739,2.701-3.699,3.59-5.811c0.352-1.068,0.537-2.185,0.55-3.31
	c0.02-1.141-0.081-2.28-0.3-3.4c-0.141-0.74-0.32-1.49-0.521-2.21l0,0c-0.13-0.45-0.27-0.899-0.41-1.34l-0.12-0.36
	c-0.109-0.34-0.22-0.67-0.34-1l-0.12-0.34c-0.13-0.359-0.26-0.71-0.399-1.07l-0.08-0.21c-1.91-4.909-4.45-9.59-6-14.64
	c-0.407-1.344-0.741-2.709-1-4.09c-0.07-0.35-0.12-0.71-0.18-1.061c-0.061-0.35-0.091-0.6-0.131-0.899
	c-0.039-0.3-0.09-0.7-0.13-1.05l-0.09-1c0-0.32-0.05-0.641-0.07-1c0-0.61-0.06-1.221-0.069-1.83c0-0.221,0-0.431,0-0.65
	c0-0.46,0-0.93,0-1.39c0-0.25,0-0.5,0-0.74c0-0.46,0.069-0.92,0.109-1.37c0-0.22,0-0.439,0.07-0.649
	c0.066-0.667,0.156-1.334,0.271-2l0,0c0.1-0.591,0.21-1.19,0.329-1.79c0.362-1.643,0.551-3.318,0.561-5c0-0.32,0-0.65-0.07-1
	c-0.069-0.351-0.08-0.54-0.13-0.801c-0.005-0.079-0.005-0.159,0-0.239c0-0.181-0.09-0.36-0.13-0.54c-0.04-0.181-0.05-0.17-0.08-0.25
	s-0.11-0.351-0.17-0.521s-0.05-0.149-0.08-0.229s-0.14-0.36-0.22-0.53l-0.07-0.18c-0.1-0.221-0.21-0.431-0.32-0.641l0,0
	c-0.387-0.729-0.835-1.425-1.34-2.08l0,0c-3.29-4.319-8.76-7.609-11.77-12.369c-1.758-3.085-2.902-6.481-3.37-10
	c-0.15-0.8-0.28-1.6-0.42-2.39c-0.141-0.79-0.26-1.57-0.4-2.35c-0.09-0.48-0.18-1-0.28-1.44l-0.06-0.31
	c-0.08-0.38-0.16-0.77-0.25-1.15l-0.06-0.27c-0.091-0.4-0.181-0.8-0.28-1.2l-0.061-0.21c-0.1-0.42-0.21-0.84-0.319-1.26
	c-0.005-0.05-0.005-0.1,0-0.15c-0.12-0.44-0.25-0.88-0.38-1.32v-0.09c-0.141-0.46-0.28-0.91-0.431-1.36l0,0
	c-0.149-0.46-0.31-0.93-0.479-1.39l0,0c-0.181-0.47-0.351-0.94-0.54-1.4l0,0c-1.258-3.222-2.961-6.251-5.061-9
	c-4.58-5.88-11.659-10.1-19-9.82c-3.939,0.15-7.72,1.53-11.43,2.9l-9.63,3.55l2.689-1.24c-2.8,0.25-5.659,0.51-8.189,1.75
	c-2.53,1.24-4.67,3.67-4.75,6.51c-0.05,1.65,0.6,3.29,0.39,4.93c-0.35,2.71-2.84,4.55-4.13,6.95c-0.756,1.446-1.102,3.071-1,4.7
	v0.08c0,0.19,0,0.37,0,0.56c-0.005,0.053-0.005,0.106,0,0.16v0.32c-4-1.74-8-3.55-12-5.49c-6.609-3.25-13.3-7.07-17.42-13.23
	c-1.32-2-2.34-4.16-3.65-6.14c-1.503-2.131-3.175-4.137-5-6l-12.27-13.28c-0.94,1.77,0.27,3.86,1.22,5.62
	c1.009,1.846,1.772,3.816,2.271,5.86c0.242,0.666,0.221,1.399-0.061,2.05c-0.446,0.537-1.025,0.947-1.68,1.19
	c-2.305,1.451-3.344,4.271-2.53,6.87c0.886,2.532,3.041,4.409,5.67,4.94c0.866,0.099,1.717,0.307,2.53,0.62
	c1.48,0.73,2.18,2.43,3.24,3.7c1.93,2.32,5,3.19,7.93,3.95c4.54,5.24,9.26,10.26,13.8,15.5c6.87,7.93,13.9,16,22.86,21.36
	c0.93,0.561,1.88,1.08,2.84,1.561c0,0.16,0,0.319-0.05,0.479c-0.251,1.183-0.1,2.414,0.43,3.5c0.8,1.271,2.45,1.65,3.92,1.91
	l6.78,1.21c-0.06,0.879-0.17,1.754-0.33,2.62c-0.09,0.53-0.2,1.05-0.3,1.58l0,0l-0.12,0.68c0,0,0,0.07,0,0.101
	c0,0.029,0,0.359-0.07,0.55c-0.069,0.189,0,0.13,0,0.189v0.48v0.2c0,0.21,0,0.43,0,0.649c0.23,2.66,2,4.86,3.771,6.891l0.95,1.149
	c-1.508,1.898-2.564,4.114-3.09,6.48c-0.302,1.484-0.449,2.995-0.44,4.51c-0.907,0.865-1.593,1.935-2,3.12
	c-0.474,1.639-0.65,3.349-0.521,5.05v0.12c0,0.63,0,1.25,0,1.88c-0.115,2.39,0.279,4.776,1.16,7c0.09,0.18,0.19,0.34,0.28,0.51
	c-1.5,2.94-4,5.23-5.79,8c-3.709,6.301-3.073,14.25,1.59,19.881c1.37,1.58,3.13,3.1,3.29,5.199c-0.023,0.953-0.117,1.901-0.28,2.841
	c-0.159,2.26,0.881,4.399,1.44,6.59c0.47,1.819,0.49,4-0.55,5.46c-1.052,1.534-1.537,3.387-1.37,5.24
	c0.51,2.83-0.66,5.659-0.86,8.529c-0.09,1.23,0,2.48-0.109,3.71c-0.145,1.179-0.389,2.343-0.73,3.48c0,0.12-0.06,0.25-0.1,0.38
	c-2.47,1.09-4.92,2.22-7.28,3.53c-1.274,0.567-2.328,1.537-3,2.76c-0.398,1.229-0.454,2.542-0.16,3.8l2.13,14.82l-0.369-0.16
	c0.166,2.427,0.34,4.863,0.52,7.311c0.13,1.85,0.3,3.81,1.4,5.289c0.56,0.598,1.064,1.243,1.51,1.931c0.84,1.7-0.16,3.68-0.9,5.42
	s-1,4.21,0.63,5.149c0.851,0.592,1.767,1.082,2.73,1.461c-2,8.34-0.16,17.079,1.7,25.449c1.42,6.4,2.843,12.794,4.27,19.181
	c0.559,2.713,0.873,5.471,0.94,8.239c0,0.4,0,0.801,0,1.2c0.2,3.809,0.872,7.577,2,11.22c2.22,7.48,0.09,16.461,0.79,24.61
	c0.465,3.92,1.248,7.796,2.34,11.59c4.83,19.16,9.14,37.94,10.8,57.641c1.776,2.261,4.185,3.942,6.92,4.83
	c-0.2,2.42,0.07,5.189,0,6.6c-0.003,1.167-0.185,2.328-0.54,3.44c-0.85,2.22-3,3.67-5.229,4.449c-0.7,0.24-1.41,0.431-2.13,0.601
	l0.8-0.681c-4.572-0.993-9.352-0.153-13.311,2.34c-1.256,0.641-2.203,1.757-2.63,3.101c-0.164,1.271,0.165,2.555,0.92,3.59
	c2.202,3.223,5.482,5.553,9.25,6.57c3.724,0.98,7.551,1.514,11.4,1.59l7.06,0.41c-0.495,0.834-0.299,1.905,0.46,2.51
	c0.757,0.553,1.655,0.879,2.591,0.939c2.885,0.429,5.813,0.472,8.71,0.13c0.726-0.021,1.427-0.272,2-0.72
	c0.527-0.479,0.566-1.295,0.088-1.822c-0.028-0.03-0.058-0.06-0.088-0.088c0.866-0.027,1.628-0.583,1.92-1.399
	c0.276-0.813,0.365-1.678,0.26-2.53c-0.19-3.29-0.48-8.07-2.19-11c-0.607-1.096-1.871-1.652-3.09-1.36
	c-1.106-5.855-1.774-11.785-2-17.739c1.762-0.661,3.479-1.437,5.141-2.32c-4.91-7.93-5-18-3.5-27.22
	c0.595-2.911,1.032-5.853,1.31-8.811c0.33-5.899-0.56-12.58-3.83-17.46c5.961,3.791,11.235,8.565,15.6,14.12
	c6.91,9,11.12,19.9,19.591,27.4c1.113-1.087,2.239-2.167,3.38-3.24c1.786,3.026,3.477,6.116,5.069,9.27
	c1.25,2.319,2.236,4.771,2.94,7.311c0.78,3.884,0.871,7.874,0.27,11.79c-0.232,2.08-0.516,4.149-0.85,6.21
	c-0.135,0.881-0.338,1.751-0.609,2.6c-0.004-0.271-0.069-0.537-0.19-0.779c-0.53-0.931-2-0.511-2.8,0.13
	c-1.425,1.069-2.602,2.434-3.45,4c-0.467,0.765-0.684,1.656-0.62,2.55c0.262,1.089,0.995,2.005,2,2.5c3.71,2.17,8.37,0.6,12.35-1
	c1.1-0.396,2.147-0.923,3.12-1.57c2-1.439,3.091-3.81,5.08-5.21c1.063-0.583,2.088-1.23,3.07-1.939c1.85-1.69,2-4.54,3.35-6.681
	c2.24-3.689,7.25-4.64,9.21-8.55C931.72,748.64,929.07,743.19,925.65,740.37z"/>
<path fill="#A1616A" d="M839.44,757.97c-0.006,1.155-0.191,2.302-0.55,3.4c-0.84,2.189-3,3.62-5.22,4.39
	c-2.221,0.771-4.58,1-6.841,1.67c-0.992,0.227-1.911,0.701-2.67,1.38c-2,2-0.8,5.601,1.54,7.091c2.34,1.489,5.32,1.439,8.101,1.25
	c5.898-0.344,11.759-1.177,17.52-2.49c2.08-0.49,4.51-1.45,4.84-3.561c0.063-0.671,0.009-1.347-0.159-2
	c-1.42-7.158-2.173-14.433-2.25-21.729c0-0.48-11.601-0.79-12.681-0.09C838.65,748.87,839.57,755.51,839.44,757.97z"/>
<path fill="#A1616A" d="M891.16,732.5c1.92,3.18,3.724,6.424,5.41,9.73c1.249,2.284,2.235,4.703,2.94,7.21
	c0.774,3.83,0.866,7.768,0.27,11.63c-0.233,2.046-0.52,4.09-0.859,6.13c-0.33,2-0.86,4.27-2.57,5.42
	c1.544,0.915,3.42,1.081,5.1,0.45c1.65-0.639,3.172-1.57,4.49-2.75c8.57-7.07,15-17.34,15.32-28.45
	c0.09-0.868-0.073-1.743-0.471-2.521c-0.403-0.543-0.914-0.999-1.5-1.34c-6.395-4.355-12.334-9.344-17.729-14.89
	c-0.317-0.427-0.779-0.722-1.3-0.83c-0.41,0.002-0.811,0.116-1.16,0.33c-3.29,1.649-8.79,4-10.16,7.75
	C889.877,730.842,890.65,731.584,891.16,732.5z"/>
<path fill="#040530" d="M851.16,769.58c-7.2,3-15,4.08-22.79,5.11c-1,0.119-2.069,0.199-2.729-0.5
	c-0.536-0.669-0.608-1.598-0.18-2.341c0.424-0.721,0.992-1.348,1.67-1.84l5.17-4.33c-4.508-0.956-9.211-0.147-13.141,2.261
	c-1.234,0.615-2.176,1.693-2.62,3c-0.166,1.258,0.164,2.531,0.92,3.55c2.213,3.188,5.488,5.485,9.24,6.479
	c3.723,0.965,7.545,1.492,11.391,1.57l7,0.4c-0.5,0.825-0.297,1.894,0.47,2.479c0.76,0.555,1.661,0.885,2.6,0.95
	c2.883,0.42,5.808,0.46,8.7,0.12c0.727-0.013,1.429-0.262,2-0.71c0.52-0.464,0.564-1.26,0.102-1.779
	c-0.032-0.035-0.066-0.069-0.102-0.101c0.864-0.026,1.625-0.577,1.92-1.391c0.268-0.801,0.356-1.65,0.26-2.49
	c-0.189-3.239-0.479-8-2.189-10.83C857.14,766.36,853.58,768.58,851.16,769.58z"/>
<path fill="#040530" d="M925.47,740.99c-2.281-1.691-4.776-3.074-7.42-4.11c-0.386-0.296-0.938-0.224-1.234,0.162
	c-0.042,0.055-0.078,0.114-0.106,0.178c-4.722,6.409-8.41,13.519-10.93,21.07c-1.43,4.3-2.56,8.88-5.46,12.36
	c-0.38,0.46-1,0.93-1.52,0.659c-0.75-0.38-0.29-1.59-0.71-2.319c-0.521-0.92-1.94-0.5-2.79,0.13c-1.43,1.062-2.604,2.428-3.44,4
	c-0.479,0.745-0.697,1.628-0.62,2.51c0.253,1.069,0.968,1.97,1.95,2.46c3.71,2.15,8.37,0.601,12.34-1
	c1.097-0.387,2.142-0.907,3.11-1.55c2-1.41,3.09-3.76,5.08-5.13c1.062-0.576,2.087-1.218,3.069-1.92c1.841-1.67,2-4.48,3.341-6.601
	c2.239-3.63,7.25-4.569,9.21-8.43C931.53,749.15,928.89,743.77,925.47,740.99z"/>
<path fill="#040530" d="M869.66,541.24c7.86,5.899,11.16,16.39,10.811,26.21c-0.351,9.819-3.8,19.24-7.22,28.45
	c-4.9,13.18-9.794,26.356-14.681,39.529c0.545,1.445,0.882,2.961,1,4.5c0.313,1.549-0.051,3.157-1,4.42c-0.46,0.53-1,0.94-1.5,1.461
	c-1.439,1.6-1.53,4-1.3,6.13s0.72,4.33,0.17,6.409c-0.229,0.891-0.65,1.73-0.81,2.631c-0.228,0.91,0.051,1.872,0.729,2.52
	c1,0.8,3,0.54,3.29,1.8c13.446,11.582,24.722,25.465,33.3,41c3.24,5.83,6.51,12.29,12.561,15.11
	c-5.896,4.67-11.546,9.64-16.931,14.89c-8.449-7.399-12.659-18.17-19.56-27c-4.368-5.491-9.636-10.201-15.58-13.93
	c3.271,4.81,4.16,11.41,3.83,17.22c-0.277,2.919-0.714,5.819-1.31,8.69c-1.551,9.1-1.41,19,3.5,26.859
	c-5.24,2.721-11.261,4.74-17.11,3.931c-3.671-0.522-7.004-2.425-9.32-5.32c-1.66-19.44-6-38-10.79-56.87
	c-1.098-3.765-1.877-7.614-2.33-11.51c-0.7-8,1.431-16.9-0.8-24.28c-1.123-3.589-1.795-7.305-2-11.06c0-0.4,0-0.79,0-1.19
	c-0.068-2.729-0.383-5.447-0.939-8.12l-4.261-18.92c-1.859-8.27-3.72-16.89-1.71-25.12c-0.958-0.37-1.871-0.85-2.72-1.43
	c-1.63-0.93-1.37-3.36-0.63-5.08s1.729-3.67,0.9-5.35c-0.443-0.683-0.949-1.322-1.511-1.91c-1.1-1.46-1.27-3.391-1.399-5.21
	l-0.521-7.22c3.019,1.196,5.533,3.396,7.12,6.229c-3.94-6.1-2-14.8,0.91-21.46c1.11-4.189,4.847-7.148,9.18-7.27
	C837.06,538.24,856.64,531.45,869.66,541.24z"/>
<path opacity="0.1" enable-background="new    " d="M862.35,582.3c0,0-7.88,5.26-7.88,9.2s-2,39.4-2,39.4v25c0,0,1.31,13.14,0,16.42
	c-1.311,3.279,0,18.39,0,20.359c0,1.971,2-20.359,2-20.359V648.64l2-53.859L862.35,582.3z"/>
<path fill="#A1616A" d="M818.4,400.16l-4.59-1.79c-9.38-3.761-18.771-7.53-27.85-11.94c-6.601-3.21-13.29-7-17.4-13.05
	c-1.32-2-2.34-4.1-3.65-6.07c-1.505-2.107-3.177-4.09-5-5.93l-12.26-13.1c-0.94,1.75,0.26,3.81,1.22,5.54
	c1.005,1.824,1.768,3.77,2.271,5.79c0.235,0.651,0.211,1.368-0.07,2c-0.441,0.535-1.018,0.943-1.67,1.18
	c-2.297,1.408-3.341,4.2-2.53,6.77c0.894,2.512,3.044,4.367,5.66,4.88c0.865,0.1,1.715,0.305,2.53,0.61
	c1.479,0.73,2.18,2.4,3.24,3.65c1.93,2.29,5,3.16,7.92,3.9c4.54,5.17,9.25,10.12,13.79,15.29c6.859,7.82,13.88,15.78,22.84,21.08
	c3.182,1.945,6.666,3.345,10.31,4.141C814.365,415.347,816.116,407.678,818.4,400.16z"/>
<path opacity="0.15" enable-background="new    " d="M818.4,400.16l-4.59-1.79c-9.38-3.761-18.771-7.53-27.85-11.94
	c-6.601-3.21-13.29-7-17.4-13.05c-1.32-2-2.34-4.1-3.65-6.07c-1.505-2.107-3.177-4.09-5-5.93l-12.26-13.1
	c-0.94,1.75,0.26,3.81,1.22,5.54c1.005,1.824,1.768,3.77,2.271,5.79c0.235,0.651,0.211,1.368-0.07,2
	c-0.441,0.535-1.018,0.943-1.67,1.18c-2.297,1.408-3.341,4.2-2.53,6.77c0.894,2.512,3.044,4.367,5.66,4.88
	c0.865,0.1,1.715,0.305,2.53,0.61c1.479,0.73,2.18,2.4,3.24,3.65c1.93,2.29,5,3.16,7.92,3.9c4.54,5.17,9.25,10.12,13.79,15.29
	c6.859,7.82,13.88,15.78,22.84,21.08c3.182,1.945,6.666,3.345,10.31,4.141C814.365,415.347,816.116,407.678,818.4,400.16z"/>
<path fill="#AF0707" d="M810.001,426.27c-1.471-0.26-3.12-0.619-3.921-1.88c-0.529-1.068-0.681-2.284-0.43-3.449
	c0.796-7.537,2.474-14.955,5-22.101c2.23,4.13,6.62,6.54,10.78,8.71c3.714,2.064,7.586,3.83,11.58,5.28c-1-0.32-3.45,15.06-4.83,16
	c-1.74,1.22-5.94-0.43-7.87-0.76L810.001,426.27z"/>
<circle fill="#A1616A" cx="820.65" cy="400.71" r="21.02"/>
<path fill="#FBBEBE" d="M816.381,418.11c0,0,13.79,11.819,7.88,19.699c-5.91,7.881-9.2,13.141-1.32,13.801
	c7.88,0.659,34.15-13.141,34.15-13.141s-24.301-19.7-20.36-31.52C840.671,395.13,816.381,418.11,816.381,418.11z"/>
<path fill="#AF0707" d="M829.61,436.61c-5.994,1.439-10.664,6.137-12.07,12.14c-1.55,7.08,1.74,15-1.359,21.52
	c-1.46,3.101-4.17,5.421-6,8.33c-3.693,6.209-3.06,14.073,1.58,19.61c1.37,1.56,3.13,3.07,3.29,5.13
	c-0.023,0.939-0.117,1.875-0.28,2.8c-0.16,2.23,0.88,4.351,1.439,6.511c0.471,1.79,0.49,3.939-0.55,5.38
	c-1.049,1.509-1.53,3.34-1.359,5.17c0.5,2.8-0.67,5.59-0.87,8.42c-0.09,1.22,0,2.439-0.11,3.66c-0.146,1.161-0.386,2.308-0.72,3.43
	l-1.76,6.49c9.54,4.08,19.68,5.55,30,5.359c9.239-0.18,18.35-2.09,27.39-4c2.75-0.58,5.5-1.159,8.21-1.909
	c-5.72-7.48-6.33-17.391-6.49-26.801c-0.249-15.688-1.421-31.349-3.51-46.899c2.771-5.23,4-11.061,5.141-16.87
	c0.512-2.341,0.727-4.736,0.64-7.13c-0.28-5-2.58-9.75-4.83-14.28c-2.06-4.14-4.29-8.5-8.88-10.29
	c-2.253-0.949-4.837-0.666-6.83,0.75c-3.47,2.62-2.44,7.14-3.33,11c-1.17,5-5.78,8.59-10.69,10c-3.664,0.96-7.461,1.315-11.239,1.05
	c-1.104-0.063-1.946-1.008-1.883-2.11c0.024-0.43,0.187-0.84,0.463-1.169C826.61,440.12,828.23,438.31,829.61,436.61z"/>
<path fill="#A1616A" d="M845.89,517.86c-7.78,6.359-15.65,12.779-24.63,17.279c-5.271,2.641-10.87,4.591-16,7.431
	c-1.269,0.557-2.321,1.512-3,2.72c-0.409,1.209-0.464,2.51-0.16,3.75l2.28,15.72c0.63,4.26,4.72,7,8,9.72
	c-0.181-1.43-0.471-2.54,0.21-3.81c0.235-0.396,0.492-0.781,0.77-1.15c1.4-2.119,1.45-4.869,1.11-7.39s-1-5-0.87-7.58
	c-0.058-0.868,0.345-1.703,1.06-2.2c11.17-5.37,23.2-9.49,34.49-14.59c2.987-1.207,5.802-2.805,8.37-4.75
	c2.581-1.979,4.317-4.863,4.86-8.07c0.104-0.42,0.032-0.864-0.2-1.229c-0.227-0.249-0.523-0.423-0.851-0.5
	C856.27,521.37,850.93,519.68,845.89,517.86z"/>
<path opacity="0.1" enable-background="new    " d="M824.28,451.9c-3.859,0.649-7.92,2.649-9.229,6.35
	c-0.472,1.622-0.647,3.315-0.521,5c-0.12,2.367,0.279,4.732,1.17,6.93c0.658,1.213,1.442,2.353,2.34,3.4
	c9.24,11.84,13.881,26.71,22.881,38.74c0.8,1.06,2.26,2.439,1.81,3.689c-0.163,0.324-0.308,0.658-0.43,1
	c-0.083,0.657,0.164,1.313,0.659,1.75c0.48,0.44,0.854,0.984,1.091,1.59c0.17,0.631-0.25,1.45-0.9,1.4
	c1.08,3.34,4.39,5.29,7.53,6.87c5.22,2.63,11,4.7,16.81,4.13c1.09-4.37,2.61-9.31,2-13.76c-0.638-3.398-1.767-6.687-3.35-9.76
	l-3.91-8.54c-3.33-7.29-6.69-14.63-11.33-21.16c-1.672-2.067-3.079-4.335-4.189-6.75c-1.19-3.09-4.46-5.26-6.44-7.91
	c-2.94-4-6-8-9.94-10.89C828.751,452.76,826.21,451.58,824.28,451.9z"/>
<path fill="#AF0707" d="M824.28,449.93c-3.859,0.65-7.92,2.65-9.229,6.34c-0.47,1.623-0.646,3.316-0.521,5
	c-0.12,2.368,0.279,4.733,1.17,6.931c0.658,1.213,1.442,2.353,2.34,3.399c9.24,11.841,13.881,26.711,22.881,38.74
	c0.8,1.061,2.26,2.44,1.81,3.69c-0.163,0.324-0.308,0.658-0.43,1c-0.083,0.656,0.164,1.312,0.659,1.75
	c0.48,0.439,0.854,0.983,1.091,1.59c0.17,0.63-0.25,1.45-0.9,1.4c1.08,3.34,4.39,5.29,7.53,6.869c5.22,2.631,11,4.7,16.81,4.131
	c1.09-4.37,2.61-9.311,2-13.761c-0.638-3.398-1.767-6.686-3.35-9.76l-3.91-8.54c-3.33-7.29-6.69-14.63-11.33-21.16
	c-1.674-2.069-3.081-4.34-4.189-6.76c-1.19-3.08-4.46-5.25-6.44-7.9c-2.94-4-6-8-9.94-10.89
	C828.751,450.79,826.21,449.61,824.28,449.93z"/>
<path fill="#040530" d="M815.47,366.18c-2.79,0.24-5.66,0.5-8.181,1.72c-2.52,1.22-4.67,3.62-4.75,6.42
	c0,1.63,0.601,3.25,0.391,4.86c-0.351,2.68-2.84,4.49-4.12,6.86c-2.24,4.12-0.5,9.36,2.4,13c2.899,3.64,6.829,6.44,9.81,10.06
	c4.757,5.857,6.734,13.491,5.42,20.92c-0.37,1.427-0.548,2.896-0.53,4.37c0.23,2.62,2,4.79,3.761,6.79
	c8.562,10.012,16.483,20.553,23.72,31.561c2.171,3.197,4.122,6.538,5.84,10c1.7,3.58,3,7.399,5.36,10.569
	c2.179,2.723,4.848,5.012,7.869,6.75c7.623,4.701,16.269,7.49,25.2,8.131l-5.149-12.771c-0.91-2.27-1.851-4.66-1.551-7.09
	c0.57-4.6,5.211-7.62,6.721-12c1-2.82,0.55-5.93-0.271-8.8c-1.819-6.471-5.46-12.29-7.42-18.721
	c-1.719-5.638-2.102-11.598-1.12-17.409c0.431-2.561,1.13-5.131,0.811-7.7c-0.95-7.82-10.12-11.561-14.36-18.19
	c-2.74-4.26-3.27-9.51-4.189-14.49c-1.33-7.27-3.7-14.53-8.28-20.33s-11.641-10-19-9.69c-3.94,0.15-7.71,1.52-11.42,2.86
	l-9.641,3.51"/>
<g opacity="0.1">
	<path d="M858.501,382.51c0.829,4.49,1.35,9.2,3.449,13.211c-0.29-1.561-0.529-3.131-0.819-4.671c-0.68-3.92-1.759-7.76-3.221-11.46
		C858.16,380.56,858.33,381.53,858.501,382.51z"/>
	<path d="M876.24,422.89c-0.977,5.815-0.593,11.778,1.12,17.42c0.47,1.53,1,3,1.641,4.5c-0.833-4.417-0.877-8.947-0.131-13.38
		c0.431-2.56,1.131-5.13,0.811-7.699c-0.295-2.202-1.194-4.279-2.601-6C876.93,419.47,876.53,421.18,876.24,422.89z"/>
	<path d="M887.41,467.56c-0.554-1.879-1.222-3.722-2-5.52c0.337,1.93,0.206,3.911-0.38,5.78c-1.51,4.37-6.16,7.399-6.72,12
		c-0.3,2.43,0.63,4.819,1.55,7.09c0.34,0.85,0.68,1.71,1,2.56c-0.024-0.369-0.024-0.74,0-1.109c0.57-4.601,5.21-7.62,6.72-12
		C888.66,473.54,888.23,470.43,887.41,467.56z"/>
	<path d="M859.841,491.55c-3.021-1.743-5.691-4.036-7.87-6.76c-2.37-3.17-3.67-7-5.37-10.57c-1.715-3.463-3.667-6.804-5.84-10
		c-7.233-11.01-15.152-21.554-23.71-31.569c-0.311-0.351-0.61-0.71-0.91-1.07c-0.206,0.925-0.284,1.874-0.23,2.82
		c0.23,2.619,2,4.79,3.761,6.79c8.562,10.011,16.483,20.552,23.72,31.56c2.171,3.197,4.122,6.538,5.84,10c1.7,3.58,3,7.4,5.36,10.57
		c2.179,2.722,4.848,5.011,7.869,6.75c7.623,4.7,16.269,7.489,25.2,8.13l-3.5-8.601C875.538,498.845,867.211,496.089,859.841,491.55
		z"/>
	<path d="M808.39,400.6c-3-3.619-6.91-6.369-9.811-10.05c-0.26-0.34-0.51-0.69-0.76-1.06c-0.06,3.5,1.144,6.904,3.39,9.59
		c2.9,3.689,6.83,6.439,9.811,10.06c1.163,1.406,2.169,2.936,3,4.561C813.401,408.894,811.451,404.356,808.39,400.6z"/>
</g>
<path fill="#AF0707" d="M418.04,297.95l-7.25-7.29c-1.496-1.511-3.934-1.522-5.444-0.025c-0.009,0.008-0.017,0.017-0.025,0.025
	l-45.53,45.11l-19.26-19.4c-1.499-1.5-3.931-1.5-5.43,0l-7.33,7.25c-1.498,1.516-1.498,3.955,0,5.47l29.25,29.47
	c1.512,1.497,3.948,1.497,5.46,0l55.56-55.14c1.511-1.497,1.522-3.934,0.025-5.444C418.057,297.967,418.049,297.958,418.04,297.95z"
	/>
<path fill="#AF0707" d="M619.04,297.95l-7.25-7.29c-1.496-1.511-3.934-1.522-5.444-0.025c-0.009,0.008-0.017,0.017-0.025,0.025
	l-45.53,45.11l-19.26-19.4c-1.499-1.5-3.931-1.5-5.43,0l-7.33,7.25c-1.498,1.516-1.498,3.955,0,5.47l29.25,29.47
	c1.512,1.497,3.948,1.497,5.46,0l55.56-55.14c1.511-1.497,1.522-3.934,0.025-5.444C619.057,297.967,619.049,297.958,619.04,297.95z"
	/>
</svg>
