<?xml version="1.0" encoding="utf-8"?>
<!-- Generator: Adobe Illustrator 16.0.0, SVG Export Plug-In . SVG Version: 6.00 Build 0)  -->
<!DOCTYPE svg PUBLIC "-//W3C//DTD SVG 1.1//EN" "http://www.w3.org/Graphics/SVG/1.1/DTD/svg11.dtd">
<svg version="1.1" id="adf35c87-b782-4e77-99e1-73b1e980183a"
	 xmlns="http://www.w3.org/2000/svg" xmlns:xlink="http://www.w3.org/1999/xlink" x="0px" y="0px" width="1130px" height="814.83px"
	 viewBox="0 0 1130 814.83" enable-background="new 0 0 1130 814.83" xml:space="preserve">
<title>email campaign</title>
<path opacity="0.1" fill="#0B75CE" enable-background="new    " d="M656.539,126.55C584.1,124.04,515.1,100.65,449.22,75.06
	C383.34,49.47,318.07,21.13,247.37,7.57C201.89-1.15,149.88-2.38,113.24,22C78,45.42,66.58,85.97,60.46,123.55
	c-4.61,28.27-7.32,58,5.3,84.5c8.77,18.38,24.34,33.83,35.11,51.43c37.449,61.25,11,136.79-29.62,196.59
	c-19,28.06-41.13,54.819-55.82,84.68s-21.49,64.09-8.64,94.55c12.75,30.2,43.109,52.88,76,68.83
	c66.81,32.4,145.54,41.68,222.31,46.93c169.939,11.62,340.79,6.591,511.18,1.551c63.061-1.87,126.391-3.761,188.43-13.511
	c34.44-5.409,70-14,95-34.75c31.75-26.34,39.62-70.939,18.341-104c-35.681-55.39-134.351-69.149-159.29-128.6
	c-13.73-32.72,0.37-69.18,20.319-99.52c42.801-65.11,114.54-122.23,118.32-196.64c2.6-51.11-31.89-102.3-85.21-126.48
	c-55.9-25.35-133.4-22.16-174.64,19.8C795.119,112.15,720.5,128.77,656.539,126.55z"/>
<g opacity="0.9">
	<path fill="#040530" d="M726.56,238.91h5.33c1.265,0,2.29,1.025,2.29,2.29v77.15c0,1.265-1.025,2.29-2.29,2.29h-5.33
		c-1.265,0-2.29-1.025-2.29-2.29V241.2C724.27,239.936,725.295,238.91,726.56,238.91z"/>
	<path fill="#040530" d="M396.99,174.88h0.98c1.265,0,2.29,1.025,2.29,2.29v22.33c0,1.265-1.025,2.29-2.29,2.29h-0.98
		c-1.265,0-2.29-1.025-2.29-2.29v-22.33C394.699,175.905,395.725,174.88,396.99,174.88z"/>
	<path fill="#040530" d="M396.789,224.14h1.69c1.265,0,2.29,1.025,2.29,2.29v42.26c0,1.265-1.025,2.29-2.29,2.29h-1.69
		c-1.265,0-2.289-1.025-2.289-2.29v-42.26C394.5,225.165,395.525,224.14,396.789,224.14z"/>
	<path fill="#040530" d="M396.89,287.36h1.39c1.265,0,2.29,1.025,2.29,2.29v42.66c0,1.265-1.025,2.29-2.29,2.29h-1.39
		c-1.265,0-2.29-1.025-2.29-2.29v-42.66C394.6,288.385,395.625,287.36,396.89,287.36z"/>
	<path fill="#040530" d="M436.84,85.95h253.79c21.533,0,38.989,17.456,38.989,38.99V721.23c0,21.533-17.456,38.989-38.989,38.989
		H436.84c-21.534,0-38.99-17.456-38.99-38.989V124.94C397.85,103.406,415.306,85.95,436.84,85.95z"/>
	<path fill="#E6E8EC" d="M535.6,106.09h38.59c2.138,0,3.87,1.733,3.87,3.87v1.67c0,2.138-1.732,3.87-3.87,3.87H535.6
		c-2.138,0-3.87-1.732-3.87-3.87v-1.67C531.73,107.823,533.462,106.09,535.6,106.09z"/>
	<circle fill="#E6E8EC" cx="590.4" cy="110.79" r="5.34"/>
</g>
<path opacity="0.5" fill="#0B75CE" enable-background="new    " d="M682.78,103.52h-38v4.58c0,11.979-9.711,21.69-21.689,21.69
	c-0.004,0-0.007,0-0.011,0H502c-11.981,0-21.695-9.709-21.7-21.69v-4.58h-35.61c-14.553,0-26.35,11.797-26.35,26.35l0,0V716.31
	c0,14.553,11.797,26.351,26.35,26.351h238.09c14.553,0,26.351-11.798,26.351-26.351V129.87
	C709.13,115.317,697.332,103.52,682.78,103.52z"/>
<rect x="418.579" y="148.47" fill="#E6E8EC" width="291.021" height="26.86"/>
<rect x="427.539" y="154.06" fill="#040530" width="24.631" height="2.24"/>
<rect x="427.539" y="160.78" fill="#040530" width="24.631" height="2.24"/>
<rect x="427.539" y="167.5" fill="#040530" width="24.631" height="2.24"/>
<path fill="#040530" d="M690,164.49h-0.91l-0.351-0.28c1.148-1.375,1.778-3.109,1.78-4.9c-0.027-4.109-3.381-7.417-7.49-7.39
	c-4.108,0.027-7.417,3.381-7.39,7.49c0.028,4.105,3.375,7.412,7.479,7.39c1.786-0.011,3.512-0.644,4.881-1.79l0.34,0.29v0.92
	l5.74,5.76l1.72-1.73L690,164.49z M683.119,164.49c-2.86,0.011-5.188-2.299-5.199-5.16c-0.012-2.861,2.299-5.189,5.159-5.2
	c2.861-0.011,5.189,2.299,5.2,5.16c0,0.007,0,0.013,0,0.02c0.017,2.844-2.275,5.163-5.12,5.18
	C683.147,164.49,683.133,164.49,683.119,164.49z"/>
<circle fill="#E6E8EC" cx="439.85" cy="224.58" r="12.31"/>
<rect x="478.47" y="236.89" fill="#E6E8EC" width="171.26" height="6.72"/>
<rect x="479.03" y="251.44" fill="#E6E8EC" width="171.26" height="6.72"/>
<rect x="479.59" y="266" fill="#E6E8EC" width="171.26" height="6.72"/>
<circle fill="#E6E8EC" cx="439.85" cy="308.53" r="12.31"/>
<rect x="478.47" y="320.84" fill="#E6E8EC" width="171.26" height="6.72"/>
<rect x="479.03" y="335.39" fill="#E6E8EC" width="171.26" height="6.72"/>
<rect x="479.59" y="349.94" fill="#E6E8EC" width="171.26" height="6.72"/>
<circle fill="#E6E8EC" cx="439.85" cy="392.48" r="12.31"/>
<rect x="478.47" y="404.79" fill="#E6E8EC" width="171.26" height="6.72"/>
<rect x="479.03" y="419.34" fill="#E6E8EC" width="171.26" height="6.72"/>
<rect x="479.59" y="433.89" fill="#E6E8EC" width="171.26" height="6.721"/>
<circle fill="#E6E8EC" cx="439.85" cy="476.43" r="12.31"/>
<rect x="478.47" y="488.74" fill="#E6E8EC" width="171.26" height="6.72"/>
<rect x="479.03" y="503.29" fill="#E6E8EC" width="171.26" height="6.72"/>
<rect x="479.59" y="517.84" fill="#E6E8EC" width="171.26" height="6.72"/>
<circle fill="#E6E8EC" cx="439.85" cy="560.38" r="12.31"/>
<rect x="478.47" y="572.69" fill="#E6E8EC" width="171.26" height="6.72"/>
<rect x="479.03" y="587.24" fill="#E6E8EC" width="171.26" height="6.72"/>
<rect x="479.59" y="601.79" fill="#E6E8EC" width="171.26" height="6.72"/>
<circle fill="#E6E8EC" cx="439.85" cy="644.33" r="12.31"/>
<rect x="478.47" y="656.64" fill="#E6E8EC" width="171.26" height="6.721"/>
<rect x="479.03" y="671.19" fill="#E6E8EC" width="171.26" height="6.72"/>
<rect x="479.59" y="685.74" fill="#E6E8EC" width="171.26" height="6.72"/>
<circle opacity="0.1" enable-background="new    " cx="650.28" cy="692.46" r="31.34"/>
<circle fill="#AF0707" cx="650.28" cy="692.46" r="27.98"/>
<path fill="#040530" d="M314.09,115.85l-54.73,29.57c-0.54,0.323-0.716,1.023-0.393,1.563c0.112,0.188,0.276,0.339,0.473,0.437
	l9.34,3.51c0.543,0.211,0.983,0.623,1.23,1.15l7.25,14.94c0.14,0.66,1.36,0.83,1.37,0.16l-1.11-12.34c0.066-0.917,0.416-1.79,1-2.5
	l28.38-27.8c0.165-0.157,0.396-0.225,0.62-0.18c0.345,0.1,0.544,0.46,0.444,0.805c-0.021,0.07-0.053,0.136-0.095,0.195
	l-24.459,30.06c-0.531,0.725-0.875,1.57-1,2.46L281,168.54c0.12,0.93,0.85,1.28,1.43,0.45l5.271-6.19
	c0.347-0.498,1.032-0.621,1.531-0.273c0.006,0.004,0.012,0.009,0.019,0.013l13.58,9.9c0.489,0.36,1.178,0.255,1.537-0.235
	c0.096-0.129,0.161-0.278,0.192-0.435l11.14-54.69c0.138-0.598-0.235-1.193-0.833-1.33c-0.26-0.06-0.531-0.024-0.767,0.1H314.09z"/>
<path fill="#040530" d="M892,127.47l-54.73,29.61c-0.539,0.326-0.711,1.026-0.386,1.565c0.113,0.188,0.278,0.338,0.476,0.435
	l9.33,3.52c0.548,0.202,0.991,0.617,1.23,1.15l7.26,14.93c0.14,0.66,1.35,0.84,1.37,0.17l-1.11-12.35
	c0.064-0.914,0.414-1.785,1-2.49l28.37-27.8c0.163-0.161,0.396-0.228,0.62-0.18c0.346,0.095,0.55,0.453,0.454,0.799
	c-0.02,0.072-0.052,0.14-0.095,0.201l-24.47,29.92c-0.531,0.728-0.875,1.577-1,2.47l-1.47,10.66c0.12,0.93,0.85,1.29,1.44,0.45
	l5.27-6.18c0.348-0.499,1.033-0.621,1.531-0.273c0.007,0.004,0.013,0.009,0.019,0.013l13.58,9.89
	c0.483,0.359,1.166,0.257,1.525-0.226c0.098-0.131,0.164-0.283,0.194-0.444l11.141-54.69c0.137-0.598-0.236-1.193-0.834-1.33
	c-0.259-0.06-0.531-0.024-0.767,0.1L892,127.47z"/>
<path fill="#040530" d="M554.26,19.13l-37.37,20.21c-0.38,0.203-0.523,0.676-0.32,1.056c0.082,0.153,0.212,0.274,0.37,0.345
	l6.38,2.4c0.371,0.141,0.672,0.421,0.84,0.78l5,10.2c0.101,0.45,0.931,0.57,0.94,0.12l-0.76-8.44c0.048-0.623,0.285-1.216,0.68-1.7
	l19.38-19c0.111-0.108,0.269-0.153,0.42-0.12c0.237,0.054,0.385,0.291,0.331,0.527c-0.016,0.067-0.047,0.129-0.091,0.183
	l-16.7,20.43c-0.351,0.499-0.573,1.075-0.65,1.68l-1,7.28c0.08,0.64,0.57,0.88,1,0.31l3.601-4.22c0.235-0.311,0.671-0.389,1-0.18
	l9.27,6.76c0.334,0.245,0.804,0.173,1.049-0.16c0.065-0.089,0.11-0.191,0.132-0.3l7.609-37.34c0.102-0.402-0.142-0.81-0.543-0.911
	c-0.185-0.046-0.38-0.021-0.547,0.071L554.26,19.13z"/>
<path fill="#040530" d="M766.93,0.1l-37.37,20.22c-0.377,0.209-0.513,0.684-0.305,1.061c0.08,0.145,0.204,0.26,0.354,0.33l6.38,2.4
	c0.374,0.142,0.676,0.426,0.84,0.79l4.95,10.19c0.101,0.45,0.931,0.57,0.94,0.12L742,26.78c0.046-0.626,0.283-1.223,0.68-1.71
	l19.38-19c0.11-0.108,0.269-0.153,0.42-0.12c0.237,0.054,0.385,0.29,0.33,0.527c-0.015,0.067-0.046,0.129-0.09,0.183L746,27.11
	c-0.351,0.499-0.574,1.076-0.65,1.68l-1,7.29c0.08,0.63,0.58,0.87,1,0.3l3.6-4.22c0.238-0.339,0.706-0.422,1.045-0.184
	c0.002,0.001,0.004,0.002,0.005,0.004l9.28,6.76c0.328,0.244,0.792,0.176,1.036-0.151c0.067-0.091,0.113-0.197,0.134-0.309L768,0.94
	c0.101-0.401-0.143-0.809-0.544-0.911c-0.185-0.047-0.38-0.021-0.547,0.071H766.93z"/>
<path fill="#040530" d="M909.05,259.82l-110.32-9.11c-1.099-0.116-2.083,0.68-2.199,1.778c-0.051,0.474,0.07,0.949,0.339,1.342
	l10.49,14.32c0.617,0.836,0.876,1.883,0.72,2.91l-3.72,29.3c-0.43,1.11,1.21,2.56,1.88,1.58l10.36-19.52
	c0.985-1.299,2.353-2.257,3.91-2.74l69.3-13.82c0.396-0.075,0.803,0.048,1.09,0.33c0.44,0.465,0.421,1.199-0.044,1.64
	c-0.124,0.118-0.273,0.207-0.436,0.26l-65.53,20.83c-1.48,0.588-2.796,1.528-3.83,2.74l-12.55,14.46c-0.721,1.51,0,2.74,1.7,2.07
	l13.869-4.09c1.017-0.384,2.152,0.114,2.561,1.12l10.6,27.94c0.423,1.021,1.593,1.505,2.613,1.082
	c0.229-0.095,0.438-0.231,0.617-0.402l69.77-70.63c0.775-0.787,0.767-2.053-0.021-2.828
	C909.903,260.07,909.491,259.872,909.05,259.82z"/>
<linearGradient id="SVGID_1_" gradientUnits="userSpaceOnUse" x1="970.2795" y1="-11.7363" x2="970.2795" y2="485.4048" gradientTransform="matrix(-1 0 0 -1 1679.8013 796.3047)">
	<stop  offset="0" style="stop-color:#808080;stop-opacity:0.25"/>
	<stop  offset="0.54" style="stop-color:#808080;stop-opacity:0.12"/>
	<stop  offset="1" style="stop-color:#808080;stop-opacity:0.1"/>
</linearGradient>
<path fill="url(#SVGID_1_)" d="M611.659,371.08c1.056,1.448,2.323,2.729,3.761,3.8c0.93,0.77,1.89,1.56,2.89,2.26
	c0.28,0.2,0.57,0.39,0.86,0.58c0,0.05-0.061,0.1-0.08,0.16c-0.232,0.424-0.324,0.911-0.261,1.39c0.202,0.578,0.575,1.081,1.07,1.44
	c2.342,2.161,3.923,5.019,4.51,8.15c0.341,1.81-0.88,3.75-0.8,5.59c0.179,1.807,0.659,3.571,1.42,5.22
	c1.53,3.88,3.15,7.91,6.2,10.74c0.726,6.233,3.128,12.152,6.95,17.13c3.22,4.11,7.5,7.229,11.729,10.28
	c1.337,1.065,2.789,1.979,4.33,2.72c1.393,0.513,2.828,0.897,4.29,1.15c12.418,2.496,25.028,3.921,37.69,4.26
	c0.354,7.533,0.507,15.063,0.46,22.59c0.071,1.239-0.105,2.48-0.521,3.65c-0.605,1.101-1.337,2.127-2.18,3.06
	c-2.89,3.84-3,9.06-2.8,13.87c0.295,5.631,0.964,11.237,2,16.78c1.31,7.1,0.109,14.939,2.63,21.699c1,2.67,2,5.33,3,8
	c0.333,0.75,0.532,1.552,0.59,2.37c0,1.75-1.16,3.24-2,4.761c-1.241,2.216-1.848,4.731-1.75,7.27
	c-0.008,0.284,0.065,0.565,0.21,0.811c0.33,0.439,1,0.399,1.54,0.319c2.215-0.321,4.444-0.528,6.68-0.62
	c-0.4,0.501-0.762,1.033-1.079,1.59c-0.541,0.939-1.016,1.915-1.421,2.921c-0.807,1.671-1.443,3.42-1.899,5.22
	c-0.081,0.262-0.145,0.529-0.19,0.8c-0.12,0.54-0.229,1.09-0.319,1.63c-0.482,3.176-0.68,6.389-0.591,9.6
	c-0.31,6-0.609,12.24-1.189,14.061c-0.82,2.59,0.2,6.729,1.21,10.68c0.049,2.728,0.538,5.43,1.45,8c0.084,2.838,0.419,5.662,1,8.44
	c3.46,19.493,7.126,38.939,11,58.34c0.35,1.69,0.68,3.37,1.13,5c1.459,5.396,4.008,10.437,7.49,14.81
	c3.058,3.875,5.68,8.073,7.819,12.521c-0.229,1.06-0.47,2.12-0.72,3.17c-2.2,9.29-5.11,18.45-6.12,27.94
	c-0.399,3.779-0.52,7.68-2,11.17c-0.76,1.779-1.88,3.479-2,5.409c-0.09,1.228,0.2,2.453,0.83,3.511c-0.26,0.189-0.51,0.39-0.75,0.59
	l-0.41,0.34c-2.84,2.26-6.649,2.72-10.149,3.63s-7.271,2.76-8.351,6.24c-0.07,0.22-0.127,0.443-0.17,0.67c-0.64,3.2,1.3,6.6,4,8.479
	c2.91,2,6.53,2.62,10,3.07s7.12,0.8,10.29,2.36c2.74,1.359,5.05,3.59,8,4.569l0.51,0.15c-0.649,0.391-1.31,0.771-2,1.12
	c-3.006,1.53-6.247,2.544-9.59,3c-3.38,0.47-7.42,0.69-9.16,3.64l0,0c-1.42,2.44-0.39,5.73,1.66,7.65s4.891,2.78,7.641,3.38
	c6.271,1.223,12.619,2.011,19,2.36l6.21,0.47c6,0.46,12.12,0.93,18.199,1c7.504,0.021,14.994-0.632,22.381-1.95
	c0.688-0.022,1.334-0.335,1.779-0.859c0.226-0.438,0.319-0.931,0.271-1.42c-0.16-7.599-1.112-15.159-2.84-22.561
	c-0.511-2.22-3.54,0.81-5.24,2.73c-0.221-1.11-0.48-2.211-0.771-3.28l1.33-0.63c1.016-0.372,1.876-1.077,2.44-2
	c0.277-0.751,0.366-1.558,0.26-2.351c-0.24-4.88-0.54-9.939-2.86-14.229c-1.534-2.564-3.442-4.887-5.659-6.891
	c-0.69-15.33-2.19-30.68-5.54-45.64c-1.721-7.65-3.851-15.38-8.271-21.85c-0.55-0.811-1.15-1.62-1.75-2.431
	c-0.478-7.354-1.369-14.676-2.67-21.93c-0.255-0.957-0.255-1.963,0-2.92c0.42-0.818,0.963-1.566,1.61-2.22
	c2.659-3.431,1.569-8.311,1.26-12.65c-0.44-6.24,1-12.42,2.49-18.5c1.813-7.493,3.616-14.99,5.409-22.49
	c0.446-2.129,1.082-4.214,1.9-6.229c1.26-2.82,3.21-5.26,4.88-7.86c5.04-7.957,7.415-17.313,6.78-26.71c1,0.36,2,0.73,3.06,1.13
	c0.75-6.28-1.899-13.41,0-19.31c3.256-2.373,5.885-5.504,7.66-9.12c1.48-3.32,1.9-7.06,3.45-10.35c0.88-1.851,2.11-3.561,2.62-5.551
	c0.77-3-0.19-6.12-0.15-9.189c0.101-6.69,5-12.9,3.9-19.51c-0.5-3.141-2.32-6-2.22-9.23c0.146-1.728,0.582-3.417,1.29-5
	c3.68-9.75,7.31-20.13,5.42-30.39c-0.48-2.62-1.33-5.23-1.19-7.9c0.16-3.05,1.61-6,1.18-9.05c-0.176-1.155-0.645-2.246-1.359-3.17
	c1.318-2.028,2.44-4.179,3.35-6.42c0.609-1.28,0.914-2.684,0.891-4.101c-0.263-1.951-1.306-3.712-2.891-4.88
	c-1.566-1.133-3.241-2.107-5-2.91c-0.563-0.235-1.064-0.594-1.47-1.05c-0.32-0.503-0.598-1.031-0.83-1.58
	c-1-1.71-3.13-2.25-4.82-3.279c-6.1-3.721-5.51-13.311-10.72-18.221c-3.639-3.241-9.038-3.528-13-0.69
	c-0.496,0.498-1.144,0.818-1.84,0.91c-0.679-0.151-1.298-0.499-1.78-1c-1.294-0.875-2.84-1.304-4.399-1.22
	c-0.982-3.809-1.427-7.737-1.32-11.67h0.47c0.614,0.021,1.228-0.05,1.82-0.21c2.68-0.77,4.21-3.54,5.3-6.12
	c0.954-2.177,1.739-4.423,2.35-6.72c0.061-0.22,0.11-0.44,0.16-0.65c5.13,3.6,11.09,7.37,12.51,6.58
	c2.631-1.45-11.75-11.68-11.75-11.68l0,0l0,0c1.69-1.5,2.631-4.21,3-6.6c0.841-4.77,1.24-9.73,0.12-14.45
	c-1.12-4.72-3.95-9.21-8.25-11.41c-1.899-1-4.21-1.66-5.59-3.17l0,0c-0.211-0.223-0.393-0.471-0.54-0.74l0,0
	c-0.089-0.121-0.162-0.252-0.22-0.39c-0.151-0.416-0.353-0.813-0.601-1.18c-0.789-0.91-2.22-0.63-3.409-0.49h-0.38h-0.33h-0.32
	c-4.26,0.09-8.39-2.29-12.7-2.29c-4.729,0-8.75,2.74-12.91,4.62c-0.84,0.38-1.64,0.73-2.39,1.08c-2.6,1.22-4.65,2.52-6,5.45
	c-0.821,0.972-1.413,2.118-1.73,3.35c-0.136,0.563-0.21,1.14-0.22,1.72c-11.228,11.118-11.316,29.232-0.198,40.46
	c3.601,3.636,8.109,6.24,13.059,7.54c0.1,0.28,0.2,0.56,0.29,0.84c0.865,2.577,1.288,5.282,1.25,8c0,0.19,0,0.38,0,0.57
	c-2.174,0.515-4.255,1.361-6.17,2.51c-2.438,1.445-4.28,3.71-5.2,6.39c-0.063,0.2-0.117,0.404-0.16,0.61
	c-1.519-0.497-3.103-0.77-4.7-0.81c-1.45,0-3.08,0.11-4,1.21c-0.372,0.449-0.633,0.98-0.76,1.55c-0.55,0.51-0.66,1.39-1,2.06
	c-1.21,2.11-4.33,1.42-6.68,2c-2.55,0.63-4.561,3-7.19,3c-0.991-0.159-1.999-0.196-3-0.109c-1,0.239-1.76,1.59-1,2.27
	c-1.193-0.119-2.352,0.441-3,1.45c-0.72,0.939-1.2,2.06-2,2.939c-0.708-0.986-1.932-1.461-3.12-1.21
	c-1.156,0.263-2.267,0.701-3.29,1.301c-0.452,0.247-0.941,0.42-1.449,0.51c-0.595,0.031-1.191-0.022-1.771-0.16
	c-2.813-0.457-5.7-0.053-8.28,1.16c-2.279,1.08-4.47-0.9-7-1.061c-0.92,0.047-1.826-0.233-2.56-0.79c-0.48-0.582-0.822-1.266-1-2
	c-1.146-3.286-3.919-5.741-7.32-6.479c1.358-4.273-0.827-8.868-5-10.51c0.337-2.994-0.832-5.96-3.12-7.92
	c-0.555-0.376-1.082-0.791-1.58-1.24c-0.659-0.786-1.152-1.698-1.449-2.68l-2.221-5.88c-1-0.2-1.75-0.61-2.68-0.77
	c0-0.19,0-0.39,0-0.6c-0.024-2.007-0.361-3.998-1-5.9c-1.141-3.097-2.738-6.006-4.74-8.63c-2.12-3-4.47-5.87-7.62-7.66
	c-1.049-0.571-2.135-1.072-3.25-1.5l-5.72-2.36c-0.313-0.155-0.652-0.25-1-0.28c-1.54,0-1.82,2.38-1,3.65
	c1.74,2.57,5.66,3.29,6.771,6.2c-1.908,0.063-3.56,1.347-4.091,3.18c-0.039,0.478-0.232,0.931-0.55,1.29
	c-0.5,0.41-1.29,0.17-1.87,0.48c-1,0.55-0.569,2.07-0.68,3.22c-0.236,0.998-0.571,1.969-1,2.9
	C610.273,367.646,610.599,369.56,611.659,371.08z M748.78,772.08c0-0.59-0.08-1.18-0.13-1.76c0.12,0.31,0.23,0.63,0.35,0.939
	c1,2.641,2.131,5.24,3.311,7.811l-0.2-0.11c-0.867-0.39-1.787-0.652-2.729-0.78c-0.25,0-0.511,0-0.761-0.069
	c0.337-1.986,0.392-4.01,0.16-6.011V772.08z"/>
<path fill="#EE8E9E" d="M733.28,386.26c-0.109,4.18-1.52,8.22-1.74,12.391c12.29,0.609,24.421-5.351,36.601-3.53
	c-3.4-2.2-5.22-6.17-6.3-10.08c-1.357-5.041-1.765-10.29-1.2-15.48c0.033-0.29,0.087-0.578,0.16-0.86c0.45-2,1.62-4.93,1.3-6.54
	c-0.41-2.12-2.41-1.7-4.22-1.58c-5.503,0.421-10.98,1.129-16.41,2.12c-1.41,0.24-15.2,3.68-15.4,3.32
	c2.428,3.874,4.439,7.993,6,12.29C732.92,380.873,733.329,383.561,733.28,386.26z"/>
<path fill="#EE8E9E" d="M611.659,373.36c1.06,1.44,2.326,2.714,3.761,3.78c0.93,0.77,1.89,1.55,2.89,2.25
	c1.783,1.379,3.91,2.244,6.15,2.5c2.93,0.2,9.14-1.52,11-4c0.771-1.26,1.138-2.726,1.05-4.2c-0.024-1.997-0.361-3.978-1-5.87
	c-1.141-3.082-2.739-5.974-4.74-8.58c-2.12-2.94-4.47-5.84-7.62-7.62c-1.052-0.566-2.137-1.067-3.25-1.5l-5.72-2.34
	c-0.313-0.155-0.652-0.25-1-0.28c-1.54,0-1.82,2.36-1,3.63c1.74,2.56,5.66,3.27,6.77,6.17c-1.904,0.054-3.557,1.331-4.09,3.16
	c-0.04,0.475-0.232,0.924-0.55,1.28c-0.5,0.41-1.29,0.18-1.87,0.48c-1,0.55-0.57,2.06-0.68,3.21c-0.238,0.99-0.573,1.955-1,2.88
	C610.309,370.044,610.637,371.889,611.659,373.36z"/>
<path fill="#040530" d="M781.18,792.03c-0.94-1-2.49-0.79-3.811-0.58c-7.095,1.124-14.266,1.705-21.449,1.739
	c-0.9-4.39,1.71-8.659,2.55-13.069c0.118-1.136,0.404-2.248,0.85-3.3c1-1.94,3.29-2.83,5.43-3.28c3.87-0.811,9.91-2.25,12.07,1.649
	C779.409,779.88,780.24,786.81,781.18,792.03z"/>
<path fill="#040530" d="M702.59,775.42c2.91,2,6.529,2.61,10,3.061c3.47,0.449,7.12,0.789,10.29,2.35c2.739,1.35,5.05,3.57,8,4.54
	c2.694,0.738,5.532,0.783,8.25,0.13c3.26-0.61,6.729-1.8,8.489-4.61c1.561-2.5,1.4-5.68,1.181-8.62c-0.25-3.33-0.49-6.659-0.74-10
	c0.012-0.844-0.202-1.676-0.62-2.409c-2.35-3.44-8.08,1.43-11.15,1.43c-4.859,0-10.069-2.64-13.569-5.86
	c-0.311-0.319-0.668-0.589-1.061-0.8c-1.38-0.62-2.77,0.53-4,1.53l-0.409,0.34c-2.841,2.25-6.65,2.71-10.15,3.62
	s-7.271,2.74-8.35,6.2c-0.071,0.216-0.128,0.437-0.171,0.66C697.92,770.19,699.86,773.57,702.59,775.42z"/>
<path opacity="0.05" enable-background="new    " d="M702.59,775.42c2.91,2,6.529,2.61,10,3.061c3.47,0.449,7.12,0.789,10.29,2.35
	c2.739,1.35,5.05,3.57,8,4.54c2.694,0.738,5.532,0.783,8.25,0.13c3.26-0.61,6.729-1.8,8.489-4.61c1.561-2.5,1.4-5.68,1.181-8.62
	c-0.25-3.33-0.49-6.659-0.74-10c0.012-0.844-0.202-1.676-0.62-2.409c-2.35-3.44-8.08,1.43-11.15,1.43
	c-4.859,0-10.069-2.64-13.569-5.86c-0.311-0.319-0.668-0.589-1.061-0.8c-1.38-0.62-2.77,0.53-4,1.53l-0.409,0.34
	c-2.841,2.25-6.65,2.71-10.15,3.62s-7.271,2.74-8.35,6.2c-0.071,0.216-0.128,0.437-0.171,0.66
	C697.92,770.19,699.86,773.57,702.59,775.42z"/>
<path fill="#E8EAF2" d="M702.59,776.56c2.91,2,6.529,2.61,10,3.061c3.47,0.45,7.12,0.79,10.29,2.35c2.739,1.351,5.05,3.57,8,4.54
	c2.694,0.738,5.532,0.783,8.25,0.13c3.467-0.733,6.513-2.788,8.489-5.729c1.561-2.5,1.4-5.68,1.181-8.62
	c-0.25-3.33-0.49-6.66-0.74-10c0.012-0.845-0.202-1.677-0.62-2.41c-2.35-3.439-8.08,1.43-11.15,1.43
	c-4.859,0-10.069-2.64-13.569-5.859c-0.311-0.319-0.668-0.589-1.061-0.8c-1.38-0.62-2.77,0.529-4,1.529
	c0.813,2.479,1.96,4.833,3.41,7c2.378,3.729,6.308,6.188,10.7,6.7c2.17,0.16,4.4-0.27,6.5,0.29c2.1,0.561,4,2.7,3.31,4.75
	c-0.689,2.05-3.29,2.42-5.409,2.53c-3,0.17-6,0.31-8.83-0.61c-1.721-0.58-3.29-1.529-5-2.22c-7.12-3-16.11-1.3-22-6.29
	c-0.56-0.511-1.162-0.973-1.801-1.38C697,770.23,699.86,774.69,702.59,776.56z"/>
<path opacity="0.05" enable-background="new    " d="M702.59,776.56c2.91,2,6.529,2.61,10,3.061c3.47,0.45,7.12,0.79,10.29,2.35
	c2.739,1.351,5.05,3.57,8,4.54c2.694,0.738,5.532,0.783,8.25,0.13c3.467-0.733,6.513-2.788,8.489-5.729
	c1.561-2.5,1.4-5.68,1.181-8.62c-0.25-3.33-0.49-6.66-0.74-10c0.012-0.845-0.202-1.677-0.62-2.41c-2.35-3.439-8.08,1.43-11.15,1.43
	c-4.859,0-10.069-2.64-13.569-5.859c-0.311-0.319-0.668-0.589-1.061-0.8c-1.38-0.62-2.77,0.529-4,1.529
	c0.813,2.479,1.96,4.833,3.41,7c2.378,3.729,6.308,6.188,10.7,6.7c2.17,0.16,4.4-0.27,6.5,0.29c2.1,0.561,4,2.7,3.31,4.75
	c-0.689,2.05-3.29,2.42-5.409,2.53c-3,0.17-6,0.31-8.83-0.61c-1.721-0.58-3.29-1.529-5-2.22c-7.12-3-16.11-1.3-22-6.29
	c-0.56-0.511-1.162-0.973-1.801-1.38C697,770.23,699.86,774.69,702.59,776.56z"/>
<path fill="#040530" d="M779.85,558.68c2.27,11.138,0.118,22.721-6,32.301c-1.67,2.59-3.62,5-4.88,7.819
	c-0.818,2.006-1.454,4.081-1.9,6.2l-5.41,22.42c-1.46,6-2.93,12.2-2.489,18.4c0.31,4.319,1.399,9.17-1.261,12.59
	c-0.645,0.647-1.188,1.389-1.609,2.2c-0.255,0.953-0.255,1.956,0,2.909c2.739,16.24,4.76,33.23-0.181,48.94
	c-4.47,14.24-4.729,30-8.54,44.46c-0.47,1.79-1,3.67-2.359,4.93c-1.021,0.857-2.242,1.439-3.55,1.69
	c-5.61,1.33-11.53-0.229-16.761-2.66c-3.68-1.7-7.64-4.689-7.319-8.729c0.149-1.92,1.27-3.61,2-5.38c1.5-3.471,1.62-7.351,2-11.11
	c1-9.44,3.92-18.55,6.12-27.79c2.199-9.24,3.699-18.89,1.84-28.2c-3.81-19.259-9.902-37.994-18.15-55.81
	c-0.353-0.947-0.921-1.8-1.66-2.49c-0.825-0.473-1.61-1.011-2.35-1.61c-0.57-0.885-0.936-1.886-1.07-2.93
	c-0.819-2.939-3.25-5.12-4.88-7.7c-4.12-6.54-2.81-14.92-2.66-22.64c0.15-7.51-0.93-15.08,0.301-22.49
	c1.229-7.41,5.47-15,12.609-17.3c3.54-1.15,7.37-0.89,11.07-0.521C742.39,548.07,761.449,551.63,779.85,558.68z"/>
<path opacity="0.05" enable-background="new    " d="M779.85,558.68c2.27,11.138,0.118,22.721-6,32.301
	c-1.67,2.59-3.62,5-4.88,7.819c-0.818,2.006-1.454,4.081-1.9,6.2l-5.41,22.42c-1.46,6-2.93,12.2-2.489,18.4
	c0.31,4.319,1.399,9.17-1.261,12.59c-0.645,0.647-1.188,1.389-1.609,2.2c-0.255,0.953-0.255,1.956,0,2.909
	c2.739,16.24,4.76,33.23-0.181,48.94c-4.47,14.24-4.729,30-8.54,44.46c-0.47,1.79-1,3.67-2.359,4.93
	c-1.021,0.857-2.242,1.439-3.55,1.69c-5.61,1.33-11.53-0.229-16.761-2.66c-3.68-1.7-7.64-4.689-7.319-8.729
	c0.149-1.92,1.27-3.61,2-5.38c1.5-3.471,1.62-7.351,2-11.11c1-9.44,3.92-18.55,6.12-27.79c2.199-9.24,3.699-18.89,1.84-28.2
	c-3.81-19.259-9.902-37.994-18.15-55.81c-0.353-0.947-0.921-1.8-1.66-2.49c-0.825-0.473-1.61-1.011-2.35-1.61
	c-0.57-0.885-0.936-1.886-1.07-2.93c-0.819-2.939-3.25-5.12-4.88-7.7c-4.12-6.54-2.81-14.92-2.66-22.64
	c0.15-7.51-0.93-15.08,0.301-22.49c1.229-7.41,5.47-15,12.609-17.3c3.54-1.15,7.37-0.89,11.07-0.521
	C742.39,548.07,761.449,551.63,779.85,558.68z"/>
<path fill="#040530" d="M700,605.76c0.063,2.918,0.397,5.824,1,8.681c3.459,19.393,7.126,38.727,11,58c0.35,1.68,0.68,3.35,1.13,5
	c1.462,5.37,4.011,10.384,7.489,14.729c16.301,20.311,17.71,49.811,26.551,74.3c0.59,1.66,1.189,3.32,1.819,5
	c1.601,4.152,3.423,8.215,5.46,12.17c0.235,0.576,0.622,1.077,1.12,1.45c0.55,0.278,1.166,0.399,1.78,0.35
	c7.967,0.047,15.837-1.742,23-5.229c1.017-0.37,1.878-1.075,2.439-2c0.277-0.747,0.366-1.551,0.261-2.34
	c-0.24-4.851-0.54-9.891-2.86-14.15c-1.535-2.555-3.443-4.867-5.66-6.859c-0.689-15.25-2.189-30.521-5.54-45.4
	c-1.72-7.61-3.85-15.3-8.27-21.74c-3.26-4.75-7.93-9.43-7.36-15.16c0.26-2.52,1.311-5.649-0.74-7.13
	c-0.89-0.649-2.22-0.729-2.819-1.66c-0.247-0.434-0.385-0.921-0.4-1.42c-0.418-3.933-0.172-7.908,0.73-11.76
	c0.741-2.515,1.325-5.072,1.75-7.66c0.26-2.62-0.181-5.449-1.931-7.399c-0.109-5.23,0-10.66-0.069-15.891
	c-0.202-2.977,0.048-5.967,0.739-8.87c0.391-1.369,1-2.68,1.301-4.08c1.1-5-1.631-11,1.619-15c1.351-1.659,3.44-2.479,5.211-3.68
	c3.55-2.359,5.869-6.229,7.159-10.29c1.138-4.111,1.809-8.338,2-12.6c0.095-0.907,0.095-1.822,0-2.73
	c-0.06-0.468-0.184-0.926-0.37-1.359c-1-2.271-3.72-3.15-6.14-3.73c-15.359-3.686-31.104-5.524-46.899-5.479
	c-5.841-4-9.131-2.561-11.601,1.66c-1.376,2.569-2.484,5.273-3.31,8.069c-1.13,3.41-1.2,22.55-2.301,26
	C695.89,591.96,700,601.08,700,605.76z"/>
<path fill="#040530" d="M805.619,431.63c0.431,3-1,6-1.18,9c-0.14,2.66,0.71,5.25,1.19,7.86c1.89,10.2-1.74,20.529-5.42,30.229
	c-0.711,1.582-1.147,3.272-1.29,5c-0.101,3.16,1.72,6.061,2.22,9.19c1.05,6.57-3.8,12.75-3.9,19.399c0,3.061,0.92,6.181,0.15,9.141
	c-0.51,2-1.74,3.68-2.62,5.53c-1.55,3.27-2,7-3.45,10.289c-2.68,6-8.439,9.87-13.91,13.45c-3.12-1-6.489-2.27-8.199-5.069
	c-0.753-1.384-1.238-2.897-1.431-4.46c-1.189-6.801-1.149-13.75-1.1-20.65c-0.098-5.944,0.216-11.889,0.939-17.79
	c1.11-7.5,3.54-14.73,5.29-22.11c2.2-9.31,3.33-18.93,6.761-27.859c3-7.84,7.71-14.891,12.659-21.63c1.881-2.58,3.37-6.25,7-5.66
	C802.505,426.019,805.015,428.469,805.619,431.63z"/>
<path opacity="0.05" enable-background="new    " d="M805.619,431.63c0.431,3-1,6-1.18,9c-0.14,2.66,0.71,5.25,1.19,7.86
	c1.89,10.2-1.74,20.529-5.42,30.229c-0.711,1.582-1.147,3.272-1.29,5c-0.101,3.16,1.72,6.061,2.22,9.19
	c1.05,6.57-3.8,12.75-3.9,19.399c0,3.061,0.92,6.181,0.15,9.141c-0.51,2-1.74,3.68-2.62,5.53c-1.55,3.27-2,7-3.45,10.289
	c-2.68,6-8.439,9.87-13.91,13.45c-3.12-1-6.489-2.27-8.199-5.069c-0.753-1.384-1.238-2.897-1.431-4.46
	c-1.189-6.801-1.149-13.75-1.1-20.65c-0.098-5.944,0.216-11.889,0.939-17.79c1.11-7.5,3.54-14.73,5.29-22.11
	c2.2-9.31,3.33-18.93,6.761-27.859c3-7.84,7.71-14.891,12.659-21.63c1.881-2.58,3.37-6.25,7-5.66
	C802.505,426.019,805.015,428.469,805.619,431.63z"/>
<path opacity="0.1" enable-background="new    " d="M726.07,366.02c2.428,3.874,4.439,7.993,6,12.29
	c2.219,0.547,4.495,0.823,6.78,0.82c8.86,0,15.14-5,20.35-11.41c0.45-2,3.261-3.95,2.94-5.56c-0.41-2.12-2.41-1.7-4.22-1.58
	c-5.504,0.421-10.98,1.129-16.41,2.12C740.06,362.94,726.27,366.42,726.07,366.02z"/>
<circle fill="#EE8E9E" cx="738.81" cy="349.96" r="28.4"/>
<path opacity="0.1" enable-background="new    " d="M702.93,553.42c4.91-0.29,9.859-0.1,14.79,0.1
	c3.085,0.037,6.161,0.352,9.189,0.94c3.73,0.85,7.221,2.55,10.9,3.61c5.89,1.72,12.1,1.79,18.21,2.399
	c4.006,0.391,7.985,1.012,11.92,1.86c-0.06-0.469-0.185-0.926-0.37-1.36c-1-2.27-3.72-3.149-6.14-3.729
	c-15.36-3.686-31.104-5.525-46.9-5.48C708.69,547.8,705.4,549.22,702.93,553.42z"/>
<path fill="#040530" d="M722.28,396.42c1.24,1.43,2.9,3,4.74,2.54c0.663-0.232,1.284-0.57,1.84-1c3.271-2.11,7.29-2.61,11.141-3.19
	c7.78-1.165,15.467-2.89,23-5.16c2.182-0.793,4.471-1.259,6.789-1.38c4.811,0,9.08,3.23,12.091,7c3.01,3.77,5.12,8.19,8.12,11.98
	c2.109,2.7,4.619,5.08,6.59,7.89c5,7.091,6,16.341,4.75,24.9s-4.7,16.64-8.09,24.6c-1.809,4.629-4.021,9.09-6.61,13.33
	c1.14,6.5,0.54,13.94-2.55,19.78c-1,1.9-2.24,3.75-2.58,5.88c-0.15,1.438-0.09,2.89,0.18,4.311l1.45,10.279
	c0.439,3.131,0.88,6.271,1.45,9.381c1,5.689,2.46,11.859-0.181,17c-3.159,6.159,0.16,14.069-0.67,21
	c-8.904-3.45-18.236-5.674-27.739-6.61c-6.101-0.59-12.311-0.67-18.2-2.38c-3.681-1.07-7.17-2.771-10.9-3.62
	c-3.028-0.594-6.104-0.908-9.19-0.94c-6.81-0.27-13.659-0.54-20.39,0.46c-0.55,0.08-1.21,0.12-1.54-0.319
	c-0.145-0.241-0.218-0.52-0.21-0.801c-0.099-2.525,0.507-5.028,1.75-7.229c0.851-1.521,2-3,2-4.74
	c-0.058-0.814-0.257-1.613-0.59-2.359l-3-8c-2.521-6.721-1.32-14.521-2.63-21.58c-1.036-5.513-1.704-11.089-2-16.69
	c-0.24-4.79-0.09-10,2.8-13.81c0.843-0.911,1.574-1.918,2.18-3c0.414-1.163,0.591-2.397,0.521-3.63
	c0.06-9.58-0.203-19.157-0.79-28.73c2.52-4.53,5.149-9.16,7.67-13.68c2.93-5.271,5.9-10.641,7.09-16.551
	c0.78-3.92,0.75-7.949,1.311-11.899c0.058-1.001,0.405-1.963,1-2.77c1-1.09,2.59-1.25,4-1.2
	C718.718,395.51,720.539,395.827,722.28,396.42z"/>
<path opacity="0.1" enable-background="new    " d="M618.31,379.42c1.783,1.379,3.91,2.244,6.15,2.5c2.93,0.2,9.14-1.52,11-4
	c0.771-1.26,1.138-2.726,1.05-4.2c-0.396-0.125-0.806-0.202-1.221-0.23c-3.178-0.35-6.39-0.222-9.529,0.38
	c-3.101,0.76-6.09,2.64-7.4,5.55C618.32,379.42,618.32,379.42,618.31,379.42z"/>
<path fill="#040530" d="M712.789,440.81c-1.72,2.16-3.529,4.37-6,5.65c-2.819,1.46-6.14,1.49-9.319,1.43
	c-13.101-0.281-26.15-1.714-39-4.279c-1.462-0.253-2.898-0.638-4.29-1.15c-1.541-0.737-2.993-1.646-4.33-2.71
	c-4.23-3-8.51-6.13-11.73-10.22c-3.818-4.949-6.221-10.842-6.949-17.05c-3.051-2.811-4.67-6.811-6.2-10.681
	c-0.76-1.635-1.24-3.386-1.42-5.18c-0.08-1.84,1.14-3.77,0.8-5.58c-0.59-3.116-2.172-5.958-4.51-8.1
	c-0.494-0.357-0.867-0.855-1.07-1.43c-0.063-0.476,0.027-0.96,0.26-1.38c1.3-2.92,4.29-4.8,7.391-5.56
	c3.143-0.602,6.358-0.73,9.539-0.38c1.06,0.2,2.102,0.478,3.12,0.83l2.221,5.85c0.297,0.979,0.79,1.888,1.449,2.67
	c0.498,0.446,1.026,0.857,1.58,1.23c2.289,1.942,3.46,4.897,3.12,7.88c4.166,1.621,6.354,6.201,5,10.46
	c3.393,0.731,6.163,3.168,7.32,6.439c0.174,0.735,0.517,1.42,1,2c0.733,0.557,1.641,0.837,2.56,0.79c2.511,0.15,4.7,2.13,7,1.061
	c2.58-1.213,5.467-1.617,8.28-1.16c0.58,0.134,1.176,0.185,1.771,0.149c0.508-0.081,0.999-0.25,1.449-0.5
	c1.026-0.595,2.135-1.033,3.29-1.3c1.188-0.246,2.409,0.228,3.12,1.21c0.8-0.87,1.28-2,2-2.92c0.651-1.005,1.808-1.564,3-1.45
	c-0.76-0.67,0-2,1-2.26c1.001-0.076,2.008-0.039,3,0.11c2.63,0,4.641-2.4,7.19-3c2.35-0.58,5.47,0.109,6.68-2
	c0.42-0.74,0.51-1.74,1.23-2.2c0.493-0.24,1.055-0.304,1.59-0.18c1.664,0.221,3.282,0.711,4.79,1.449
	c2.46,9.62,1.17,19.61-0.71,29.36C717.349,433.128,715.55,437.298,712.789,440.81z"/>
<path opacity="0.1" enable-background="new    " d="M712.869,475.28l12.23,24.659c-1.32-2.279-4.11-3.17-6.311-4.63
	c-2.782-2.021-4.877-4.849-6-8.1c-1.11-3.245-1.885-6.597-2.31-10c-0.25-1.57-0.76-3.76,0-5.18
	C711.84,472.33,712.289,474.12,712.869,475.28z"/>
<path opacity="0.1" enable-background="new    " d="M748.06,496.22c2.76,2.73,6.13,4.74,9.17,7.16c7.09,5.65,12.15,13.39,17.09,21
	c1.388,1.989,2.558,4.121,3.49,6.36c-0.58,0.5-1.45,0-2-0.521l-9.6-8.439c-1.18-0.963-2.253-2.049-3.2-3.24
	c-1.67-2.25-2.41-5-3.92-7.4c-1.647-2.271-3.615-4.291-5.84-6c-2.2-1.89-12.341-10.46-9.87-13.79
	C745.14,492.3,746.6,494.77,748.06,496.22z"/>
<path fill="#040530" d="M727.07,389.33c3-1.9,6.641-2.7,10.17-3.35c2.117-0.481,4.296-0.637,6.46-0.46c2,0.25,3.92,1,5.931,1.13
	c2.83,0.16,5.54-1,8.26-1.73s5.88-1,8.18,0.61c0.486,0.487,1.105,0.817,1.78,0.95c0.696-0.088,1.343-0.405,1.84-0.9
	c3.966-2.823,9.355-2.537,13,0.69c5.21,4.88,4.62,14.42,10.72,18.12c1.69,1,3.841,1.561,4.82,3.271
	c0.237,0.543,0.515,1.068,0.83,1.57c0.413,0.435,0.914,0.775,1.47,1c1.759,0.795,3.434,1.763,5,2.89
	c1.584,1.159,2.628,2.914,2.891,4.86c0.022,1.41-0.282,2.807-0.891,4.079c-6.119,15.005-21.021,24.533-37.21,23.79
	c-1.402,0.076-2.786-0.354-3.899-1.21c-0.588-0.661-1.052-1.424-1.37-2.25c-2.87-6-8.25-10.46-11.681-16.18
	c-2-3.41-3.34-7.22-5.47-10.57c-3.21-5.09-8.11-8.85-12.899-12.5c-2.7-2.06-5.711-4.22-9.101-4.069c-3,0.13-5.22,0.29-4.11-3.42
	C722.739,392.98,724.612,390.738,727.07,389.33z"/>
<path opacity="0.05" enable-background="new    " d="M727.07,389.33c3-1.9,6.641-2.7,10.17-3.35c2.117-0.481,4.296-0.637,6.46-0.46
	c2,0.25,3.92,1,5.931,1.13c2.83,0.16,5.54-1,8.26-1.73s5.88-1,8.18,0.61c0.486,0.487,1.105,0.817,1.78,0.95
	c0.696-0.088,1.343-0.405,1.84-0.9c3.966-2.823,9.355-2.537,13,0.69c5.21,4.88,4.62,14.42,10.72,18.12
	c1.69,1,3.841,1.561,4.82,3.271c0.237,0.543,0.515,1.068,0.83,1.57c0.413,0.435,0.914,0.775,1.47,1c1.759,0.795,3.434,1.763,5,2.89
	c1.584,1.159,2.628,2.914,2.891,4.86c0.022,1.41-0.282,2.807-0.891,4.079c-6.119,15.005-21.021,24.533-37.21,23.79
	c-1.402,0.076-2.786-0.354-3.899-1.21c-0.588-0.661-1.052-1.424-1.37-2.25c-2.87-6-8.25-10.46-11.681-16.18
	c-2-3.41-3.34-7.22-5.47-10.57c-3.21-5.09-8.11-8.85-12.899-12.5c-2.7-2.06-5.711-4.22-9.101-4.069c-3,0.13-5.22,0.29-4.11-3.42
	C722.739,392.98,724.612,390.738,727.07,389.33z"/>
<path fill="#040530" d="M712.289,800.94c2.061,1.92,4.891,2.76,7.641,3.359c6.271,1.216,12.62,1.998,19,2.34l6.21,0.48
	c6,0.46,12.12,0.92,18.2,0.95c7.503,0.024,14.993-0.625,22.38-1.94c0.688-0.022,1.334-0.335,1.78-0.86
	c0.227-0.433,0.32-0.923,0.27-1.409c-0.138-7.557-1.066-15.077-2.77-22.44c-0.7-3-6.131,3.76-6.381,4c-1.5,1.71-2.64,2.5-4.93,2.62
	c-6.25,0.34-13.24-3.46-18.21-6.84c-1.062-0.793-2.188-1.492-3.37-2.09c-0.869-0.386-1.788-0.648-2.729-0.78
	c-3.215-0.292-6.445,0.365-9.29,1.89c-3.74,1.851-7,4.51-10.7,6.41c-3.006,1.53-6.248,2.545-9.59,3c-3.38,0.46-7.42,0.69-9.16,3.62
	l0,0C709.21,795.75,710.24,799.03,712.289,800.94z"/>
<path fill="#E8EAF2" d="M712.289,802.06c2.061,1.921,4.891,2.761,7.641,3.351c6.271,1.224,12.619,2.009,19,2.35l6.21,0.48
	c6,0.46,12.12,0.92,18.2,0.949c7.503,0.024,14.993-0.624,22.38-1.939c0.688-0.022,1.334-0.335,1.78-0.86
	c0.583-0.771,1.051-1.624,1.39-2.529c-0.13-7.561-2.18-15.101-3.88-22.471c-0.7-3-6.13,3.761-6.38,4c-1.5,1.71-2.641,2.5-4.931,2.62
	c-6.25,0.34-13.239-3.46-18.21-6.84c-1.061-0.792-2.188-1.492-3.37-2.09c-0.869-0.386-1.788-0.648-2.729-0.78
	c0.8,4.5,7.25,9.93,10.58,11.58c6.729,3.34,14.729,1.68,22.24,2.07c0.548-0.02,1.091,0.112,1.569,0.38c0.9,0.6,1,1.87,0.931,2.95
	c-0.061,1.79-0.29,3.899-1.851,4.81c-0.776,0.37-1.63,0.548-2.49,0.521c-18.507,0.794-37.048,0.125-55.449-2
	c-3.085-0.202-6.12-0.877-9-2c-1.888-0.889-3.649-2.022-5.24-3.37C708.27,795.19,710.24,800.15,712.289,802.06z"/>
<path fill="#040530" d="M727.76,349.66c0.109,2.93-1.9,8.63,3.59,7c3.28-0.95,4.2-4.82,8.35-4c4.15,0.82,5.11,6,6.521,9.33
	c2.329,5.404,7.168,9.315,12.939,10.46c1.171,0.275,2.39,0.275,3.561,0c2.68-0.77,4.21-3.53,5.3-6.09
	c0.952-2.164,1.738-4.396,2.35-6.68c0.428-1.609,0.712-3.252,0.851-4.91l0,0c0.085-1.128,0.085-2.262,0-3.39
	c-0.5-6.68-4.3-12.77-9.17-17.37c-4.87-4.6-10.771-7.93-16.61-11.21c-1.903-1.19-3.963-2.109-6.12-2.73
	c-2.128-0.435-4.313-0.526-6.47-0.27c-2.84,0.122-5.632,0.777-8.23,1.93c-1.063,0.514-2.041,1.188-2.899,2
	c-1.22,1.128-2.09,2.583-2.51,4.19c-1.051,4.31,1.699,8.2,3.93,11.61C725.15,342.67,727.61,345.88,727.76,349.66z"/>
<path opacity="0.1" enable-background="new    " d="M635.35,412.69c1.17-3,6.1-11.141,4.68-14c-1.48,2.102-2.74,4.35-3.76,6.71
	C635.34,407.73,636.1,410.8,635.35,412.69z"/>
<path opacity="0.1" enable-background="new    " d="M723,339.64c-2.24-3.41-5-7.3-3.94-11.61c0.515-1.9,1.639-3.58,3.2-4.78
	c-0.363,0.625-0.637,1.298-0.811,2c-1.06,4.32,1.7,8.2,3.931,11.61c2,3,4.449,6.25,4.6,10c0.11,2.94-1.9,8.64,3.6,7
	c3.271-0.95,4.19-4.83,8.351-4s5.1,6,6.51,9.33c2.33,5.401,7.17,9.309,12.94,10.45c1.17,0.275,2.389,0.275,3.56,0
	c0.604-0.171,1.174-0.449,1.68-0.82c-0.84,1.675-2.294,2.961-4.06,3.59c-1.171,0.275-2.39,0.275-3.561,0
	c-5.773-1.146-10.615-5.056-12.949-10.46c-1.4-3.35-2.32-8.45-6.511-9.33c-4.189-0.88-5.08,3-8.35,4c-5.5,1.59-3.49-4.11-3.6-7
	C727.49,345.88,725,342.67,723,339.64z"/>
<path opacity="0.1" enable-background="new    " d="M721.82,333.8c0.517,0.835,1.081,1.64,1.69,2.41c1.161,1.455,2.461,2.795,3.88,4
	c0.84,0.73,1.71,1.41,2.62,2.06c1.687,1.182,3.458,2.238,5.3,3.16c5.37,2.71,11.19,4.41,17,6.08l11.34,3.3
	c1.39,1,3.94,2.95,6.75,4.92c0.427-1.608,0.712-3.251,0.851-4.91l0,0c0.084-1.128,0.084-2.261,0-3.39
	c-0.5-6.68-4.301-12.77-9.171-17.37c-4.869-4.6-10.77-7.93-16.609-11.21c-1.903-1.19-3.963-2.109-6.12-2.73
	c-2.129-0.435-4.313-0.526-6.47-0.27c-2.841,0.122-5.632,0.776-8.23,1.93c-1.063,0.514-2.042,1.188-2.899,2
	c-0.639,0.943-1.127,1.979-1.45,3.07C719.57,329.24,720.55,331.74,721.82,333.8z"/>
<path fill="#AF0707" d="M721.82,333.04c0.517,0.832,1.081,1.633,1.69,2.4c1.156,1.46,2.456,2.8,3.88,4
	c0.831,0.741,1.702,1.435,2.61,2.08c1.688,1.182,3.459,2.241,5.3,3.17c5.37,2.7,11.189,4.4,17,6.08l11.34,3.29
	c4,3,17.2,12.81,19.42,11.58c2.63-1.44-11.75-11.62-11.75-11.62l-0.66,0.5c2.11-1.32,3.21-4.39,3.68-7
	c0.841-4.75,1.24-9.68,0.12-14.38c-1.12-4.7-3.949-9.15-8.25-11.35c-1.899-1-4.21-1.64-5.59-3.15c-0.208-0.221-0.39-0.466-0.54-0.73
	c-0.084-0.124-0.158-0.254-0.22-0.39c-0.149-0.414-0.351-0.807-0.6-1.17c-0.79-0.91-2.221-0.64-3.41-0.49c-0.13,0-0.25,0-0.38,0
	c-0.217,0.015-0.434,0.015-0.65,0c-4.26,0.1-8.39-2.27-12.7-2.27c-4.729,0-8.75,2.73-12.91,4.59c-0.84,0.38-1.64,0.73-2.39,1.08
	c-3,1.4-5.26,2.89-6.5,6.87C719.57,328.47,720.55,330.97,721.82,333.04z"/>
<path opacity="0.1" enable-background="new    " d="M754.789,315.88c-0.169,0.306-0.259,0.65-0.26,1c0,0.59,0.26,1.15,0.71,1.53
	c0.527,0.37,1.147,0.588,1.79,0.63c0.465,0.062,0.932,0.099,1.4,0.11c0.63,0.053,1.263-0.053,1.84-0.31
	c0.112-0.061,0.22-0.131,0.32-0.21c-0.209-0.221-0.39-0.466-0.54-0.73c-0.11,0.08-0.22,0.06-0.641,0
	c-0.778-0.044-1.55-0.175-2.3-0.39c-0.31-0.086-0.601-0.229-0.859-0.42c-0.389-0.323-0.671-0.755-0.811-1.24L754.789,315.88z"/>
<path opacity="0.1" enable-background="new    " d="M771,353.91c-0.612,0.374-1.292,0.622-2,0.73
	c-0.498,0.129-1.007,0.209-1.521,0.24c-1.301-0.042-2.574-0.384-3.72-1"/>
<rect x="201.28" y="340.99" fill="#040530" width="51.73" height="25.38"/>
<rect x="201.28" y="412.24" fill="#040530" width="51.73" height="25.38"/>
<rect x="201.28" y="483.49" fill="#040530" width="51.73" height="25.38"/>
<rect x="201.28" y="554.74" fill="#040530" width="51.73" height="25.38"/>
<linearGradient id="SVGID_2_" gradientUnits="userSpaceOnUse" x1="187.2703" y1="247.79" x2="404.4426" y2="247.79" gradientTransform="matrix(1 0 0 -1 -43.3599 796.3047)">
	<stop  offset="0" style="stop-color:#808080;stop-opacity:0.25"/>
	<stop  offset="0.54" style="stop-color:#808080;stop-opacity:0.12"/>
	<stop  offset="1" style="stop-color:#808080;stop-opacity:0.1"/>
</linearGradient>
<path fill="url(#SVGID_2_)" d="M358.42,404.64c1.439-0.92,0.869-3.38-0.62-4.22c-1.49-0.84-3.33-0.58-5-0.24
	c0.161-0.875-0.275-1.751-1.07-2.149v-0.37c1-0.94,0.6-2.94-0.58-3.79s-3-0.9-4.66-0.82c0.22-1.976-0.524-3.937-2-5.27
	c-0.282-0.302-0.667-0.488-1.08-0.52c-0.93,0-1.239,1.25-1.31,2.18c-0.195,2.433-0.597,4.845-1.2,7.21l-30.31,50.77
	c-3.38,4.88,7.12-9.72,3.739-4.84c-1.723,2.685-3.735,5.173-6,7.42c-2.03,1.808-4.302,3.325-6.749,4.51
	c-1.634,0.052-3.244-0.402-4.61-1.3c-1.713-1.204-3.21-2.688-4.43-4.39c-2.643-3.362-5.032-6.915-7.15-10.63
	c-0.741-1.174-1.294-2.456-1.64-3.801c-0.46-2.1,0-4.39-0.84-6.359c-0.347-0.741-0.783-1.437-1.301-2.07l-2.09-2.79
	c-0.005-0.04-0.005-0.08,0-0.12c-0.24-4.13-3.58-7.3-6.7-10c-2.659-2.319-5.54-4.74-9-5.189c-1.88-0.24-3.8,0.12-5.68-0.12
	c-1.53-0.19-3-0.771-4.5-1c-1.465-0.195-2.948-0.226-4.42-0.09l-0.63-0.57c3.239-1.372,5.991-3.686,7.899-6.64
	c1.45-2.341,2.23-5,3.57-7.431c1.63-2.93,4-5.35,5.891-8.16c4.359-6.67,5.159-15.25,3.399-23s-5.91-14.82-10.78-21.12
	c-9.369-12.12-25.09-16.62-39.89-14.24c-1,0.15-2,0.34-2.95,0.55c-2.489,0.524-4.918,1.302-7.25,2.32
	c-3.157,1.284-5.896,3.42-7.91,6.17c-0.551,0.8-1.014,1.659-1.38,2.56c-0.275,0.682-0.499,1.384-0.67,2.1
	c-0.456,2.169-0.577,4.395-0.359,6.6c0.06,0.75,0.14,1.51,0.229,2.26c0,0.38,0.09,0.75,0.14,1.13c0.101,0.75,0.211,1.51,0.311,2.26
	c0.16,1.13,0.31,2.26,0.42,3.37c0.085,0.791,0.125,1.585,0.12,2.38c0,0.2,0,0.39,0,0.59c-0.031,0.59-0.118,1.176-0.26,1.75
	c-0.08,0.312-0.178,0.619-0.29,0.92c-0.353,0.901-0.816,1.754-1.38,2.54c-0.766,1.046-1.591,2.048-2.471,3l-0.85,1l-0.84,1
	c-1.117,1.3-2.137,2.68-3.051,4.13c-0.452,0.726-0.855,1.481-1.21,2.26c-0.262,0.593-0.488,1.201-0.68,1.82
	c-0.26,0.824-0.438,1.671-0.53,2.53c0,0.22-0.05,0.43-0.06,0.65c-0.025,0.427-0.025,0.854,0,1.28c0.017,0.423,0.063,0.844,0.14,1.26
	c0.139,0.839,0.388,1.656,0.74,2.43c0,0.11,0.11,0.22,0.16,0.32c0.05,0.1,0.11,0.21,0.16,0.32c0.05,0.11,0.21,0.43,0.31,0.64
	c0.145,0.32,0.252,0.656,0.32,1c0,0.11,0,0.23,0,0.35c0.01,0.124,0.01,0.247,0,0.37c-0.154,0.98-0.668,1.867-1.44,2.49
	c-0.189,0.18-0.399,0.35-0.6,0.52l-0.31,0.25l-0.631,0.5L186,391.6c-0.532,0.447-1.023,0.938-1.471,1.47
	c-5.496-0.3-11.006,0.24-16.34,1.6c-1.9,0.615-3.874,0.971-5.87,1.06c-0.972,0.091-1.925-0.311-2.54-1.07
	c-0.327-0.73-0.418-1.545-0.26-2.33c0.269-3.27-0.267-6.555-1.56-9.57c-0.315-0.884-0.857-1.67-1.57-2.28
	c-0.743-0.599-1.786-0.655-2.59-0.14c1.648,5.343,1.412,11.091-0.67,16.28c-1.076,2.443-2.333,4.804-3.76,7.06
	c-2.23,3.79-3.48,8.131-5.46,12.061c2.22,7.51,1.729,15.53,2.89,23.27c1.08,7.221,3.6,14.12,6.13,21c1.91,5.17,4,10.551,8.12,14.19
	c1.331,1.332,3.117,2.111,5,2.18c1.41-0.17,2.758-0.678,3.93-1.479c1.208-0.661,2.321-1.481,3.311-2.44
	c0.379-0.396,0.715-0.831,1-1.3c0.115,0.656,0.363,1.282,0.729,1.84c2.38-5.13,5-10.149,7.8-15.06
	c0.837-0.446,1.621-0.982,2.341-1.601c0.05,0.17,0.09,0.351,0.13,0.53c-0.12,0.47-0.24,0.95-0.37,1.42s-0.271,0.9-0.41,1.34
	c-0.14,0.44-0.2,0.66-0.31,1c-0.11,0.34-0.261,0.78-0.4,1.17l-0.48,1.271c-0.119,0.3-0.229,0.6-0.359,0.899
	c-0.3,0.73-0.61,1.46-0.95,2.181c0.269,0.132,0.546,0.245,0.83,0.34l0.189,0.06c0.254,0.078,0.511,0.142,0.771,0.19h0.28l0.58,0.06
	h0.22c0.1,0,0.2,0,0.3,0h0.39c0.698-0.041,1.39-0.161,2.061-0.359c0.13,0.52,0.25,1.05,0.38,1.569
	c0.974,3.501,1.603,7.088,1.88,10.71c0.18,4.101-0.53,8.261,0.25,12.301c0.41,2.09,1.22,4.1,1.51,6.22
	c0.196,1.997,0.16,4.011-0.109,6c-0.453,4.793-0.907,9.587-1.36,14.38c-0.042,1.759-0.462,3.487-1.229,5.07
	c-0.681,1.17-1.771,2.51-1.091,3.67c1.126-0.304,2.272-0.524,3.431-0.66c-0.42,1.53-0.8,3.06-1.16,4.6
	c-0.353,1.149-0.445,2.361-0.271,3.55c0.24,1.11,0.931,2.11,1,3.25c0.17,1.75-1,3.301-1.72,4.931c-1.72,4.16,0.11,8.85,1.93,13
	l5.381,12.21c1.466,3.333,2.939,6.667,4.42,10c1.31,3,2.63,6,3.89,9c5.762,13.69,10.469,27.802,14.08,42.21
	c0.115,0.652,0.359,1.274,0.72,1.83c0.75,1,2.101,1.29,3.2,1.899c3.32,1.82,3.7,7.271,0.66,9.53c0.63,7.34-4.87,14.431-7.7,21.23
	c-6.52,15.63-5.34,33.239-7.58,50l2.53-1.48c0.299,0.139,0.575,0.32,0.82,0.54c-0.061,0.311-0.12,0.62-0.2,0.94
	c-0.341,1.426-0.89,2.794-1.63,4.06c-1.471,2.54-3.721,4.79-4.061,7.7c-0.21,1.75,0.33,3.51,0.32,5.28c0,0.16,0,0.319,0,0.49
	c-0.22-0.221-0.561-0.2-1.08,0.199c-0.79,0.84-1.339,1.876-1.59,3c-0.44,1.25-0.79,2.53-1.141,3.811L200.88,742
	c-0.667,2.713-1.55,5.368-2.64,7.94c-0.938,1.728-1.721,3.534-2.341,5.399c-0.352,1.518-0.489,3.075-0.409,4.631
	c-0.02,1.484,0.196,2.963,0.64,4.38c1.182,2.832,3.501,5.035,6.39,6.069c2.859,1.002,5.853,1.565,8.88,1.67
	c0.775,0.101,1.562,0.08,2.33-0.06c0.829-0.236,1.601-0.638,2.271-1.18c4.109-3,6.24-8.601,6.609-13.7
	c-0.104-1.05-0.29-2.09-0.56-3.11c0.25-5.55-0.56-11.13-0.13-16.66c0.08,0.631,0.18,1.25,0.27,1.881c0.334,2.066,0.667,4.136,1,6.21
	c-0.061-0.22-0.178-0.42-0.34-0.58c-0.719,2.305-0.843,4.754-0.359,7.12c0.467,2.353,1.136,4.661,2,6.899l1.329,3.71
	c0.321,1.117,0.858,2.16,1.58,3.07c1.17,1.28,2.95,1.75,4.631,2.17c3.648,1.058,7.406,1.698,11.199,1.91
	c0.51,0.06,1.025-0.034,1.48-0.271c0.229-0.175,0.449-0.362,0.66-0.56c0.337-0.247,0.699-0.458,1.08-0.63
	c1.628-0.855,2.858-2.312,3.43-4.061c0.556-1.762,0.326-3.679-0.63-5.26c-0.445-0.662-0.954-1.278-1.521-1.84l-6.67-7.07
	c-1.017-1.22-2.109-2.375-3.27-3.46c-0.276-0.288-0.676-0.422-1.07-0.36c-1.81-4.52-1.58-9.819-1.26-14.779
	c0.09-1.48,0.899-4.561,1.229-7.08c1.285-0.42,2.484-1.066,3.54-1.91c0.99-0.742,1.695-1.801,2-3c3.36-17.2,8.811-33.87,13.9-50.63
	c0.5-1.65,1-3.311,1.49-5l0.62-2.12c0.159-0.58,0.34-1.16,0.5-1.74c0.279-1,0.55-1.95,0.81-2.93c0.08-0.26,0.15-0.53,0.22-0.79
	c0.005-0.054,0.005-0.106,0-0.16c0.33-1.2,0.641-2.399,0.95-3.6l0.36-1.38c0.39-1.53,0.76-3.07,1.13-4.601
	c0.05-0.21,0.1-0.43,0.14-0.649c0.125-0.543,0.087-1.109-0.109-1.63l0,0l0,0c-0.106-0.203-0.237-0.392-0.391-0.561
	c-0.1-0.12-0.22-0.25-0.34-0.37l-0.37-0.41c-0.309-0.377-0.54-0.813-0.68-1.279c0-0.471,0-0.94,0-1.4s-0.061-1-0.09-1.49
	c0.104-0.655,0.251-1.304,0.439-1.939c0.11-0.38,0.24-0.76,0.36-1.141c0.12-0.38,0.29-1,0.45-1.42
	c0.587-0.664,0.904-1.523,0.89-2.41c0.6-1.51,1.26-3,2-4.439c0.897-1.472,1.505-3.101,1.79-4.8c-0.01-1.538-0.205-3.069-0.58-4.561
	c-1-6.34,1.94-12.529,4.12-18.56c1.597-4.428,2.812-8.984,3.63-13.62c0.641-3.57,1.08-7.3,3-10.39
	c0.626-0.863,1.162-1.788,1.601-2.761c0.293-1.023,0.438-2.085,0.43-3.149c0.234-4.313,1.276-8.542,3.07-12.471
	c0.405-0.753,0.676-1.572,0.8-2.42c0.005-0.057,0.005-0.113,0-0.17v-0.239l0.5-0.07c0.85-5.38,1.7-11.38,1.12-16.79
	c-0.767-6.275-3.822-12.048-8.58-16.21h0.1c1.68-0.85,2.43-2.88,2.45-4.76c0.015-2.819-1.255-5.491-3.45-7.261
	c-0.48-0.3-0.882-0.711-1.17-1.199c-0.162-0.511-0.21-1.05-0.14-1.58c0.001-3.271-1.975-6.219-5-7.46
	c-0.307-0.085-0.585-0.246-0.811-0.471c-0.239-0.432-0.311-0.938-0.2-1.42c0.194-3.242-1.428-6.324-4.21-8
	c0.554-2.066,0.615-4.234,0.181-6.33c-0.601-2-2.521-3.87-4.63-3.6c1.72-4.69-0.721-9.91-0.07-14.86c0.28-2.119,1.13-4.159,1.24-6.3
	c0.1-1.939-0.391-4,0.56-5.74c0.95-1.739,3.19-3,2.61-4.84c-0.25-0.8-1-1.34-1.32-2.12c-0.32-0.779,1-2,1.73-1.52
	c0.329-0.25,0.659-0.521,1-0.79c0.106,0.992,0.304,1.974,0.59,2.93c0.47,1.601,1.21,3.11,1.699,4.7c0.761,2.43,1,5.061,2.221,7.29
	c2,3.56,6.069,5.32,8.87,8.28c1.64,1.729,2.81,3.859,4.5,5.55c1.285,1.195,2.692,2.251,4.199,3.15l9,5.84
	c0.934,0.681,1.975,1.198,3.08,1.53c2.854,0.545,5.609-1.326,6.154-4.18c0.018-0.093,0.033-0.187,0.046-0.281
	c-0.833-0.285-1.592-0.753-2.22-1.369c0.13,0,0.26,0,0.38-0.061c2.146-0.561,4.133-1.615,5.8-3.08c6.42-5.109,11-12.09,15.54-18.95
	c4.72-7.189,27.46-26.22,27.46-26.22v-7.72c2.889-1.676,5.453-3.856,7.57-6.44c1.15-1.395,1.816-3.124,1.899-4.93
	C361.215,407.113,360.147,405.363,358.42,404.64z M169.36,423.13c-0.439,2.8-0.977,5.587-1.609,8.36
	c-0.706,3.197-1.604,6.351-2.69,9.439c-0.12,0.32-0.24,0.65-0.35,1c-0.33-0.6-0.65-1.2-0.94-1.81c-0.74-1.53-1.33-3.13-1.92-4.72
	l-3.76-10.15c-0.49-1.31-1-2.84-0.25-4.05c0.538-0.741,1.287-1.303,2.149-1.61c2.648-1.211,5.412-2.148,8.25-2.8
	c0.899-0.183,1.788-0.416,2.66-0.7C170.174,418.385,169.658,420.741,169.36,423.13z M173.52,410.47c-0.251-0.458-0.251-1.012,0-1.47
	c0.288-0.287,0.627-0.518,1-0.68c0.1-0.059,0.192-0.126,0.28-0.2L173.52,410.47z M181.32,399.47c-1.11,0.913-2.116,1.945-3,3.08
	c-0.959,1.267-1.821,2.604-2.579,4c0.252-1.108-0.167-2.261-1.07-2.95c-0.354-0.187-0.689-0.407-1-0.66
	c-0.68-0.905-0.496-2.19,0.41-2.869c0.893-0.596,1.929-0.941,3-1l4.489-0.66c-0.06,0.29-0.149,0.66-0.25,1.01V399.47z
	 M223.46,726.06c0.077-1.339-0.011-2.682-0.26-4c0.56,0,1.109,0,1.659-0.05L223.46,726.06z"/>
<path fill="#040530" d="M218.88,328.35c-7.811,1.25-16.5,4.26-19.49,11.58c-2.25,5.53-0.51,11.76,0.07,17.71
	c0.219,1.568,0.161,3.162-0.17,4.71c-0.641,2.51-2.42,4.54-4.13,6.48c-2.388,2.465-4.393,5.272-5.95,8.33
	c-1.41,3.13-1.851,6.86-0.4,10c0.499,0.801,0.838,1.69,1,2.62c0.09,2-2,3.32-3.6,4.62c-5.86,4.85-5.61,13.69-5.66,21.31
	c-0.108,15.56-3.584,30.911-10.19,45c5.056,2.57,11.17,1.776,15.4-2c-0.814,3.473-1.987,6.851-3.5,10.08
	c5,2.399,10.94-1.54,13.43-6.46c2.49-4.92,2.78-10.641,4.551-15.86c1.77-5.22,4.909-9.76,6.25-15c0.449-1.74,0.72-3.59,1.779-5
	c0.895-1.045,1.947-1.942,3.12-2.66c5.142-3.729,8.988-8.975,11-15c6.08,1.341,12.271,2.69,18.46,2.13
	c6.19-0.56,12.51-3.369,15.78-8.659c1.45-2.341,2.229-5,3.57-7.42c1.63-2.93,4-5.35,5.89-8.15c4.35-6.66,5.16-15.23,3.39-23
	c-1.77-7.77-5.899-14.8-10.77-21.1C249.38,330.47,233.67,325.97,218.88,328.35z"/>
<path fill="#AF0707" d="M169.59,425.96c-0.44,2.8-0.974,5.58-1.601,8.34c-0.704,3.195-1.603,6.345-2.689,9.431
	c-0.64,1.353-0.932,2.845-0.85,4.34c0.192,0.916,0.548,1.79,1.05,2.58c3.56,6.329,8.37,12.449,8.779,19.71c0.11,1.81,0,3.77,1,5.26
	c2.761-5.92,5.801-11.697,9.12-17.33c3.471-5.9,7.34-11.85,8.34-18.62c0.393-3.181,0.349-6.4-0.13-9.57
	c-0.46-3.56-1.26-7.21-3.43-10.06c-2.36-3.09-8.83-7.74-13-6.78C171.23,414.42,170.21,421.99,169.59,425.96z"/>
<path fill="#EE8E9E" d="M295.39,460.11c4.67-1.91,9.43-3.931,13.13-7.351c2.271-2.234,4.283-4.717,6-7.399l11-15.87
	c2.6-3.76,5.28-7.721,5.84-12.26c6.441-6.783,10.33-15.591,11-24.92c0.08-0.93,0.391-2.15,1.32-2.17
	c0.41,0.03,0.796,0.212,1.08,0.51c1.476,1.333,2.22,3.294,2,5.27c1.6-0.08,3.35-0.12,4.649,0.81c1.301,0.93,1.65,3.26,0.25,4
	c0.977,0.29,1.58,1.268,1.4,2.271c1.68-0.34,3.52-0.61,5,0.229c1.479,0.841,2.06,3.301,0.62,4.221
	c1.715,0.663,2.827,2.332,2.78,4.17c-0.084,1.803-0.751,3.529-1.9,4.92c-4.21,5.65-11.66,7.94-16.54,13
	c-1.609,1.784-3.053,3.712-4.31,5.76l-14.16,21.54c-4.5,6.851-9.12,13.83-15.54,18.93c-1.665,1.463-3.646,2.518-5.79,3.08
	c-2.183,0.541-4.489-0.101-6.08-1.689c-1.42-1.61-1.62-3.92-1.77-6.061C295,467.51,295.63,463.76,295.39,460.11z"/>
<path fill="#040530" d="M248,759.42c0.563,0.563,1.068,1.179,1.51,1.84c0.959,1.576,1.192,3.489,0.64,5.25
	c-0.577,1.745-1.806,3.199-3.43,4.061c-0.38,0.169-0.742,0.376-1.08,0.62c-0.21,0.197-0.431,0.384-0.66,0.56
	c-0.456,0.234-0.97,0.331-1.479,0.28c-3.793-0.222-7.549-0.862-11.2-1.91c-1.68-0.42-3.45-0.9-4.62-2.17
	c-0.723-0.91-1.259-1.953-1.58-3.07l-1.33-3.7c-0.857-2.236-1.526-4.541-2-6.89c-0.482-2.362-0.359-4.809,0.36-7.11
	c0.336,0.407,0.511,0.923,0.49,1.45c0.396,2.491,1.372,4.855,2.85,6.9c0.917,1.617,2.585,2.665,4.44,2.79
	c2.336,0.508,4.711,0.812,7.1,0.91c0.338,0.04,0.682-0.001,1-0.12c0.389-0.217,0.679-0.575,0.81-1c0.34-0.944,0.34-1.977,0-2.92
	c-0.63-1.801-2.399-3-3.25-4.7c-0.619-1.271,0.25-2.66,1.53-1.59c1.158,1.083,2.25,2.235,3.271,3.449L248,759.42z"/>
<path fill="#EE8E9E" d="M235.7,733.78c-0.381,6-0.65,12.39,2.619,17.399c1.171,1.801,2.74,3.311,4.08,5
	c0.764,0.84,1.271,1.881,1.46,3c0.2,2.19-1.859,4.061-4,4.46c-2.14,0.4-4.359-0.26-6.449-0.93c-1.974-0.496-3.832-1.373-5.471-2.58
	c-2.84-2.399-3.59-6.399-4.16-10.07l-1.329-8.529c-0.398-2.045-0.56-4.129-0.48-6.21c0.272-2.299,0.833-4.553,1.67-6.71l2.19-6.41
	c0.154-0.624,0.505-1.181,1-1.59c0.508-0.273,1.088-0.382,1.659-0.311c2.101,0.11,7.37,0.87,8.391,3.09
	C237.72,725.33,235.85,731.48,235.7,733.78z"/>
<path opacity="0.05" enable-background="new    " d="M235.7,733.78c-0.381,6-0.65,12.39,2.619,17.399c1.171,1.801,2.74,3.311,4.08,5
	c0.764,0.84,1.271,1.881,1.46,3c0.2,2.19-1.859,4.061-4,4.46c-2.14,0.4-4.359-0.26-6.449-0.93c-1.974-0.496-3.832-1.373-5.471-2.58
	c-2.84-2.399-3.59-6.399-4.16-10.07l-1.329-8.529c-0.398-2.045-0.56-4.129-0.48-6.21c0.272-2.299,0.833-4.553,1.67-6.71l2.19-6.41
	c0.154-0.624,0.505-1.181,1-1.59c0.508-0.273,1.088-0.382,1.659-0.311c2.101,0.11,7.37,0.87,8.391,3.09
	C237.72,725.33,235.85,731.48,235.7,733.78z"/>
<path fill="#040530" d="M282.61,557c0.005,0.057,0.005,0.113,0,0.17c-0.126,0.847-0.396,1.665-0.8,2.42
	c-1.789,3.923-2.83,8.146-3.07,12.45c0.01,1.062-0.136,2.119-0.43,3.14c-0.438,0.973-0.974,1.897-1.6,2.761
	c-1.9,3.09-2.34,6.819-3,10.38c-0.813,4.63-2.028,9.181-3.63,13.6c-2.17,6-5.101,12.21-4.11,18.54
	c0.376,1.487,0.571,3.016,0.58,4.55c-0.285,1.699-0.893,3.329-1.79,4.8c-0.74,1.44-1.4,2.92-2,4.431c-0.6,1.51-1.21,3.29-1.7,5
	c-0.59,2-1,4.46,0.37,6.1c0.416,0.408,0.785,0.86,1.1,1.35c0.255,0.746,0.255,1.555,0,2.301c-0.767,3.253-1.593,6.493-2.479,9.72
	c-0.68,2.54-1.4,5.06-2.15,7.58c-5.479,18.42-11.689,36.649-15.38,55.52c-0.53,2.71-4,4.66-6.71,5.25
	c-2.751,0.582-5.615-0.183-7.71-2.06l-0.53-0.53c-2.83-3-3.239-7.72-3-11.939c1-19.41,10.73-37.181,15.381-56.051
	c1.678-6.821,2.683-13.792,3-20.81c1.09-23.44,1.52-48.2-5.101-70.71c-1.38-4.68-3-10-0.54-14.17c1.57-2.66,4.47-4.22,7.33-5.36
	c11.818-4.623,25.002-4.288,36.57,0.93c0.008,0.471-0.009,0.941-0.05,1.41c-0.255,2.182-0.006,4.392,0.729,6.46
	C282.293,555.103,282.537,556.041,282.61,557z"/>
<path fill="#040530" d="M202.36,739.77l-1.229,4.511c-0.666,2.713-1.549,5.368-2.64,7.939c-0.936,1.726-1.719,3.529-2.341,5.391
	c-0.348,1.514-0.482,3.068-0.399,4.62c-0.024,1.484,0.192,2.964,0.64,4.38c1.178,2.829,3.494,5.029,6.38,6.06
	c2.859,1.002,5.853,1.564,8.88,1.67c0.775,0.101,1.562,0.08,2.33-0.06c0.825-0.239,1.593-0.641,2.261-1.181
	c4.109-3,6.239-8.59,6.609-13.68c-0.11-1.185-0.345-2.354-0.7-3.49c-0.319-0.43-3.43,1.33-2.1,2.79c2,2.181-3.8,1.05-6.73,0.87
	c-1.279-0.119-2.55-0.33-3.8-0.63l-4.75-1c-1.55-0.34-3.34-0.87-3.89-2.36c-0.55-1.489,0.649-3.26,1.59-4.699
	c2.48-3.83,3.11-8.53,3.69-13.061c0.109-0.89,1.22-6.65-1.07-4.859c-0.79,0.839-1.339,1.875-1.59,3
	C203.06,737.22,202.71,738.5,202.36,739.77z"/>
<path opacity="0.05" enable-background="new    " d="M261.44,645.31c-1.35-1.64-0.95-4.06-0.37-6.1c0.221-0.76,0.46-1.52,0.71-2.27
	l-18.63-6.301c-0.069,1.67-0.14,3.341-0.22,5c-0.317,7.021-1.322,13.995-3,20.82c-4.65,18.86-14.43,36.63-15.38,56
	c-0.22,4.47,0.26,9.46,3.56,12.47c2.094,1.878,4.959,2.644,7.71,2.061c2.7-0.59,6.181-2.54,6.71-5.26
	c3.69-18.86,9.891-37.091,15.381-55.521c1.713-5.72,3.256-11.486,4.63-17.3c0.254-0.742,0.254-1.548,0-2.29
	C262.228,646.14,261.859,645.7,261.44,645.31z"/>
<path fill="#EE8E9E" d="M209.94,719.32c-1.47,2.529-3.72,4.779-4.06,7.689c-0.21,1.75,0.33,3.51,0.32,5.271
	c-0.067,1.461-0.326,2.906-0.771,4.3c-1.813,6.554-3.903,13.017-6.27,19.39c-0.387,0.82-0.556,1.727-0.49,2.63
	c0.24,1.5,1.68,2.48,3.08,3.07c4.43,1.9,9.43,1.771,14.25,1.57c1.394,0.069,2.779-0.253,4-0.93c1.72-1.181,2.149-3.521,2.26-5.61
	c0.33-6-0.69-12.12,0-18.14c0.24-2.19,0.7-4.351,1.05-6.53c0.47-3,0.71-6.2-0.28-9.101c-0.828-2.077-1.979-4.011-3.409-5.729
	c-1.27-1.857-2.878-3.459-4.74-4.72c-0.561-0.341-2.18-1.37-2.75-0.721c-0.29,0.33-0.16,1.21-0.21,1.62
	c-0.07,0.633-0.181,1.261-0.33,1.88C211.237,716.686,210.681,718.053,209.94,719.32z"/>
<path opacity="0.05" enable-background="new    " d="M245.76,564.56c-0.87,1.181-0.69,2.82-0.34,4.24c0.62,2.58,1.649,5,2.49,7.561
	c1.375,4.502,2.443,9.093,3.199,13.739c0.79,4.2,2.44,8.881,1.761,13.101c5.084,9.676,8.435,20.168,9.899,31
	c0.38,2.78-5.8,6.38-5.68,9.189c0.229,5.57,4.68,6,1.39,10.48c-0.16,0.22,1.23,5.2,1,5.42c-1.34,1.61-3,2.89-4.47,4.399
	c-1.85,2.101-3.432,4.422-4.71,6.91c-8.5,15.33-20.77,32.73-17,49.851c0.172,1.267-0.479,2.503-1.62,3.08
	c-1.117,0.548-2.346,0.832-3.59,0.83h-0.59c-2.83-3-3.24-7.721-3-11.94c1-19.41,10.729-37.18,15.38-56.05
	c1.679-6.822,2.683-13.792,3-20.811c1.09-23.439,1.52-48.199-5.1-70.71c-1.381-4.68-3-10-0.54-14.17
	c1.569-2.66,4.47-4.22,7.329-5.359c11.819-4.623,25.002-4.288,36.57,0.93c0.009,0.471-0.008,0.941-0.05,1.41
	c-0.255,2.181-0.005,4.391,0.729,6.46c0.412,0.885,0.659,1.837,0.73,2.81c0,0.061,0.34-3.77,0.33-3.72
	c-7.61,1.1-15.55,6.08-23.16,7.17c-3.957,0.416-7.854,1.275-11.62,2.56C247.185,563.252,246.374,563.813,245.76,564.56z"/>
<path fill="#040530" d="M193.07,523c-1.033,3.253-1.933,6.54-2.699,9.86c-0.352,1.145-0.447,2.354-0.28,3.54
	c0.25,1.109,0.939,2.109,1,3.25c0.18,1.75-1,3.3-1.71,4.93c-1.72,4.15,0.11,8.83,1.92,12.939l5.38,12.211l4.42,10
	c1.311,3,2.63,5.949,3.891,8.949c5.758,13.671,10.462,27.762,14.069,42.15c0.118,0.654,0.362,1.279,0.72,1.84
	c0.75,1,2.101,1.28,3.2,1.891c3.32,1.819,3.69,7.26,0.66,9.52c0.63,7.33-4.87,14.41-7.7,21.2c-6.51,15.609-5.33,33.2-7.569,50
	l2.529-1.47c2.431,1.109,2.341,4.55,3.65,6.88c2,3.5,6.75,4,10.76,3.729c1.244,0,2.472-0.284,3.59-0.83
	c1.142-0.576,1.792-1.813,1.62-3.08c-3.78-17.12,8.49-34.51,17-49.859c1.274-2.489,2.856-4.808,4.71-6.9
	c1.44-1.52,3.13-2.8,4.471-4.4c3.75-4.5,4.229-10.85,4-16.699c-0.599-13.771-4.231-27.238-10.641-39.44c0.67-4.22-1-8.89-1.76-13.09
	c-0.752-4.634-1.817-9.211-3.19-13.7c-0.84-2.53-1.87-5-2.489-7.57c-0.341-1.42-0.521-3.06,0.34-4.239
	c0.639-0.731,1.471-1.269,2.399-1.551c3.77-1.312,7.674-2.196,11.641-2.64l26.16-3.76c0.85-5.37,1.699-11.37,1.119-16.771
	c-1.281-10.231-8.532-18.718-18.439-21.58c-1.15-0.31-2.48-0.51-3.42,0.221C239.306,513.997,215.411,515.537,193.07,523z"/>
<path fill="#EE8E9E" d="M216.85,381.57c0.377,2.556-0.024,5.166-1.149,7.49c-0.782,1.277-1.801,2.394-3,3.29
	c-2.529,2.038-5.47,3.501-8.62,4.29c-1.86,0.459-3.94,0.78-5.16,2.25c-1.84,2.221-0.61,5.57,1,8c2.71,4.2,6.479,8,11.31,9.351
	c3.86,1.05,8,0.399,11.92,1.09c2.86,0.49,5.551,1.67,8.37,2.35c8.155,1.864,16.7-0.521,22.71-6.34
	c-4.189-3.22-8.54-6.64-10.71-11.46c-1.547-3.459-1.837-7.35-0.819-11c1-3.58,3.27-7.06,2.569-10.7c-0.7-3.64-4.3-6.16-7.859-7.39
	c-3.209-0.992-6.509-1.662-9.851-2c-1.85-0.25-13.56-2.84-14.29-1.56c-0.41,0.72,2,5,2.32,5.94
	C216.32,377.23,216.744,379.387,216.85,381.57z"/>
<circle fill="#EE8E9E" cx="231.58" cy="366.35" r="23.76"/>
<path fill="#AF0707" d="M219,405.62l16.109,2.72c3.95,0.799,7.97,1.204,12,1.21c2.205-0.22,4.426-0.22,6.63,0
	c1.521,0.25,3,0.83,4.511,1c1.88,0.24,3.79-0.12,5.67,0.12c3.5,0.45,6.38,2.87,9,5.18c3.109,2.721,6.46,5.891,6.689,10
	c0.055,0.469-0.011,0.943-0.189,1.381c-0.303,0.497-0.708,0.923-1.19,1.25c-3,2.43-4.62,6.06-6.729,9.26
	c-2.175,3.297-4.877,6.212-8,8.63c-0.7-0.45-2,0.74-1.73,1.51c0.271,0.771,1.07,1.32,1.32,2.12c0.57,1.82-1.68,3.16-2.61,4.83
	c-0.93,1.67-0.46,3.79-0.56,5.74c-0.11,2.13-1,4.17-1.24,6.29c-0.65,4.949,1.79,10.159,0.07,14.84c2.12-0.271,4,1.56,4.63,3.6
	c0.437,2.093,0.371,4.258-0.19,6.32c2.771,1.662,4.393,4.724,4.21,7.95c-0.117,0.482-0.042,0.991,0.21,1.42
	c0.229,0.219,0.507,0.379,0.811,0.47c3.033,1.228,5.014,4.178,5,7.45c-0.067,0.527-0.016,1.064,0.149,1.57
	c0.284,0.49,0.682,0.905,1.16,1.21c2.193,1.762,3.467,4.426,3.46,7.239c0,1.88-0.779,3.91-2.46,4.761
	c-3.41,1.729-7.069,2.409-10.819,3.22c-3.452,0.816-6.948,1.434-10.471,1.85c-3.259,0.273-6.53,0.377-9.8,0.311l-21.56-0.091
	c-6,0-12.12,0-18.16-0.449c-5.641-0.38-11.41-1.091-16.87,0.39c-0.68-1.15,0.41-2.5,1.09-3.66c0.767-1.583,1.187-3.312,1.23-5.07
	l1.359-14.359c0.262-1.99,0.295-4.003,0.101-6c-0.29-2.11-1.09-4.11-1.5-6.21c-0.78-4-0.07-8.181-0.25-12.28
	c-0.288-3.618-0.918-7.2-1.88-10.7L184,453.1c-0.681-2.83-1-6.1-2.101-8.81c-3.293-8.44-6.736-16.811-10.33-25.11
	c-0.269-0.734-0.199-1.551,0.19-2.229l3.56-6.38c0.954-1.813,2.044-3.552,3.261-5.2c3.001-3.802,7.253-6.417,12-7.38
	c4.766-0.936,9.708-0.204,14,2.069c1.659,0.891,3.199,2,4.89,2.83C212.32,404.33,215.82,405.84,219,405.62z"/>
<path fill="#AF0707" d="M276.2,421.27l5.619,7.48c0.514,0.637,0.95,1.331,1.301,2.07c0.85,2,0.38,4.26,0.84,6.359
	c0.348,1.341,0.9,2.619,1.64,3.79c2.113,3.713,4.5,7.263,7.141,10.62c1.221,1.701,2.722,3.183,4.439,4.38
	c1.749,1.214,3.941,1.602,6,1.061c-0.865,0.323-1.578,0.958-2,1.779c-2.14,4.23-2.3,9.24-1.39,13.9
	c0.264,1.593,0.791,3.131,1.56,4.55c0.786,1.425,2.056,2.521,3.58,3.09c-0.402,2.883-3.064,4.894-5.947,4.492
	c-0.085-0.012-0.169-0.025-0.253-0.042c-1.104-0.336-2.145-0.853-3.08-1.53l-9-5.829c-1.499-0.906-2.903-1.962-4.189-3.15
	c-1.681-1.68-2.86-3.81-4.5-5.54c-2.79-3-6.891-4.72-8.87-8.27c-1.23-2.23-1.45-4.86-2.21-7.29c-0.5-1.591-1.23-3.091-1.71-4.69
	c-1.48-4.93-0.41-10.36,1.85-15S272.87,425.21,276.2,421.27z"/>
<path fill="#040530" d="M255.05,352.81c-2.196-3.412-5.036-6.363-8.36-8.69c-4.43-3.32-9.54-6.07-15.069-6.38
	c-2.317-0.118-4.632,0.261-6.79,1.11c-0.101-6.71-1.771-11.18-5.95-10.5c-7.811,1.25-16.5,4.26-19.49,11.58
	c-2.25,5.53-0.51,11.76,0.07,17.71c0.219,1.568,0.161,3.162-0.17,4.71c-0.641,2.51-2.42,4.54-4.13,6.48
	c-2.388,2.465-4.393,5.272-5.95,8.33c-1.41,3.13-1.851,6.86-0.4,10c0.499,0.801,0.838,1.69,1,2.62c0.09,2-2,3.32-3.6,4.62
	c-5.86,4.85-5.61,13.69-5.66,21.31c-0.108,15.56-3.584,30.911-10.19,45c5.056,2.57,11.17,1.776,15.4-2
	c-0.814,3.473-1.987,6.851-3.5,10.08c5,2.399,10.94-1.54,13.43-6.46c2.49-4.92,2.78-10.641,4.55-15.86c1.771-5.22,4.91-9.76,6.25-15
	c0.45-1.74,0.721-3.59,1.78-5c0.895-1.045,1.947-1.942,3.12-2.66c5.12-3.67-2.41-31.479-0.41-37.459c3,0.66,8.44-13.69,11.55-28.28
	c2.171,0.745,4.485,0.975,6.761,0.67c0.794-0.17,1.609-0.228,2.42-0.17c0.749,0.159,1.463,0.45,2.109,0.86
	c2.297,1.418,4.701,2.656,7.19,3.7c5.16,1.92,10.83,1.67,16.32,1.39C258.084,360.469,257.269,356.282,255.05,352.81z"/>
<g opacity="0.1">
	<path d="M173.15,460.71c6.602-14.09,10.078-29.44,10.19-45c0-7.62-0.21-16.46,5.66-21.31c1.56-1.3,3.689-2.59,3.59-4.62
		c-0.157-0.931-0.497-1.821-1-2.62c-1.46-3.1-1-6.83,0.39-10c1.562-3.056,3.566-5.863,5.95-8.33c1.71-1.94,3.5-4,4.14-6.48
		c0.327-1.549,0.385-3.142,0.17-4.71c-0.579-6-2.329-12.18-0.069-17.71c2.89-7.09,11.12-10.13,18.729-11.45
		c-0.645-0.212-1.333-0.257-2-0.13c-7.81,1.25-16.5,4.26-19.489,11.58c-2.25,5.53-0.511,11.76,0.069,17.71
		c0.22,1.568,0.162,3.162-0.17,4.71c-0.64,2.51-2.42,4.54-4.13,6.48c-2.387,2.465-4.393,5.272-5.95,8.33
		c-1.41,3.13-1.85,6.86-0.399,10c0.498,0.801,0.838,1.69,1,2.62c0.09,2-2,3.32-3.601,4.62c-5.859,4.85-5.609,13.69-5.66,21.31
		c-0.107,15.56-3.584,30.911-10.189,45c2.323,1.201,4.949,1.691,7.55,1.41C176.26,461.965,174.637,461.485,173.15,460.71z"/>
	<path d="M185.05,468.77c1.51-3.229,2.68-6.607,3.49-10.079c-0.999,0.923-2.141,1.679-3.38,2.239
		c-0.754,2.689-1.727,5.312-2.91,7.84c1.428,0.683,3.036,0.89,4.59,0.591C186.221,469.24,185.619,469.042,185.05,468.77z"/>
	<path d="M227.63,338.85c1.447-0.571,2.97-0.928,4.52-1.06l-0.529-0.05c-1.341-0.068-2.685,0.032-4,0.3
		C227.61,338.31,227.63,338.57,227.63,338.85z"/>
	<path d="M243.8,363.05c-2.491-1.046-4.898-2.284-7.2-3.7c-0.645-0.413-1.36-0.705-2.11-0.86c-0.739-0.063-1.483-0.016-2.21,0.14
		c0.534,0.187,1.047,0.428,1.53,0.72c2.297,1.418,4.701,2.655,7.19,3.7c3.882,1.276,7.971,1.805,12.05,1.56
		C249.902,364.607,246.776,364.08,243.8,363.05z"/>
	<path d="M225.32,357.99c-0.05,0.21-0.1,0.42-0.14,0.64c1.169,0.175,2.354,0.205,3.53,0.09
		C227.556,358.607,226.418,358.362,225.32,357.99z"/>
</g>
<path fill="#EE8E9E" d="M175.86,468.15c0.289,2.544-0.564,5.085-2.33,6.939c-0.987,0.956-2.102,1.773-3.31,2.43
	c-1.17,0.807-2.519,1.315-3.93,1.48c-1.884-0.063-3.672-0.844-5-2.18c-4.13-3.631-6.2-9-8.11-14.17
	c-2.53-6.83-5.05-13.73-6.13-20.94c-1.16-7.73-0.67-15.74-2.88-23.24c2-3.93,3.22-8.26,5.45-12.05c1.423-2.255,2.68-4.611,3.76-7.05
	c2.07-5.184,2.29-10.923,0.62-16.25c0.804-0.526,1.856-0.47,2.6,0.14c0.715,0.604,1.257,1.388,1.57,2.27
	c1.284,3.01,1.816,6.288,1.55,9.55c-0.153,0.79-0.055,1.608,0.28,2.34c0.623,0.748,1.569,1.146,2.54,1.07
	c1.992-0.094,3.963-0.453,5.859-1.07c5.898-1.499,12.006-2.002,18.07-1.49c1.221,0.035,2.421,0.328,3.521,0.86
	c1.117,0.558,1.822,1.701,1.819,2.95l-14.45,2.109c-1.072,0.056-2.108,0.401-3,1c-0.9,0.64-1.112,1.889-0.473,2.789
	c0.018,0.024,0.035,0.048,0.053,0.071c0.313,0.253,0.647,0.478,1,0.67c1.286,1.045,1.482,2.934,0.438,4.22
	c-0.162,0.2-0.35,0.378-0.558,0.53c-0.376,0.156-0.716,0.388-1,0.68c-0.59,0.79,0.2,1.841,0.44,2.801
	c0.226,1.442-0.463,2.875-1.73,3.6c-1.244,0.679-2.598,1.136-4,1.35c-2.839,0.651-5.604,1.594-8.25,2.811
	c-0.863,0.3-1.614,0.858-2.149,1.6c-0.71,1.21-0.24,2.74,0.25,4.05l3.76,10.141c0.59,1.59,1.18,3.18,1.92,4.7
	c1,2,2.141,3.859,3.12,5.83c0.878,1.853,1.662,3.748,2.35,5.68C171.43,459.57,175.22,462.67,175.86,468.15z"/>
<path fill="#EE8E9E" d="M342.93,399.87c-0.804,0.597-1.384,1.445-1.65,2.41c-0.112,0.403,0.04,0.835,0.38,1.08
	c0.218,0.069,0.452,0.069,0.67,0c1.069-0.204,2.068-0.68,2.9-1.38c-0.331,0.177-0.626,0.414-0.87,0.699
	c-0.237,0.303-0.28,0.715-0.109,1.061c0.235,0.289,0.578,0.47,0.949,0.5c1.394,0.254,2.827,0.186,4.19-0.2
	c-0.639,0.225-1.231,0.563-1.75,1c-0.514,0.455-0.799,1.114-0.78,1.8c-0.006,0.262,0.108,0.513,0.311,0.68
	c0.141,0.083,0.297,0.138,0.46,0.16c1.286,0.226,2.603,0.226,3.89,0c0.682-0.031,1.3-0.408,1.64-1
	c0.135-0.652-0.003-1.331-0.38-1.88c-0.703-1.485-1.046-3.116-1-4.76c0.043-0.34-0.005-0.686-0.14-1
	c-0.217-0.296-0.521-0.517-0.87-0.63c-1.38-0.61-3.24-1.45-4.78-0.95C344.82,398.052,343.78,398.871,342.93,399.87z"/>
<path fill="#040530" d="M374.579,367.88l-47.72,25.82c-0.481,0.27-0.653,0.879-0.383,1.361c0.104,0.184,0.262,0.33,0.453,0.418
	l8.14,3.07c0.476,0.178,0.86,0.538,1.07,1l6.33,13c0.12,0.58,1.18,0.73,1.189,0.15l-1-10.771c0.059-0.796,0.362-1.554,0.87-2.17
	l24.74-24.24c0.141-0.143,0.345-0.204,0.54-0.16c0.306,0.075,0.493,0.383,0.419,0.689c-0.02,0.081-0.057,0.156-0.109,0.221
	l-21.29,26.15c-0.452,0.637-0.74,1.375-0.84,2.15l-1.27,9.3c0.1,0.81,0.74,1.12,1.25,0.39l4.6-5.39
	c0.318-0.415,0.902-0.516,1.34-0.23l11.851,8.63c0.467,0.295,1.084,0.155,1.379-0.313c0.054-0.086,0.095-0.179,0.121-0.277
	l9.74-47.72c0.094-0.544-0.271-1.062-0.816-1.155c-0.197-0.034-0.401-0.008-0.584,0.075H374.579z"/>
<ellipse fill="#AF0707" cx="917.079" cy="803.39" rx="59.471" ry="11.44"/>
<ellipse fill="#040530" cx="916.09" cy="798.53" rx="6.92" ry="9.06"/>
<ellipse fill="#040530" cx="916.09" cy="787.46" rx="6.92" ry="9.06"/>
<ellipse fill="#040530" cx="916.09" cy="776.38" rx="6.92" ry="9.06"/>
<ellipse fill="#040530" cx="916.09" cy="765.3" rx="6.92" ry="9.06"/>
<ellipse fill="#040530" cx="916.09" cy="754.22" rx="6.92" ry="9.06"/>
<ellipse fill="#040530" cx="916.09" cy="743.15" rx="6.92" ry="9.06"/>
<ellipse fill="#040530" cx="916.09" cy="732.07" rx="6.92" ry="9.06"/>
<path fill="#AF0707" d="M942,656.26c0.941-1.205,1.803-2.472,2.579-3.79l-18.199-3l19.68,0.15c3.809-8.302,4.036-17.805,0.63-26.28
	l-26.39,13.69l24.34-17.891c-9.151-15.869-29.436-21.315-45.305-12.164c-15.87,9.151-21.316,29.435-12.165,45.305
	c0.8,1.387,1.698,2.713,2.689,3.97c-1.464,1.864-2.73,3.875-3.78,6l23.62,12.27l-25.18-8.449c-3.592,10.615-1.583,22.327,5.34,31.14
	c-11.317,14.398-8.82,35.245,5.578,46.563c14.397,11.317,35.244,8.82,46.563-5.577c9.453-12.026,9.453-28.959,0-40.985
	c9.446-12.034,9.446-28.966,0-41V656.26z"/>
<path opacity="0.1" enable-background="new    " d="M882.78,676.77c-0.014,7.438,2.484,14.661,7.09,20.5
	c-11.317,14.398-8.82,35.245,5.578,46.563c14.398,11.318,35.244,8.821,46.563-5.577c9.453-12.026,9.453-28.959,0-40.985
	C946.449,691.63,882.78,673.05,882.78,676.77z"/>
<ellipse fill="#AF0707" cx="358.05" cy="772.77" rx="33.95" ry="6.53"/>
<ellipse fill="#040530" cx="358.619" cy="769.99" rx="3.95" ry="5.17"/>
<ellipse fill="#040530" cx="358.619" cy="763.67" rx="3.95" ry="5.17"/>
<ellipse fill="#040530" cx="358.619" cy="757.34" rx="3.95" ry="5.17"/>
<ellipse fill="#040530" cx="358.619" cy="751.02" rx="3.95" ry="5.17"/>
<ellipse fill="#040530" cx="358.619" cy="744.69" rx="3.95" ry="5.17"/>
<ellipse fill="#040530" cx="358.619" cy="738.37" rx="3.95" ry="5.17"/>
<ellipse fill="#040530" cx="358.619" cy="732.05" rx="3.95" ry="5.17"/>
<path fill="#AF0707" d="M343.82,688.77c-0.54-0.688-1.031-1.413-1.47-2.17l10.38-1.699l-11.229,0.08
	c-2.173-4.739-2.304-10.163-0.36-15l15.07,7.819l-13.9-10.22c5.202-9.075,16.776-12.215,25.851-7.012
	c9.075,5.202,12.215,16.775,7.013,25.851c-0.472,0.822-1.004,1.608-1.594,2.351c0.847,1.066,1.57,2.224,2.16,3.45l-13.479,7
	l14.38-4.8c0.66,1.959,0.998,4.013,1,6.08c0.005,4.246-1.426,8.37-4.061,11.7c6.463,8.218,5.04,20.119-3.178,26.581
	c-8.218,6.463-20.119,5.04-26.582-3.178c-5.399-6.867-5.399-16.537,0-23.403c-5.399-6.869-5.399-16.541,0-23.41V688.77z"/>
<path fill="#AF0707" d="M377.64,700.48c0.005,4.246-1.426,8.369-4.061,11.699c6.463,8.219,5.04,20.119-3.178,26.582
	s-20.119,5.04-26.582-3.179c-5.399-6.866-5.399-16.536,0-23.403C341.28,708.96,377.64,698.35,377.64,700.48z"/>
<ellipse fill="#AF0707" cx="105.17" cy="720.25" rx="22.83" ry="4.39"/>
<ellipse fill="#040530" cx="105.56" cy="718.39" rx="2.66" ry="3.48"/>
<ellipse fill="#040530" cx="105.56" cy="714.14" rx="2.66" ry="3.48"/>
<ellipse fill="#040530" cx="105.56" cy="709.88" rx="2.66" ry="3.48"/>
<ellipse fill="#040530" cx="105.56" cy="705.63" rx="2.66" ry="3.48"/>
<ellipse fill="#040530" cx="105.56" cy="701.38" rx="2.66" ry="3.48"/>
<ellipse fill="#040530" cx="105.56" cy="697.13" rx="2.66" ry="3.48"/>
<ellipse fill="#040530" cx="105.56" cy="692.88" rx="2.66" ry="3.48"/>
<path fill="#AF0707" d="M95.61,663.78c-0.372-0.459-0.706-0.947-1-1.46l7-1.141h-7.55c-1.468-3.182-1.559-6.829-0.25-10.08
	l10.13,5.32l-9.35-6.87c3.47-6.114,11.239-8.259,17.354-4.789c6.114,3.47,8.259,11.239,4.789,17.354
	c-0.336,0.592-0.718,1.155-1.144,1.686c0.564,0.72,1.05,1.498,1.45,2.32L108,670.81l9.66-3.239c0.447,1.313,0.674,2.692,0.67,4.08
	c0.003,2.854-0.955,5.627-2.721,7.869c4.359,5.523,3.417,13.534-2.106,17.894c-5.522,4.36-13.534,3.417-17.894-2.106
	c-3.653-4.628-3.653-11.158,0-15.787C91.97,674.904,91.97,668.396,95.61,663.78L95.61,663.78z"/>
<path opacity="0.1" enable-background="new    " d="M118.34,671.65c0.004,2.854-0.955,5.627-2.72,7.869
	c4.359,5.523,3.416,13.534-2.106,17.894c-5.523,4.36-13.534,3.417-17.894-2.106c-3.653-4.628-3.653-11.158,0-15.787
	C93.9,677.36,118.34,670.22,118.34,671.65z"/>
</svg>
