<?xml version="1.0" encoding="utf-8"?>
<!-- Generator: Adobe Illustrator 16.0.0, SVG Export Plug-In . SVG Version: 6.00 Build 0)  -->
<!DOCTYPE svg PUBLIC "-//W3C//DTD SVG 1.1//EN" "http://www.w3.org/Graphics/SVG/1.1/DTD/svg11.dtd">
<svg version="1.1" id="b43bf247-fd00-4c66-86de-2f4e4870ba29"
	 xmlns="http://www.w3.org/2000/svg" xmlns:xlink="http://www.w3.org/1999/xlink" x="0px" y="0px" width="1113.58px"
	 height="784.41px" viewBox="0 0 1113.58 784.41" enable-background="new 0 0 1113.58 784.41" xml:space="preserve">
<title>visual data</title>
<ellipse opacity="0.1" fill="#0B75CE" enable-background="new    " cx="965.001" cy="767.42" rx="64" ry="16.99"/>
<path opacity="0.1" fill="#0B75CE" enable-background="new    " d="M1070.551,694.89c-24.351,20.2-59,28.561-92.511,33.841
	l-5.64,0.859c-35,5.22-70.39,8-105.9,9.69c-19,0.92-38,1.569-57,2.149l-14.89,0.44c-19.333,0.573-38.703,1.137-58.11,1.69
	c-19,0.539-38,1.046-57,1.52c-24.333,0.594-48.666,1.087-73,1.48c-19,0.3-38,0.506-57,0.619c-24.34,0.141-48.673,0.094-73-0.14
	c-19.013-0.193-38.013-0.526-57-1c-24.347-0.627-48.68-1.543-73-2.75c-16.506-0.807-33.003-1.776-49.49-2.91l-7.51-0.53
	c-70.77-5.1-142.81-14.25-204.74-43.17l-1.67-0.79c-0.83-0.39-1.659-0.779-2.489-1.189c-11.371-5.437-22.263-11.822-32.561-19.09
	c-18.31-13.061-33.43-29-41.42-47.91c-12.52-29.66-5.9-63,8.4-92c14.3-29,35.77-55.181,54.34-82.49c5.439-8,10.6-16.3,15.399-24.81
	c30-53.37,44.881-115.13,13.431-166.561c-4.151-6.557-8.634-12.898-13.431-19c-7.67-10-15.47-20-20.739-31.07
	c-12.29-25.76-9.65-54.73-5.17-82.25c6-36.59,17-76,51.38-98.86c35.67-23.74,86.3-22.54,130.569-14
	c68.831,13.19,132.36,40.8,196.49,65.7c64.131,24.9,131.311,47.67,201.82,50.12c15.146,0.519,30.312-0.033,45.38-1.65l0,0
	c20.089-2.064,39.905-6.237,59.12-12.45c27.75-9.14,53-22.89,71.72-42c40.15-40.85,115.601-43.94,170-19.27
	c51.91,23.54,85.48,73.36,83.001,123.12c-2.82,55.39-44.301,100.93-82.311,147.64c-4.61,5.66-9.16,11.34-13.59,17.06
	c-2.474,3.193-4.9,6.393-7.28,9.6l0,0c-4.17,5.66-8.2,11.35-12,17.11c-19.42,29.53-33.15,65-19.78,96.879
	c7.5,17.851,21.811,31.471,39.061,43.36c38.649,26.63,92,44.55,116,81.83C1109.11,625.84,1101.45,669.21,1070.551,694.89z"/>
<g opacity="0.1">
	<path fill="#040530" d="M555.501,549.35c0.039,0.94,0.109,1.86,0.21,2.761c7.779-3.101,15.416-6.434,22.909-10
		c3.999-0.531,7.717-2.35,10.591-5.181c2.189-1.1,4.369-2.25,6.529-3.399c-0.488-1.034-1.043-2.037-1.659-3
		c-4.211-6.65-10.61-10.811-17.66-10.58c-7.051,0.229-13.15,4.8-16.92,11.689C556.608,537.08,555.226,543.195,555.501,549.35z"/>
	<path fill="#040530" d="M554.35,514.38c0.15,6.128,1.928,12.105,5.15,17.32c4.22,6.63,10.619,10.79,17.67,10.56
		c0.489,0,1-0.069,1.449-0.109c3.999-0.531,7.717-2.35,10.591-5.181c1.95-1.855,3.594-4.009,4.869-6.38
		c5.737-11.069,5.306-24.327-1.14-35c-4.22-6.649-10.62-10.81-17.67-10.58c-7.05,0.23-13.14,4.8-16.91,11.69
		C555.47,502.13,554.086,508.234,554.35,514.38z"/>
	
		<ellipse transform="matrix(-0.0328 -0.9995 0.9995 -0.0328 115.518 1069.1449)" fill="#040530" cx="575.077" cy="478.678" rx="28.63" ry="21.87"/>
	
		<ellipse transform="matrix(-0.0328 -0.9995 0.9995 -0.0328 149.2876 1031.8955)" fill="#040530" cx="573.93" cy="443.714" rx="28.63" ry="21.87"/>
	
		<ellipse transform="matrix(-0.0328 -0.9995 0.9995 -0.0328 183.0583 994.6284)" fill="#040530" cx="572.784" cy="408.741" rx="28.63" ry="21.87"/>
	<path fill="#0B75CE" d="M646.79,166.77c2.862-3.898,5.448-7.992,7.74-12.25l-57.74-7.54l62.12-1.58
		c11.183-26.588,10.923-56.609-0.72-83l-81.91,45.95l75-59c-30.787-48.979-95.451-63.727-144.43-32.939
		c-48.979,30.787-63.728,95.451-32.939,144.43c2.495,3.97,5.255,7.769,8.26,11.369c-4.457,6.07-8.249,12.601-11.311,19.48
		l75.811,36.28l-80.36-24.06c-10.236,33.889-2.673,70.654,20.11,97.75c-34.238,46.625-24.196,112.179,22.43,146.416
		c46.626,34.238,112.179,24.196,146.417-22.43c28.612-38.965,26.841-92.45-4.287-129.437
		C679.611,257.263,677.88,203.784,646.79,166.77z"/>
	<path opacity="0.1" enable-background="new    " d="M461.89,237.63c0.73,23.488,9.374,46.041,24.53,64
		c-34.247,46.62-24.217,112.174,22.402,146.421s112.174,24.217,146.421-22.402c28.62-38.96,26.858-92.446-4.264-129.438
		C664.43,277.95,461.51,225.88,461.89,237.63z"/>
</g>
<g opacity="0.1">
	<path fill="#040530" d="M326.18,733.56c0,0.66-0.07,1.32-0.15,2c-5.533-2.199-10.97-4.557-16.31-7.069
		c-2.846-0.372-5.492-1.66-7.54-3.67c-1.561-0.794-3.11-1.601-4.65-2.42c0.348-0.731,0.741-1.439,1.18-2.12
		c3-4.74,7.54-7.7,12.561-7.54c5.02,0.16,9.36,3.399,12,8.3C325.338,724.88,326.342,729.202,326.18,733.56z"/>
	<path fill="#040530" d="M326.961,708.67c-0.099,4.36-1.355,8.615-3.641,12.33c-3,4.72-7.55,7.69-12.56,7.53l-1-0.08
		c-2.846-0.372-5.492-1.66-7.54-3.67c-1.392-1.319-2.563-2.852-3.471-4.54c-4.078-7.87-3.783-17.291,0.78-24.891
		c3-4.739,7.55-7.699,12.561-7.539c5.01,0.159,9.359,3.399,12.05,8.3C326.183,699.971,327.157,704.307,326.961,708.67z"/>
	
		<ellipse transform="matrix(-0.9995 -0.0316 0.0316 -0.9995 602.6827 1376.1938)" fill="#040530" cx="312.216" cy="683.334" rx="15.56" ry="20.37"/>
	
		<ellipse transform="matrix(-0.9995 -0.0316 0.0316 -0.9995 605.0215 1326.4592)" fill="#040530" cx="312.992" cy="658.449" rx="15.56" ry="20.37"/>
	
		<ellipse transform="matrix(-0.9995 -0.0316 0.0316 -0.9995 607.4041 1276.6953)" fill="#040530" cx="313.781" cy="633.553" rx="15.56" ry="20.37"/>
	<path fill="#0B75CE" d="M260.91,461.38c-2.039-2.774-3.887-5.685-5.53-8.71l41.08-5.46l-44.21-1
		c-7.985-18.916-7.826-40.285,0.44-59.08l58.33,32.63l-53.42-41.95c21.755-34.949,67.724-45.645,102.673-23.889
		s45.645,67.724,23.89,102.673c-1.847,2.966-3.899,5.798-6.143,8.477c3.182,4.315,5.887,8.963,8.07,13.859l-53.92,25.88
		l57.17-17.199c7.31,24.112,1.962,50.286-14.221,69.6c24.416,33.146,17.34,79.808-15.806,104.224s-79.809,17.339-104.225-15.807
		c-20.403-27.698-19.2-65.762,2.91-92.117c-20.404-27.698-19.202-65.764,2.91-92.12V461.38z"/>
	<path opacity="0.1" enable-background="new    " d="M392.51,511.64c-0.502,16.715-6.629,32.771-17.391,45.57
		c24.416,33.146,17.34,79.808-15.806,104.224s-79.809,17.339-104.225-15.807c-20.403-27.698-19.2-65.762,2.91-92.117
		C248.41,540.51,392.79,503.27,392.51,511.64z"/>
</g>
<g opacity="0.1">
	<path fill="#040530" d="M846.95,603.51c0,0.67-0.069,1.32-0.14,2c-5.54-2.199-10.977-4.557-16.311-7.069
		c-2.848-0.374-5.497-1.662-7.55-3.671c-1.55-0.789-3.109-1.6-4.649-2.42c0.351-0.729,0.745-1.437,1.18-2.119
		c3-4.74,7.54-7.7,12.56-7.54c5.021,0.159,9.36,3.399,12,8.3C846.107,594.83,847.112,599.152,846.95,603.51z"/>
	<path fill="#040530" d="M847.79,578.62c-0.102,4.361-1.36,8.616-3.649,12.33c-3,4.72-7.54,7.689-12.561,7.53l-1-0.08
		c-2.848-0.374-5.497-1.662-7.55-3.67c-1.387-1.323-2.558-2.854-3.47-4.54c-4.078-7.87-3.783-17.292,0.78-24.891
		c3-4.729,7.55-7.7,12.56-7.54s9.37,3.4,12.05,8.301C847,569.919,847.98,574.255,847.79,578.62z"/>
	
		<ellipse transform="matrix(-0.9995 -0.0316 0.0316 -0.9995 1648.1399 1132.601)" fill="#040530" cx="833.02" cy="553.277" rx="15.56" ry="20.37"/>
	
		<ellipse transform="matrix(-0.9995 -0.0316 0.0316 -0.9995 1650.5001 1082.8667)" fill="#040530" cx="833.807" cy="528.391" rx="15.56" ry="20.37"/>
	
		<ellipse transform="matrix(-0.9995 -0.0316 0.0316 -0.9995 1652.8604 1033.1326)" fill="#040530" cx="834.594" cy="503.505" rx="15.56" ry="20.37"/>
	<path fill="#0B75CE" d="M781.68,331.33c-2.042-2.771-3.886-5.681-5.521-8.71l41.08-5.41l-44.21-1.07
		c-7.981-18.916-7.826-40.283,0.43-59.08l58.33,32.63l-53.42-41.93c21.693-34.995,67.647-45.778,102.642-24.085
		c34.995,21.692,45.778,67.646,24.086,102.642c-1.891,3.049-3.998,5.958-6.308,8.704c3.179,4.316,5.881,8.963,8.061,13.86
		l-53.92,25.88l57.17-17.2c7.321,24.109,1.973,50.286-14.22,69.59c24.417,33.137,17.348,79.794-15.789,104.212
		c-33.138,24.417-79.795,17.348-104.212-15.789c-20.41-27.699-19.207-65.769,2.91-92.123c-20.404-27.699-19.202-65.765,2.91-92.12
		H781.68z"/>
	<path opacity="0.1" enable-background="new    " d="M913.29,381.59c-0.5,16.714-6.632,32.768-17.399,45.561
		c24.414,33.14,17.34,79.796-15.8,104.21c-33.141,24.414-79.797,17.34-104.211-15.8c-20.403-27.696-19.2-65.758,2.91-92.11
		C769.19,410.46,913.551,373.21,913.29,381.59z"/>
</g>
<ellipse fill="#AF0707" cx="193.5" cy="750.89" rx="57.01" ry="10.96"/>
<ellipse fill="#040530" cx="192.55" cy="746.23" rx="6.641" ry="8.69"/>
<ellipse fill="#040530" cx="192.55" cy="735.61" rx="6.641" ry="8.69"/>
<ellipse fill="#040530" cx="192.55" cy="724.99" rx="6.641" ry="8.69"/>
<ellipse fill="#040530" cx="192.55" cy="714.37" rx="6.641" ry="8.69"/>
<ellipse fill="#040530" cx="192.55" cy="703.75" rx="6.641" ry="8.69"/>
<ellipse fill="#040530" cx="192.55" cy="693.13" rx="6.641" ry="8.69"/>
<ellipse fill="#040530" cx="192.55" cy="682.51" rx="6.641" ry="8.69"/>
<path fill="#AF0707" d="M217.4,609.83c0.905-1.156,1.73-2.372,2.47-3.64l-17.439-2.87l18.859,0.149
	c3.655-7.96,3.876-17.072,0.61-25.2L196.59,591.4l23.341-17.19c-8.807-15.195-28.265-20.374-43.459-11.567
	c-15.195,8.807-20.374,28.264-11.567,43.459c0.747,1.29,1.585,2.526,2.506,3.698c-1.41,1.799-2.624,3.743-3.62,5.8l22.641,11.761
	l-24.141-8.101c-3.445,10.18-1.52,21.41,5.12,29.86c-10.854,13.807-8.46,33.799,5.347,44.653c13.808,10.854,33.8,8.46,44.653-5.348
	c9.066-11.533,9.066-27.772,0-39.306c9.066-11.539,9.066-27.781,0-39.32L217.4,609.83z"/>
<path opacity="0.1" enable-background="new    " d="M160.61,629.49c-0.012,7.132,2.384,14.059,6.8,19.66
	c-10.854,13.807-8.46,33.799,5.347,44.652c13.808,10.854,33.8,8.46,44.653-5.347c9.066-11.533,9.066-27.772,0-39.306
	C221.66,643.74,160.61,625.92,160.61,629.49z"/>
<path fill="#040530" d="M346.501,517.21v226c-16.507-0.807-33.004-1.776-49.49-2.91l-7.511-0.53V517.21
	c0-4.871,3.949-8.82,8.82-8.82l0,0h39.36C342.552,508.39,346.501,512.339,346.501,517.21z"/>
<path fill="#040530" d="M419.501,746.02V366.21c0-4.871,3.948-8.82,8.819-8.82l0,0h39.36c4.871,0,8.82,3.949,8.82,8.82l0,0v380.8
	L419.501,746.02z"/>
<path fill="#040530" d="M549.501,747.21v-302c0-4.871,3.948-8.82,8.819-8.82l0,0h39.36c4.871,0,8.82,3.949,8.82,8.82l0,0v301.35
	L549.501,747.21z"/>
<path fill="#040530" d="M736.501,221.21v522.35c-19,0.54-38,1.047-57,1.521V221.21c0-4.871,3.948-8.82,8.819-8.82l0,0h39.36
	C732.552,212.39,736.501,216.339,736.501,221.21L736.501,221.21z"/>
<path fill="#040530" d="M866.501,326.21v413c-19,0.92-38,1.57-57,2.15V326.21c0-4.871,3.948-8.82,8.819-8.82l0,0h39.36
	C862.552,317.39,866.501,321.339,866.501,326.21L866.501,326.21z"/>
<polyline fill="none" stroke="#3F3D56" stroke-width="7" stroke-linecap="round" stroke-miterlimit="10" points="318.501,385.41 
	448.501,240.41 578.501,313.41 708.501,89.41 838.501,196.41 "/>
<circle fill="#AF0707" cx="318.001" cy="385.41" r="28"/>
<circle fill="#AF0707" cx="448.001" cy="240.41" r="28"/>
<circle fill="#AF0707" cx="578.001" cy="313.41" r="28"/>
<circle fill="#AF0707" cx="708.001" cy="89.41" r="28"/>
<circle fill="#AF0707" cx="958.001" cy="327.41" r="28"/>
<ellipse opacity="0.1" fill="#0B75CE" enable-background="new    " cx="233.68" cy="722.61" rx="18.68" ry="3.16"/>
<path fill="#A8A8A8" d="M221.14,707.94c0,0,10.649-0.33,13.859-2.62s16.391-5,17.19-1.351c0.8,3.65,16,18.24,4,18.341
	c-12,0.1-27.95-1.881-31.15-3.83C221.84,716.53,221.14,707.94,221.14,707.94z"/>
<path opacity="0.2" enable-background="new    " d="M256.38,721.03c-12,0.1-27.939-1.87-31.149-3.82c-2.44-1.49-3.41-6.82-3.74-9.28
	h-0.35c0,0,0.67,8.59,3.88,10.54s19.12,3.931,31.149,3.83c3.471,0,4.67-1.26,4.601-3.09C260.29,720.32,258.97,721.01,256.38,721.03z
	"/>
<ellipse opacity="0.1" fill="#0B75CE" enable-background="new    " cx="1063.801" cy="749.41" rx="34.31" ry="5.8"/>
<path fill="#A8A8A8" d="M1040.79,722.46c0,0,19.57-0.6,25.471-4.8c5.899-4.2,30.1-9.21,31.56-2.48c1.46,6.73,29.42,33.5,7.32,33.681
	c-22.101,0.18-51.34-3.44-57.23-7C1042.02,738.3,1040.79,722.46,1040.79,722.46z"/>
<path opacity="0.2" enable-background="new    " d="M1105.51,746.52c-22.101,0.181-51.34-3.439-57.23-7
	c-4.479-2.729-6.27-12.529-6.87-17h-0.649c0,0,1.24,15.79,7.12,19.37s35.14,7.21,57.229,7c6.38,0,8.58-2.319,8.46-5.68
	C1112.68,745.21,1110.251,746.48,1105.51,746.52z"/>
<linearGradient id="SVGID_1_" gradientUnits="userSpaceOnUse" x1="1500.9617" y1="198.915" x2="1657.5681" y2="198.915" gradientTransform="matrix(-1 0 0 -1 2507.0093 750.6748)">
	<stop  offset="0" style="stop-color:#808080;stop-opacity:0.25"/>
	<stop  offset="0.54" style="stop-color:#808080;stop-opacity:0.12"/>
	<stop  offset="1" style="stop-color:#808080;stop-opacity:0.1"/>
</linearGradient>
<path fill="url(#SVGID_1_)" d="M849.6,344.58c0.186,1.751,0.881,3.41,2,4.77c1.45,1.64,3.62,2.39,5.57,3.37
	c5.046,2.583,8.9,7.014,10.76,12.37c3.33,9.72,3.76,20,8,29.381c4.24,9.379,9.22,18.39,12.88,27.999
	c2.08,5.45,3.74,11.12,6.79,16.08c1.477,2.439,3.36,4.607,5.57,6.41c-0.23,3.521-0.32,7-0.301,10.521
	c1.374-0.027,2.665,0.652,3.42,1.8c0.74,1.14,1.25,2.414,1.5,3.75c1.37,5.67-0.319,11.71,0.91,17.409
	c3.38,15.855,2.342,32.334-3,47.641c-1.37,3.88-3.09,16.72-1.63,20.57c5.44-0.551,10.26,2.789,15.351,5
	c0.411,3.017,0.165,6.087-0.721,9c-1.83,5.27-1.819,11-1.79,16.569l0.25,41.261c0,5.229,0.07,10.529,1.38,15.6
	c1.49,5.71,4.62,11.53,4.521,17.43c-0.271,12.7,5.729,24.8,5.25,37.4c-0.09,2.42-0.42,4.82-0.65,7.22
	c-0.59,6.394-0.429,12.834,0.48,19.19c1.819,12.66,6.63,25.109,5.43,37.84c-0.08,0.859-0.37,2-1.18,2.33c1,1.13,2.06,2.25,3.14,3.32
	c-0.219,0.364-0.516,0.675-0.87,0.909c-1.182,0.617-2.487,0.959-3.819,1c-1.563,0.041-3.082,0.534-4.37,1.42
	c-0.938,0.899-1.573,2.065-1.82,3.341c-0.72,2.548-0.281,5.284,1.2,7.479c0.893,1.124,2.061,1.999,3.39,2.54
	c4.62,2,9.92,0.55,14.74-0.91l18.88-5.72c1.151-0.239,2.215-0.793,3.07-1.6c0.392-0.463,0.65-1.022,0.75-1.62
	c4.17,1,8.75-0.23,13-1.5l18.88-5.73c1.153-0.234,2.217-0.789,3.07-1.6c0.688-0.837,0.97-1.936,0.77-3
	c0.14-0.061,0.28-0.101,0.42-0.17c1.44-0.65,3-1.92,2.65-3.45c-0.25-1-1.25-1.58-1.681-2.5c-0.411-1.218-0.145-2.562,0.7-3.53
	c0.74-1,1.74-1.83,2.42-2.88c2.181-3.34,0.7-7.729-0.12-11.64c-1.77-8.351-0.13-17.07-1.25-25.53c-0.38-2.85-1.069-5.65-1.619-8.48
	c-1.166-6.688-1.938-13.44-2.311-20.22c-0.72-9.68-3.41-19.22-1.87-28.82c0.748-5.634,1.065-11.317,0.95-17
	c0.108-3.619-0.048-7.242-0.47-10.84c-0.391-2.68-1.08-5.31-1.38-8c-0.244-3.023-0.297-6.06-0.16-9.09
	c0.138-6.755-0.486-13.504-1.86-20.12c-2-9.09-5.76-17.79-7.36-26.899c0.54,0.119,1.08,0.239,1.601,0.38
	c0.06-7-6.07-22.22-8.34-28.86c-0.333-0.813-0.535-1.674-0.601-2.55c0.138-1.155,0.348-2.301,0.63-3.43
	c0.29-2.42-1-4.721-1.35-7.141c-0.137-1.702-0.012-3.415,0.37-5.08c1.61-8.95,3.61-17.83,5.61-26.7
	c0.872-3.212,1.173-6.553,0.89-9.869c-0.471-3.557,0.624-7.143,3-9.83c0.879-0.811,1.627-1.752,2.22-2.79
	c0.333-0.892,0.482-1.84,0.44-2.79c-0.04-4.113-0.646-8.202-1.801-12.15c1.761-3.189,2.41-7.109,2.921-10.81
	c1.119-8.17,2.239-16.38,2.199-24.63c0.09-4.401-0.519-8.789-1.8-13c-0.937-2.602-2.08-5.123-3.42-7.541
	c-5.26-10.13-10.29-20.79-16.93-30.07c-2-2.82-0.74-6.71-0.601-10.19c0.15-4.2-1.51-8.23-3.14-12.09
	c-0.832-2.376-2.107-4.572-3.76-6.47c-1.13-1.243-2.721-1.966-4.4-2c-1.905,0.233-3.615,1.28-4.69,2.87
	c-2.442,3.327-3.454,7.493-2.81,11.57c0.664,4.041,2.425,7.821,5.09,10.93c1.287,1.564,2.762,2.965,4.391,4.17
	c1.653,5.253,3.319,10.503,5,15.75c2.64,8.35,5.279,16.74,9,24.64c1.09,2.29,2.289,4.62,2.42,7.15c0.14,2.729-1,5.33-1.91,7.899
	c-1.917,5.357-3.003,10.976-3.22,16.66c-0.293,0.13-0.574,0.284-0.841,0.46c-3.149,2.061-4.14,6.551-7.42,8.391
	c-1.91,1.069-4.229,1-6.37,1.489c-0.189,0-0.38,0.101-0.579,0.16c-0.08-0.399-0.16-0.79-0.211-1.199c-0.03-0.256-0.03-0.515,0-0.771
	c5.1-2.804,9.383-6.883,12.431-11.84c0.642-0.918,1.138-1.93,1.47-3c0.27-1.282,0.32-2.601,0.15-3.9
	c-0.167-4.336-0.787-8.643-1.851-12.85c-1.066-4.228-3.401-8.027-6.689-10.89c-1.641-1.32-3.53-2.311-5.16-3.641
	c-3.18-2.57-5.36-6.37-9-8.28c-4.785-2.331-10.555-0.838-13.61,3.52c-0.483,0.976-1.165,1.84-2,2.54
	c-0.637,0.301-1.257,0.635-1.859,1c-1.101,0.88-1.16,2.57-0.8,3.94c0.682,2.814,1.064,5.694,1.14,8.59
	c-6.665,7.821-6.69,19.318-0.06,27.17c0,1.859,0,3.72-0.07,5.58c0,0.35,0,0.71-0.07,1.06c-1.153-0.401-2.186-1.09-3-2
	c-1.12-1.4-1.319-3.46-2.689-4.61c-0.985-0.649-2.108-1.06-3.28-1.199c-2.912-0.662-5.644-1.956-8-3.79
	c-1.85-1.431-3.771-3.261-5.93-3.681c-3.728-6.991-8.078-13.631-13-19.84c-1.249-1.47-2.385-3.03-3.4-4.67
	c-2.15-3.75-2.79-8.16-4.15-12.27c-3.8-11.52-13.279-20.76-15.59-32.68c-0.84-4.32-3.58-8.08-5.46-12.06
	c-1.27-2.69-2.67-5.53-5.21-7.07c-3.27-2-7.79-1.08-10.51,1.61C850.182,336.801,848.982,340.725,849.6,344.58z M968.33,749.27
	c-1.182,0.617-2.487,0.959-3.819,1c-0.672,0.07-1.34,0.178-2,0.32c-0.25-2.1-0.391-4.229-0.551-6.3
	c-0.529-6.79-1.59-13.53-2.64-20.26c-1.1-7-1.62-14.66-4-21.38c-3.83-10.94-7.71-22.21-7.22-33.801
	c0.109-2.63,0.439-5.239,0.58-7.859c0.32-6.49-0.59-13.12,1-19.43c0.71-2.87,1.92-5.61,2.38-8.53c0.293-2.638,0.327-5.297,0.1-7.94
	c-0.437-9.177,0.326-18.371,2.271-27.35c1.859,2.43,2.47,5.57,3,8.58l3.75,20.34c2.229,12.07,4.2,24.87,10.109,35.61
	c-0.83,3.869-1.649,8-0.279,11.699c0.59,1.601,1.56,3,2.16,4.62c1,2.69,0.859,5.65,1.159,8.5c0.65,6,3.13,11.9,1.311,17.69
	c-1.872,5.97-3.09,12.126-3.63,18.359c-0.1,1.734-0.3,3.46-0.601,5.171c-0.319,1.539-0.84,3-1.13,4.579
	c-0.399,2.218-0.301,4.496,0.29,6.671c0.449,1.204,0.726,2.467,0.82,3.75c0,1.279-1.57,2.199-2.83,2.399
	c0.37,0.48,0.77,0.94,1.18,1.39C969.5,747.949,969.008,748.705,968.33,749.27z"/>
<path fill="#040530" d="M928.841,760.81c-1.563,0.041-3.082,0.534-4.37,1.421c-0.94,0.888-1.577,2.049-1.82,3.319
	c-0.718,2.529-0.278,5.246,1.2,7.42c0.894,1.121,2.061,1.993,3.39,2.53c4.62,2,9.92,0.54,14.74-0.91l18.88-5.68
	c1.151-0.235,2.214-0.786,3.07-1.59c1.065-1.436,1.098-3.391,0.08-4.86c-1.015-1.411-2.398-2.515-4-3.19
	c-5.87-2.859-12.49-3.51-18.94-3.63c-2.399,0-4.77-0.58-6.399,1.271c-0.86,1-0.7,2.07-2,2.92
	C931.482,760.437,930.174,760.771,928.841,760.81z"/>
<path fill="#040530" d="M964.51,750.43c-1.563,0.046-3.079,0.539-4.37,1.42c-0.938,0.891-1.574,2.051-1.82,3.32
	c-0.717,2.532-0.277,5.252,1.2,7.43c0.896,1.115,2.063,1.982,3.39,2.521c4.63,2,9.92,0.55,14.74-0.9l18.88-5.689
	c1.151-0.235,2.214-0.786,3.07-1.591c1.063-1.432,1.096-3.383,0.08-4.85c-1.016-1.41-2.399-2.514-4-3.189
	c-5.88-2.86-12.5-3.521-18.95-3.641c-2.4,0-4.76-0.57-6.4,1.28c-0.859,1-0.7,2.06-2,2.91
	C967.148,750.064,965.842,750.4,964.51,750.43z"/>
<path fill="#040530" d="M948.1,545.53c11.126-1.118,22.318-1.433,33.49-0.94c0.737-0.008,1.47,0.107,2.17,0.34
	c2.46,1,2.84,4.221,3.069,6.851c1,10.68,5.66,20.63,8,31.09c1.375,6.575,1.999,13.284,1.86,20c-0.135,3-0.082,6.006,0.16,9
	c0.3,2.67,1,5.29,1.38,7.95c0.422,3.573,0.579,7.173,0.47,10.77c0.114,5.64-0.203,11.279-0.949,16.87
	c-1.54,9.53,1.149,19,1.869,28.64c0.359,6.743,1.117,13.458,2.271,20.11c0.55,2.81,1.24,5.59,1.62,8.42
	c1.12,8.41-0.521,17.07,1.25,25.37c0.819,3.88,2.3,8.24,0.12,11.56c-0.681,1-1.681,1.851-2.421,2.86
	c-0.845,0.96-1.112,2.299-0.699,3.51c0.43,0.91,1.43,1.511,1.68,2.48c0.39,1.53-1.21,2.78-2.65,3.43
	c-10.85,4.9-24.84,1.45-32.159-7.939c1.26-0.2,2.8-1.11,2.83-2.391c-0.097-1.272-0.373-2.524-0.82-3.72
	c-0.589-2.157-0.688-4.419-0.29-6.62c0.29-1.54,0.81-3,1.13-4.55c0.3-1.7,0.501-3.417,0.6-5.14
	c0.541-6.194,1.759-12.312,3.631-18.24c1.819-5.75-0.66-11.57-1.311-17.57c-0.3-2.84-0.17-5.77-1.16-8.45
	c-0.6-1.58-1.569-3-2.159-4.58c-1.37-3.689-0.551-7.79,0.279-11.63c-5.91-10.67-7.88-23.39-10.109-35.38l-3.75-20.2
	c-0.561-3-1.17-6.109-3-8.529c-1.944,8.918-2.707,18.053-2.271,27.17c0.227,2.627,0.193,5.27-0.1,7.89
	c-0.46,2.9-1.67,5.63-2.38,8.47c-1.551,6.271-0.641,12.851-1,19.3c-0.141,2.61-0.471,5.2-0.58,7.811
	c-0.49,11.52,3.39,22.72,7.22,33.59c2.35,6.67,2.87,14.25,4,21.229c1,6.69,2.11,13.381,2.64,20.131
	c0.49,6.199,0.71,12.909,4.57,17.779c-3.53,2.29-7.17,4.62-11.3,5.41c-4.813,0.753-9.737-0.202-13.92-2.7
	c-4.159-2.486-7.876-5.646-11-9.35c0.81-0.28,1.1-1.46,1.18-2.31c1.2-12.66-3.61-25-5.43-37.601c-0.91-6.313-1.071-12.71-0.48-19.06
	c0.23-2.391,0.561-4.78,0.65-7.181c0.479-12.51-5.55-24.56-5.33-37.079c0.1-5.87-3-11.65-4.521-17.32c-1.31-5-1.35-10.3-1.38-15.5
	l-0.25-41c0-5.54,0-11.22,1.79-16.45c2.2-6.3-0.319-13.53-0.7-20.19C926.302,545.233,937.239,546.453,948.1,545.53z"/>
<path fill="#A0616A" d="M912.45,427.73c-4.203-8.594-9.337-16.698-15.31-24.171c-1.248-1.459-2.385-3.01-3.4-4.64
	c-2.149-3.73-2.79-8.11-4.149-12.19c-3.801-11.44-13.28-20.63-15.591-32.46c-0.84-4.3-3.58-8-5.46-12c-1.27-2.67-2.67-5.49-5.21-7
	c-3.27-2-7.79-1.08-10.51,1.6c-2.652,2.826-3.842,6.724-3.22,10.55c0.188,1.742,0.883,3.391,2,4.74c1.45,1.63,3.62,2.37,5.569,3.35
	c5.039,2.554,8.895,6.958,10.761,12.29c3.33,9.65,3.76,19.87,8,29.19c4.239,9.319,9.22,18.26,12.88,27.79c2.08,5.41,3.74,11,6.79,16
	s7.81,9.189,13.56,9.939c-0.039-3.625,0.512-7.231,1.63-10.68C912.04,436.1,914.26,431.46,912.45,427.73z"/>
<path fill="#A0616A" d="M974.36,435.21c-0.257-7.071,0.847-14.125,3.25-20.78c0.92-2.55,2-5.14,1.91-7.85
	c-0.13-2.521-1.33-4.83-2.42-7.11c-3.76-7.85-6.4-16.17-9-24.47l-5-15.65c-1.63-1.195-3.105-2.589-4.391-4.15
	c-2.665-3.082-4.427-6.84-5.09-10.86c-0.645-4.049,0.368-8.187,2.811-11.48c1.078-1.584,2.787-2.627,4.689-2.86
	c1.679,0.037,3.269,0.76,4.4,2c1.649,1.882,2.926,4.061,3.76,6.42c1.63,3.84,3.29,7.84,3.141,12c-0.141,3.46-1.431,7.32,0.6,10.13
	c6.64,9.22,11.67,19.81,16.93,29.88c1.342,2.4,2.486,4.904,3.42,7.49c1.285,4.19,1.893,8.559,1.801,12.94
	c0,8.189-1.08,16.35-2.2,24.47c-0.71,5.09-1.64,10.63-5.49,14C983.48,444.21,979.46,439.21,974.36,435.21z"/>
<circle fill="#A0616A" cx="948.921" cy="418.36" r="20.75"/>
<path fill="#A0616A" d="M958.97,440.21c0.5,3.75,2.51,7.11,4.47,10.35c1.18,2,2.69,4.131,5,4.351
	c-6.012,3.155-12.327,5.694-18.85,7.58c-2.217,0.745-4.542,1.12-6.881,1.109c-1.981-0.147-3.921-0.646-5.729-1.47
	c-8.013-3.489-13.981-10.464-16.19-18.92c2.584,0.069,5.168-0.129,7.711-0.59c1.451-0.111,2.805-0.777,3.779-1.86
	c0.58-1.014,0.851-2.174,0.78-3.34c0.1-3.46,0.11-6.93,0-10.39c5.099-0.325,10.213,0.306,15.08,1.859c2,0.65,4,1.431,6,1.94
	c1.26,0.32,4.729,0,5.66,0.729C961.33,432.59,958.62,437.66,958.97,440.21z"/>
<path fill="#F86D70" d="M949.85,452.82c0.467-5.607,4.472-10.285,9.939-11.61c2.141-0.479,4.461-0.42,6.37-1.479
	c3.28-1.83,4.271-6.29,7.42-8.341c3.15-2.05,7.62-0.909,10.36,1.681s4.13,6.279,5.25,9.89c1.672,4.881,2.579,9.991,2.69,15.15
	c0.041,0.943-0.108,1.886-0.44,2.77c-0.593,1.032-1.342,1.967-2.22,2.771c-2.375,2.664-3.47,6.231-3,9.77
	c0.284,3.294-0.018,6.611-0.891,9.8c-2,8.82-4,17.63-5.609,26.53c-0.378,1.638-0.503,3.324-0.37,5c0.31,2.41,1.64,4.69,1.35,7.1
	c-0.283,1.122-0.493,2.262-0.63,3.41c0.065,0.87,0.268,1.724,0.601,2.53c2.27,6.59,8.399,21.69,8.34,28.67
	c-10.65-2.729-26.351-3.34-37.351-3.39c-3.024-0.032-6.049,0.102-9.06,0.399c-7.23,0.78-14.63,2.891-21.641,0.94
	c-6.51-1.811-12.27-7-19-6.35c-1.46-3.82,0.261-16.57,1.631-20.431c5.341-15.199,6.379-31.578,3-47.33
	c-1.23-5.659,0.46-11.67-0.91-17.29c-0.251-1.329-0.76-2.597-1.5-3.729c-0.758-1.144-2.049-1.819-3.42-1.79
	c-0.125-9.04,0.713-18.067,2.5-26.93c0.66-3.15,2-6.87,5.229-7.41c2.86-0.49,5.261,1.93,7.561,3.7c2.358,1.825,5.089,3.108,8,3.76
	c1.172,0.14,2.295,0.551,3.279,1.2c1.37,1.14,1.57,3.189,2.69,4.58c2,2.489,6.47,2.279,7.89,5.149c0.311,0.855,0.562,1.73,0.75,2.62
	c0.672,1.705,1.817,3.184,3.301,4.26C944.188,450.515,946.898,452.025,949.85,452.82z"/>
<path fill="#040530" d="M932.06,396.3c-0.36-1.37-0.3-3,0.8-3.92c0.55-0.43,1.271-0.59,1.86-1c0.831-0.699,1.512-1.56,2-2.53
	c3.081-4.312,8.825-5.77,13.59-3.45c3.61,1.89,5.79,5.67,9,8.22c1.63,1.319,3.52,2.3,5.16,3.62
	c3.284,2.837,5.619,6.613,6.689,10.819c1.063,4.177,1.684,8.454,1.851,12.761c0.17,1.292,0.119,2.604-0.15,3.88
	c-0.332,1.069-0.828,2.082-1.47,3c-3.3,5-7.65,9.54-13.101,12.12c-5.449,2.58-12.08,3-17.46,0.3c-0.541-0.219-1.007-0.591-1.34-1.07
	c-0.306-0.729-0.379-1.536-0.21-2.31c0.292-3.057-0.313-6.132-1.74-8.851c-1-2-2.5-3.72-3.3-5.79
	c-0.744-2.316-1.063-4.749-0.939-7.18C933.21,408.63,933.64,402.36,932.06,396.3z"/>
</svg>
